<mxfile modified="2021-03-11T10:59:38.500Z" host="app.diagrams.net" agent="5.0 (Windows)" etag="cNxbS6MVpGFnAbcUco4i" version="14.4.7" type="github">
  <diagram id="WI9T0HZ2pTsCkuznbFz-" name="Page-1">
    <mxGraphModel dx="1422" dy="735" grid="1" gridSize="10" guides="1" tooltips="1" connect="1" arrows="1" fold="1" page="1" pageScale="1" pageWidth="1169" pageHeight="827" math="0" shadow="0">
      <root>
        <mxCell id="0" />
        <mxCell id="1" parent="0" />
        <mxCell id="aBZCno5w9hMfPToRCG13-187" value="" style="endArrow=classic;startArrow=classic;html=1;fontSize=14;exitX=1;exitY=0.25;exitDx=0;exitDy=0;fillColor=#f5f5f5;strokeColor=#E3E3E3;" parent="1" source="aBZCno5w9hMfPToRCG13-185" target="aBZCno5w9hMfPToRCG13-1" edge="1">
          <mxGeometry width="50" height="50" relative="1" as="geometry">
            <mxPoint x="480" y="540" as="sourcePoint" />
            <mxPoint x="840.0625" y="526.25" as="targetPoint" />
          </mxGeometry>
        </mxCell>
        <mxCell id="aBZCno5w9hMfPToRCG13-161" value="" style="endArrow=classic;startArrow=classic;html=1;strokeWidth=1;fontSize=14;exitX=0.5;exitY=0;exitDx=0;exitDy=0;" parent="1" source="aBZCno5w9hMfPToRCG13-156" target="aBZCno5w9hMfPToRCG13-100" edge="1">
          <mxGeometry width="50" height="50" relative="1" as="geometry">
            <mxPoint x="982.75" y="646.5" as="sourcePoint" />
            <mxPoint x="1088.9850000000001" y="95.5" as="targetPoint" />
          </mxGeometry>
        </mxCell>
        <mxCell id="aBZCno5w9hMfPToRCG13-159" value="" style="endArrow=classic;startArrow=classic;html=1;strokeWidth=1;fontSize=14;entryX=0.122;entryY=0.99;entryDx=0;entryDy=0;exitX=0.75;exitY=0;exitDx=0;exitDy=0;entryPerimeter=0;" parent="1" source="aBZCno5w9hMfPToRCG13-134" target="aBZCno5w9hMfPToRCG13-100" edge="1">
          <mxGeometry width="50" height="50" relative="1" as="geometry">
            <mxPoint x="1014.8800000000001" y="653" as="sourcePoint" />
            <mxPoint x="775.63" y="200.5" as="targetPoint" />
          </mxGeometry>
        </mxCell>
        <mxCell id="aBZCno5w9hMfPToRCG13-160" value="" style="endArrow=classic;startArrow=classic;html=1;strokeWidth=1;fontSize=14;entryX=0.288;entryY=0.99;entryDx=0;entryDy=0;entryPerimeter=0;" parent="1" source="aBZCno5w9hMfPToRCG13-151" target="aBZCno5w9hMfPToRCG13-100" edge="1">
          <mxGeometry width="50" height="50" relative="1" as="geometry">
            <mxPoint x="922.75" y="650" as="sourcePoint" />
            <mxPoint x="1028.9850000000001" y="99" as="targetPoint" />
          </mxGeometry>
        </mxCell>
        <mxCell id="aBZCno5w9hMfPToRCG13-144" value="" style="endArrow=classic;startArrow=classic;html=1;strokeWidth=1;fontSize=14;entryX=0;entryY=0.25;entryDx=0;entryDy=0;exitX=1;exitY=0.75;exitDx=0;exitDy=0;fillColor=#f5f5f5;strokeColor=#E3E3E3;" parent="1" source="aBZCno5w9hMfPToRCG13-1" target="aBZCno5w9hMfPToRCG13-140" edge="1">
          <mxGeometry width="50" height="50" relative="1" as="geometry">
            <mxPoint x="1212.75" y="370" as="sourcePoint" />
            <mxPoint x="1425" y="337.5" as="targetPoint" />
          </mxGeometry>
        </mxCell>
        <mxCell id="aBZCno5w9hMfPToRCG13-143" value="" style="endArrow=classic;startArrow=classic;html=1;strokeWidth=1;fontSize=14;entryX=0;entryY=0.25;entryDx=0;entryDy=0;exitX=1;exitY=0.75;exitDx=0;exitDy=0;fillColor=#f5f5f5;strokeColor=#E3E3E3;" parent="1" source="aBZCno5w9hMfPToRCG13-1" target="aBZCno5w9hMfPToRCG13-138" edge="1">
          <mxGeometry width="50" height="50" relative="1" as="geometry">
            <mxPoint x="1222.75" y="380" as="sourcePoint" />
            <mxPoint x="1435" y="347.5" as="targetPoint" />
          </mxGeometry>
        </mxCell>
        <mxCell id="aBZCno5w9hMfPToRCG13-102" value="" style="whiteSpace=wrap;html=1;aspect=fixed;fillColor=#f5f5f5;dashed=1;strokeColor=#666666;fontColor=#333333;" parent="1" vertex="1">
          <mxGeometry x="18.75" y="20" width="361.25" height="361.25" as="geometry" />
        </mxCell>
        <mxCell id="rEwUB-hizbHqpFs7lDfg-66" value="" style="shape=image;imageAspect=0;aspect=fixed;verticalLabelPosition=bottom;verticalAlign=top;shadow=1;glass=0;comic=1;strokeColor=#D5E8D4;strokeWidth=2;fillColor=#D5E8D4;gradientColor=#E5FAE4;image=https://object-storage-ca-ymq-1.vexxhost.net/swift/v1/6e4619c416ff4bd19e1c087f27a43eea/www-images-prod/openstack-logo/2016R/OpenStack-Logo-Horizontal.SVG;" parent="1" vertex="1">
          <mxGeometry x="42.75" y="160" as="geometry" />
        </mxCell>
        <mxCell id="rEwUB-hizbHqpFs7lDfg-68" value="" style="shape=image;imageAspect=0;aspect=fixed;verticalLabelPosition=bottom;verticalAlign=top;shadow=1;glass=0;comic=1;strokeColor=#D5E8D4;strokeWidth=2;fillColor=#D5E8D4;gradientColor=#E5FAE4;image=https://www.ovh.com/fr/images/logo/ovhLogoColor.svg;" parent="1" vertex="1">
          <mxGeometry x="42.75" y="160" as="geometry" />
        </mxCell>
        <mxCell id="97YVQ13feA54Ti60q4Zs-8" value="" style="group" parent="1" vertex="1" connectable="0">
          <mxGeometry x="422.75" y="20" width="630" height="45" as="geometry" />
        </mxCell>
        <mxCell id="R94Pqibs1qSGRYHPdhNJ-32" value="" style="rounded=1;whiteSpace=wrap;html=1;strokeColor=#666666;fillColor=#f5f5f5;fontColor=#333333;opacity=60;align=left;" parent="97YVQ13feA54Ti60q4Zs-8" vertex="1">
          <mxGeometry width="615.7050243111831" height="45" as="geometry" />
        </mxCell>
        <mxCell id="R94Pqibs1qSGRYHPdhNJ-8" value="HTTPS" style="text;html=1;strokeColor=#7EA6E0;fillColor=#cce5ff;align=center;verticalAlign=middle;whiteSpace=wrap;rounded=0;fontFamily=Courier New;fontStyle=1;labelBackgroundColor=none;fontColor=#4C6487;" parent="97YVQ13feA54Ti60q4Zs-8" vertex="1">
          <mxGeometry x="7.1474878444084275" y="25" width="40.84278768233388" height="17" as="geometry" />
        </mxCell>
        <mxCell id="R94Pqibs1qSGRYHPdhNJ-11" value="csv" style="text;html=1;strokeColor=none;fillColor=#97D077;align=center;verticalAlign=middle;whiteSpace=wrap;rounded=0;fontFamily=Courier New;fontStyle=1;fontSize=13;fontColor=#FFFFFF;labelBackgroundColor=none;" parent="97YVQ13feA54Ti60q4Zs-8" vertex="1">
          <mxGeometry x="7.1474878444084275" y="5" width="40.84278768233388" height="17" as="geometry" />
        </mxCell>
        <mxCell id="R94Pqibs1qSGRYHPdhNJ-12" value="" style="endArrow=classic;html=1;strokeWidth=2;fillColor=#a0522d;shadow=0;comic=1;entryX=0.993;entryY=0.902;entryDx=0;entryDy=0;entryPerimeter=0;strokeColor=#B85450;" parent="97YVQ13feA54Ti60q4Zs-8" edge="1">
          <mxGeometry width="50" height="50" relative="1" as="geometry">
            <mxPoint x="212.38249594813615" y="34" as="sourcePoint" />
            <mxPoint x="172.8997730956241" y="33.97199999999998" as="targetPoint" />
            <Array as="points" />
          </mxGeometry>
        </mxCell>
        <mxCell id="R94Pqibs1qSGRYHPdhNJ-15" value="File format" style="text;html=1;strokeColor=none;fillColor=none;align=center;verticalAlign=middle;whiteSpace=wrap;rounded=0;fontColor=#000000;" parent="97YVQ13feA54Ti60q4Zs-8" vertex="1">
          <mxGeometry x="55.13776337115073" y="5" width="71.47487844408428" height="20" as="geometry" />
        </mxCell>
        <mxCell id="R94Pqibs1qSGRYHPdhNJ-16" value="ip protocol" style="text;html=1;strokeColor=none;fillColor=none;align=center;verticalAlign=middle;whiteSpace=wrap;rounded=0;fontColor=#000000;" parent="97YVQ13feA54Ti60q4Zs-8" vertex="1">
          <mxGeometry x="55.13776337115073" y="25" width="71.47487844408428" height="20" as="geometry" />
        </mxCell>
        <mxCell id="R94Pqibs1qSGRYHPdhNJ-18" value="critical road" style="text;html=1;strokeColor=none;fillColor=none;align=left;verticalAlign=middle;whiteSpace=wrap;rounded=0;fontColor=#000000;" parent="97YVQ13feA54Ti60q4Zs-8" vertex="1">
          <mxGeometry x="216.46677471636954" y="25" width="71.47487844408428" height="20" as="geometry" />
        </mxCell>
        <mxCell id="R94Pqibs1qSGRYHPdhNJ-28" value="Administration" style="text;html=1;strokeColor=none;fillColor=none;align=left;verticalAlign=middle;whiteSpace=wrap;rounded=0;fontColor=#000000;" parent="97YVQ13feA54Ti60q4Zs-8" vertex="1">
          <mxGeometry x="507.4716369529984" y="5" width="122.52836304700162" height="20" as="geometry" />
        </mxCell>
        <mxCell id="R94Pqibs1qSGRYHPdhNJ-29" value="Most used services" style="text;html=1;strokeColor=none;fillColor=none;align=left;verticalAlign=middle;whiteSpace=wrap;rounded=0;fontColor=#000000;" parent="97YVQ13feA54Ti60q4Zs-8" vertex="1">
          <mxGeometry x="505.9400324149109" y="25" width="122.52836304700162" height="20" as="geometry" />
        </mxCell>
        <mxCell id="aBZCno5w9hMfPToRCG13-178" value="" style="shape=module;jettyWidth=8;jettyHeight=4;fillColor=#d5e8d4;strokeColor=#82b366;" parent="97YVQ13feA54Ti60q4Zs-8" vertex="1">
          <mxGeometry x="459.48136142625606" y="2" width="20.42139384116694" height="20" as="geometry" />
        </mxCell>
        <mxCell id="aBZCno5w9hMfPToRCG13-179" value="" style="shape=module;jettyWidth=8;jettyHeight=4;fillColor=#fff2cc;strokeColor=#d6b656;" parent="97YVQ13feA54Ti60q4Zs-8" vertex="1">
          <mxGeometry x="459.48136142625606" y="25" width="20.42139384116694" height="20" as="geometry" />
        </mxCell>
        <mxCell id="aBZCno5w9hMfPToRCG13-180" value="" style="shape=module;jettyWidth=8;jettyHeight=4;fillColor=#647687;strokeColor=#314354;fontColor=#ffffff;" parent="97YVQ13feA54Ti60q4Zs-8" vertex="1">
          <mxGeometry x="287.94000000000005" y="3.5" width="20" height="20" as="geometry" />
        </mxCell>
        <mxCell id="aBZCno5w9hMfPToRCG13-181" value="Backend" style="text;html=1;strokeColor=none;fillColor=none;align=left;verticalAlign=middle;whiteSpace=wrap;rounded=0;fontColor=#000000;" parent="97YVQ13feA54Ti60q4Zs-8" vertex="1">
          <mxGeometry x="320.0016369529983" y="3.5" width="122.52836304700162" height="20" as="geometry" />
        </mxCell>
        <mxCell id="aBZCno5w9hMfPToRCG13-182" value="" style="shape=module;jettyWidth=8;jettyHeight=4;fillColor=#dae8fc;strokeColor=#6c8ebf;" parent="97YVQ13feA54Ti60q4Zs-8" vertex="1">
          <mxGeometry x="287.94000000000005" y="25" width="20" height="20" as="geometry" />
        </mxCell>
        <mxCell id="aBZCno5w9hMfPToRCG13-183" value="Advanced users" style="text;html=1;strokeColor=none;fillColor=none;align=left;verticalAlign=middle;whiteSpace=wrap;rounded=0;fontColor=#000000;" parent="97YVQ13feA54Ti60q4Zs-8" vertex="1">
          <mxGeometry x="320.0016369529983" y="22" width="122.52836304700162" height="20" as="geometry" />
        </mxCell>
        <mxCell id="u5VeJTDDOckwFqEWBu4E-1" value="&lt;font size=&quot;1&quot;&gt;&lt;b style=&quot;font-size: 14px&quot;&gt;&lt;font color=&quot;#3333FF&quot;&gt;&lt;i style=&quot;font-size: 12px&quot;&gt;&amp;lt;Specific parts&amp;gt;&lt;/i&gt;&lt;/font&gt;&lt;/b&gt;&lt;/font&gt;" style="text;html=1;strokeColor=none;fillColor=none;align=left;verticalAlign=middle;whiteSpace=wrap;rounded=0;fontColor=#000000;" vertex="1" parent="97YVQ13feA54Ti60q4Zs-8">
          <mxGeometry x="167.25" y="3.5" width="95.97" height="20" as="geometry" />
        </mxCell>
        <mxCell id="aBZCno5w9hMfPToRCG13-1" value="&lt;div&gt;Authentication &lt;br&gt;&lt;/div&gt;&lt;div&gt;&amp;amp; authorizations&lt;/div&gt;" style="html=1;dropTarget=0;fontSize=14;fontStyle=1" parent="1" vertex="1">
          <mxGeometry x="799.5" y="360" width="173.25" height="70" as="geometry" />
        </mxCell>
        <mxCell id="aBZCno5w9hMfPToRCG13-2" value="" style="shape=module;jettyWidth=8;jettyHeight=4;fillColor=#d5e8d4;strokeColor=#82b366;" parent="aBZCno5w9hMfPToRCG13-1" vertex="1">
          <mxGeometry x="1" width="20" height="20" relative="1" as="geometry">
            <mxPoint x="-27" y="7" as="offset" />
          </mxGeometry>
        </mxCell>
        <mxCell id="aBZCno5w9hMfPToRCG13-7" value="&lt;div&gt;&lt;font size=&quot;1&quot;&gt;&lt;b style=&quot;font-size: 14px&quot;&gt;Data receiving&lt;/b&gt;&lt;/font&gt;&lt;/div&gt;&lt;div&gt;&amp;lt;Coap Server&amp;gt;&lt;/div&gt;&lt;div&gt;&amp;lt;FTP Server&amp;gt;&lt;/div&gt;&amp;lt;HTTP Server&amp;gt;&lt;div&gt;&amp;lt;Interpret Lora callbacks&amp;gt;&lt;/div&gt;&lt;div&gt;&amp;lt;Interpret Sigfox callbacks&amp;gt;&lt;/div&gt;&lt;div&gt;&amp;lt;Interpret SMS callbacks&amp;gt;&lt;/div&gt;&lt;div&gt;&amp;lt;statistics&amp;gt;&lt;/div&gt;&lt;div&gt;&amp;lt;device callbacks&amp;gt;&lt;br&gt;&lt;/div&gt;" style="html=1;dropTarget=0;" parent="1" vertex="1">
          <mxGeometry x="387.75" y="101.5" width="180" height="130" as="geometry" />
        </mxCell>
        <mxCell id="aBZCno5w9hMfPToRCG13-8" value="" style="shape=module;jettyWidth=8;jettyHeight=4;fillColor=#647687;strokeColor=#314354;fontColor=#ffffff;" parent="aBZCno5w9hMfPToRCG13-7" vertex="1">
          <mxGeometry x="1" width="20" height="20" relative="1" as="geometry">
            <mxPoint x="-27" y="7" as="offset" />
          </mxGeometry>
        </mxCell>
        <mxCell id="aBZCno5w9hMfPToRCG13-9" value="&lt;div&gt;&lt;font size=&quot;1&quot;&gt;&lt;b style=&quot;font-size: 14px&quot;&gt;Data integration&lt;/b&gt;&lt;/font&gt;&lt;/div&gt;&lt;div&gt;&amp;lt;Save in db&amp;gt;&lt;br&gt;&lt;/div&gt;" style="html=1;dropTarget=0;" parent="1" vertex="1">
          <mxGeometry x="631" y="79.5" width="172.5" height="50" as="geometry" />
        </mxCell>
        <mxCell id="aBZCno5w9hMfPToRCG13-10" value="" style="shape=module;jettyWidth=8;jettyHeight=4;fillColor=#647687;strokeColor=#314354;fontColor=#ffffff;" parent="aBZCno5w9hMfPToRCG13-9" vertex="1">
          <mxGeometry x="1" width="20" height="20" relative="1" as="geometry">
            <mxPoint x="-27" y="7" as="offset" />
          </mxGeometry>
        </mxCell>
        <mxCell id="aBZCno5w9hMfPToRCG13-57" value="" style="shape=image;verticalLabelPosition=bottom;labelBackgroundColor=#ffffff;verticalAlign=top;aspect=fixed;imageAspect=0;image=data:image/jpeg,/9j/4QZzRXhpZgAATU0AKgAAAAgABwESAAMAAAABAAEAAAEaAAUAAAABAAAAYgEbAAUAAAABAAAAagEoAAMAAAABAAIAAAExAAIAAABjAAAAcgEyAAIAAAAUAAAA1YdpAAQAAAABAAAA7AAAARgADqYAAAAnEAAOpgAAACcQQWRvYmUgUGhvdG9zaG9wIENTNSAoMTIuMHgyMDEwMDExNSBbMjAxMDAxMTUubS45OTggMjAxMC8wMS8xNTowMjowMDowMCBjdXRvZmY7IG0gYnJhbmNoXSkgIFdpbmRvd3MAMjAxMjowNzoyNCAxNzozMjowMwAAAAAAA6ABAAMAAAAB//8AAKACAAQAAAABAAAAZKADAAQAAAABAAAAZAAAAAAAAAAGAQMAAwAAAAEABgAAARoABQAAAAEAAAFmARsABQAAAAEAAAFuASgAAwAAAAEAAgAAAgEABAAAAAEAAAF2AgIABAAAAAEAAAT1AAAAAAAAAEgAAAABAAAASAAAAAH/2P/tAAxBZG9iZV9DTQAC/+4ADkFkb2JlAGSAAAAAAf/bAIQADAgICAkIDAkJDBELCgsRFQ8MDA8VGBMTFRMTGBEMDAwMDAwRDAwMDAwMDAwMDAwMDAwMDAwMDAwMDAwMDAwMDAENCwsNDg0QDg4QFA4ODhQUDg4ODhQRDAwMDAwREQwMDAwMDBEMDAwMDAwMDAwMDAwMDAwMDAwMDAwMDAwMDAwM/8AAEQgAZABkAwEiAAIRAQMRAf/dAAQAB//EAT8AAAEFAQEBAQEBAAAAAAAAAAMAAQIEBQYHCAkKCwEAAQUBAQEBAQEAAAAAAAAAAQACAwQFBgcICQoLEAABBAEDAgQCBQcGCAUDDDMBAAIRAwQhEjEFQVFhEyJxgTIGFJGhsUIjJBVSwWIzNHKC0UMHJZJT8OHxY3M1FqKygyZEk1RkRcKjdDYX0lXiZfKzhMPTdePzRieUpIW0lcTU5PSltcXV5fVWZnaGlqa2xtbm9jdHV2d3h5ent8fX5/cRAAICAQIEBAMEBQYHBwYFNQEAAhEDITESBEFRYXEiEwUygZEUobFCI8FS0fAzJGLhcoKSQ1MVY3M08SUGFqKygwcmNcLSRJNUoxdkRVU2dGXi8rOEw9N14/NGlKSFtJXE1OT0pbXF1eX1VmZ2hpamtsbW5vYnN0dXZ3eHl6e3x//aAAwDAQACEQMRAD8A9VSSSSUpJJJJSkkkklPK4P1i6lf/AIweodAsLPsGNiMuqaG+/eRQTNn/AF566pcH0v8A/K/1j/whX+TEXeJKUkkkkpSSSSSlJJJJKf/Q9VSSSSUpJJJJSkkkklPBdL//ACv9Y/8ACFf5MRd6vOOj9Rof/ji6qwH+cxvs7T4vqbjus/8APNi9HSUpJJJJSkkkklKSSSSU/wD/0fVUkkklKSSSSUpDyLW0Y9tziGitjnlzjDRtG73FB6o99fTMuxhLXsosc1w0IIa6CFwPS8m+6oCyxz2vHua4lwM8zu3IgWgl4L6vdQ6q364YvXbA0WX5m/IsJAYBe7Zkfne1np3PX0KuTxMLEBL/AEayXCCC0EcfuRtT5d1rBLHlpBEEGE6Qjpw2O96oBlrdeFPVpJhwnTFykkkklKSSSSU//9L1VJJJJSkkkklNPrP/ACRm/wDhe3/qHLz/AKN/NM+AXf8AWv8AkfO/8L2/9Q5cB0b+aZ8AjFBemxPoj/Xsq+b9E/FWcP6CrZv0U5D1o4TphwnTFykkkklKSSSSU//T9VSSSSUpJJJJTS61/wAj53/he3/qHLz7oz2CpkuHA7hel2gGt4Oo2mR8lxH1Xw8Sy8NsprcJ4LQUQaQQ6WJZXsPvb94QMx7Nv0hz4hdL+zOnRH2WqP6jf7lyHUKKWdax2tra1vr16AQPptR4lU9wnSSTUqSSSSUpJJJJT//U9VSSSSUpJJJJTF4JY4DkgrgPq/1SjEu3WtcdpIIbB4K9APC4PH+qnW63vL6WgFziCHtOhOndEKemb9ZcJ4kV2fcP/JLnr3Oy+sYz6mwDew+4gfnAqxidLyLGEt/fdV/bbIc3n+SrWN0LPrzce5zRsrsDnGRwPmjQRq9MkkkmpUkkkkpSSSSSn//V9VSXyqkkp+qkl8qpJKfqpJfKqSSn6ho+w7neht+m6dvHqfn/AMnerK+VUklP1UkvlVJJT9VJL5VSSU/VSS+VUklP/9n/7Q0YUGhvdG9zaG9wIDMuMAA4QklNBAQAAAAAAA8cAVoAAxslRxwCAAACAC8AOEJJTQQlAAAAAAAQzvBXqZk6Bk84dqtMYRmc3jhCSU0EOgAAAAAAewAAABAAAAABAAAAAAALcHJpbnRPdXRwdXQAAAAEAAAAAENsclNlbnVtAAAAAENsclMAAAAAUkdCQwAAAABJbnRlZW51bQAAAABJbnRlAAAAAENscm0AAAAATXBCbGJvb2wBAAAAC3ByaW50ZXJOYW1lVEVYVAAAAAEAAAA4QklNBDsAAAAAAYIAAAAQAAAAAQAAAAAAEnByaW50T3V0cHV0T3B0aW9ucwAAABAAAAAAQ3B0bmJvb2wAAAAAAENsYnJib29sAAAAAABSZ3NNYm9vbAAAAAAAQ3JuQ2Jvb2wAAAAAAENudENib29sAAAAAABMYmxzYm9vbAAAAAAATmd0dmJvb2wAAAAAAEVtbERib29sAAAAAABJbnRyYm9vbAAAAAAAQmNrZ09iamMAAAABAAAAAAAAUkdCQwAAAAMAAAAAUmQgIGRvdWJAb+AAAAAAAAAAAABHcm4gZG91YkBv4AAAAAAAAAAAAEJsICBkb3ViQG/gAAAAAAAAAAAAQnJkVFVudEYjUmx0AAAAAAAAAAAAAAAAQmxkIFVudEYjUmx0AAAAAAAAAAAAAAAAUnNsdFVudEYjUHhsQFgAAAAAAAAAAAAKdmVjdG9yRGF0YWJvb2wBAAAAAFBnUHNlbnVtAAAAAFBnUHMAAAAAUGdQQwAAAABTY2wgVW50RiNQcmNAWQAAAAAAADhCSU0D7QAAAAAAEABgAAAAAQACAGAAAAABAAI4QklNBCYAAAAAAA4AAAAAAAAAAAAAP4AAADhCSU0D8gAAAAAACgAA////////AAA4QklNBA0AAAAAAAQAAAAeOEJJTQQZAAAAAAAEAAAAHjhCSU0D8wAAAAAACQAAAAAAAAAAAQA4QklNJxAAAAAAAAoAAQAAAAAAAAACOEJJTQP1AAAAAABIAC9mZgABAGxmZgAGAAAAAAABAC9mZgABAKGZmgAGAAAAAAABADIAAAABAFoAAAAGAAAAAAABADUAAAABAC0AAAAGAAAAAAABOEJJTQP4AAAAAABwAAD/////////////////////////////A+gAAAAA/////////////////////////////wPoAAAAAP////////////////////////////8D6AAAAAD/////////////////////////////A+gAADhCSU0ECAAAAAAAGgAAAAEAAAJAAAACQAAAAAIAAA5WAf//+bQAOEJJTQQeAAAAAAAEAAAAADhCSU0EGgAAAAADRQAAAAYAAAAAAAAAAAAAAGQAAABkAAAACABKAEsAVAAwADAAMAA0ADgAAAABAAAAAAAAAAAAAAAAAAAAAAAAAAEAAAAAAAAAAAAAAGQAAABkAAAAAAAAAAAAAAAAAAAAAAEAAAAAAAAAAAAAAAAAAAAAAAAAEAAAAAEAAAAAAABudWxsAAAAAgAAAAZib3VuZHNPYmpjAAAAAQAAAAAAAFJjdDEAAAAEAAAAAFRvcCBsb25nAAAAAAAAAABMZWZ0bG9uZwAAAAAAAAAAQnRvbWxvbmcAAABkAAAAAFJnaHRsb25nAAAAZAAAAAZzbGljZXNWbExzAAAAAU9iamMAAAABAAAAAAAFc2xpY2UAAAASAAAAB3NsaWNlSURsb25nAAAAAAAAAAdncm91cElEbG9uZwAAAAAAAAAGb3JpZ2luZW51bQAAAAxFU2xpY2VPcmlnaW4AAAANYXV0b0dlbmVyYXRlZAAAAABUeXBlZW51bQAAAApFU2xpY2VUeXBlAAAAAEltZyAAAAAGYm91bmRzT2JqYwAAAAEAAAAAAABSY3QxAAAABAAAAABUb3AgbG9uZwAAAAAAAAAATGVmdGxvbmcAAAAAAAAAAEJ0b21sb25nAAAAZAAAAABSZ2h0bG9uZwAAAGQAAAADdXJsVEVYVAAAAAEAAAAAAABudWxsVEVYVAAAAAEAAAAAAABNc2dlVEVYVAAAAAEAAAAAAAZhbHRUYWdURVhUAAAAAQAAAAAADmNlbGxUZXh0SXNIVE1MYm9vbAEAAAAIY2VsbFRleHRURVhUAAAAAQAAAAAACWhvcnpBbGlnbmVudW0AAAAPRVNsaWNlSG9yekFsaWduAAAAB2RlZmF1bHQAAAAJdmVydEFsaWduZW51bQAAAA9FU2xpY2VWZXJ0QWxpZ24AAAAHZGVmYXVsdAAAAAtiZ0NvbG9yVHlwZWVudW0AAAARRVNsaWNlQkdDb2xvclR5cGUAAAAATm9uZQAAAAl0b3BPdXRzZXRsb25nAAAAAAAAAApsZWZ0T3V0c2V0bG9uZwAAAAAAAAAMYm90dG9tT3V0c2V0bG9uZwAAAAAAAAALcmlnaHRPdXRzZXRsb25nAAAAAAA4QklNBCgAAAAAAAwAAAACP/AAAAAAAAA4QklNBBEAAAAAAAEBADhCSU0EFAAAAAAABAAAAAM4QklNBAwAAAAABREAAAABAAAAZAAAAGQAAAEsAAB1MAAABPUAGAAB/9j/7QAMQWRvYmVfQ00AAv/uAA5BZG9iZQBkgAAAAAH/2wCEAAwICAgJCAwJCQwRCwoLERUPDAwPFRgTExUTExgRDAwMDAwMEQwMDAwMDAwMDAwMDAwMDAwMDAwMDAwMDAwMDAwBDQsLDQ4NEA4OEBQODg4UFA4ODg4UEQwMDAwMEREMDAwMDAwRDAwMDAwMDAwMDAwMDAwMDAwMDAwMDAwMDAwMDP/AABEIAGQAZAMBIgACEQEDEQH/3QAEAAf/xAE/AAABBQEBAQEBAQAAAAAAAAADAAECBAUGBwgJCgsBAAEFAQEBAQEBAAAAAAAAAAEAAgMEBQYHCAkKCxAAAQQBAwIEAgUHBggFAwwzAQACEQMEIRIxBUFRYRMicYEyBhSRobFCIyQVUsFiMzRygtFDByWSU/Dh8WNzNRaisoMmRJNUZEXCo3Q2F9JV4mXys4TD03Xj80YnlKSFtJXE1OT0pbXF1eX1VmZ2hpamtsbW5vY3R1dnd4eXp7fH1+f3EQACAgECBAQDBAUGBwcGBTUBAAIRAyExEgRBUWFxIhMFMoGRFKGxQiPBUtHwMyRi4XKCkkNTFWNzNPElBhaisoMHJjXC0kSTVKMXZEVVNnRl4vKzhMPTdePzRpSkhbSVxNTk9KW1xdXl9VZmdoaWprbG1ub2JzdHV2d3h5ent8f/2gAMAwEAAhEDEQA/APVUkkklKSSSSUpJJJJTyuD9YupX/wCMHqHQLCz7BjYjLqmhvv3kUEzZ/wBeeuqXB9L/APyv9Y/8IV/kxF3iSlJJJJKUkkkkpSSSSSn/0PVUkkklKSSSSUpJJJJTwXS//wAr/WP/AAhX+TEXerzjo/UaH/44uqsB/nMb7O0+L6m47rP/ADzYvR0lKSSSSUpJJJJSkkkklP8A/9H1VJJJJSkkkklKQ8i1tGPbc4horY55c4w0bRu9xQeqPfX0zLsYS17KLHNcNCCGughcD0vJvuqAssc9rx7muJcDPM7tyIFoJeC+r3UOqt+uGL12wNFl+ZvyLCQGAXu2ZH53tZ6dz19Crk8TCxAS/wBGslwggtBHH7kbU+XdawSx5aQRBBhOkI6cNjveqAZa3XhT1aSYcJ0xcpJJJJSkkkklP//S9VSSSSUpJJJJTT6z/wAkZv8A4Xt/6hy8/wCjfzTPgF3/AFr/AJHzv/C9v/UOXAdG/mmfAIxQXpsT6I/17Kvm/RPxVnD+gq2b9FOQ9aOE6YcJ0xcpJJJJSkkkklP/0/VUkkklKSSSSU0utf8AI+d/4Xt/6hy8+6M9gqZLhwO4XpdoBreDqNpkfJcR9V8PEsvDbKa3CeC0FEGkEOliWV7D72/eEDMezb9Ic+IXS/szp0R9lqj+o3+5ch1CilnWsdra2tb69egED6bUeJVPcJ0kk1KkkkklKSSSSU//1PVUkkklKSSSSUxeCWOA5IK4D6v9UoxLt1rXHaSCGweCvQDwuDx/qp1ut7y+loBc4gh7ToTp3RCnpm/WXCeJFdn3D/yS569zsvrGM+psA3sPuIH5wKsYnS8ixhLf33Vf22yHN5/kq1jdCz683Huc0bK7A5xkcD5o0EavTJJJJqVJJJJKUkkkkp//1fVUl8qpJKfqpJfKqSSn6qSXyqkkp+oaPsO53obfpunbx6n5/wDJ3qyvlVJJT9VJL5VSSU/VSS+VUklP1UkvlVJJT//ZADhCSU0EIQAAAAAAVQAAAAEBAAAADwBBAGQAbwBiAGUAIABQAGgAbwB0AG8AcwBoAG8AcAAAABMAQQBkAG8AYgBlACAAUABoAG8AdABvAHMAaABvAHAAIABDAFMANQAAAAEAOEJJTQQGAAAAAAAHAAgAAAABAQD/4Q1/aHR0cDovL25zLmFkb2JlLmNvbS94YXAvMS4wLwA8P3hwYWNrZXQgYmVnaW49Iu+7vyIgaWQ9Ilc1TTBNcENlaGlIenJlU3pOVGN6a2M5ZCI/PiA8eDp4bXBtZXRhIHhtbG5zOng9ImFkb2JlOm5zOm1ldGEvIiB4OnhtcHRrPSJBZG9iZSBYTVAgQ29yZSA1LjAtYzA2MCA2MS4xMzQzNDIsIDIwMTAvMDEvMTAtMTg6MDY6NDMgICAgICAgICI+IDxyZGY6UkRGIHhtbG5zOnJkZj0iaHR0cDovL3d3dy53My5vcmcvMTk5OS8wMi8yMi1yZGYtc3ludGF4LW5zIyI+IDxyZGY6RGVzY3JpcHRpb24gcmRmOmFib3V0PSIiIHhtbG5zOnhtcD0iaHR0cDovL25zLmFkb2JlLmNvbS94YXAvMS4wLyIgeG1sbnM6ZGM9Imh0dHA6Ly9wdXJsLm9yZy9kYy9lbGVtZW50cy8xLjEvIiB4bWxuczpwaG90b3Nob3A9Imh0dHA6Ly9ucy5hZG9iZS5jb20vcGhvdG9zaG9wLzEuMC8iIHhtbG5zOnhtcE1NPSJodHRwOi8vbnMuYWRvYmUuY29tL3hhcC8xLjAvbW0vIiB4bWxuczpzdEV2dD0iaHR0cDovL25zLmFkb2JlLmNvbS94YXAvMS4wL3NUeXBlL1Jlc291cmNlRXZlbnQjIiB4bXA6TW9kaWZ5RGF0ZT0iMjAxMi0wNy0yNFQxNzozMjowMyswMjowMCIgeG1wOkNyZWF0b3JUb29sPSJBZG9iZSBQaG90b3Nob3AgQ1M1ICgxMi4weDIwMTAwMTE1IFsyMDEwMDExNS5tLjk5OCAyMDEwLzAxLzE1OjAyOjAwOjAwIGN1dG9mZjsgbSBicmFuY2hdKSAgV2luZG93cyIgeG1wOkNyZWF0ZURhdGU9IjIwMTItMDctMjRUMTQ6NTQ6MDgrMDI6MDAiIHhtcDpNZXRhZGF0YURhdGU9IjIwMTItMDctMjRUMTc6MzI6MDMrMDI6MDAiIGRjOmZvcm1hdD0iaW1hZ2UvanBlZyIgcGhvdG9zaG9wOkNvbG9yTW9kZT0iMyIgeG1wTU06SW5zdGFuY2VJRD0ieG1wLmlpZDo4NUYwODgzOEE0RDVFMTExOENFNUY5RTk4NTUyREU5OCIgeG1wTU06RG9jdW1lbnRJRD0ieG1wLmRpZDo4NUYwODgzOEE0RDVFMTExOENFNUY5RTk4NTUyREU5OCIgeG1wTU06T3JpZ2luYWxEb2N1bWVudElEPSJ4bXAuZGlkOjg1RjA4ODM4QTRENUUxMTE4Q0U1RjlFOTg1NTJERTk4Ij4gPHhtcE1NOkhpc3Rvcnk+IDxyZGY6U2VxPiA8cmRmOmxpIHN0RXZ0OmFjdGlvbj0ic2F2ZWQiIHN0RXZ0Omluc3RhbmNlSUQ9InhtcC5paWQ6ODVGMDg4MzhBNEQ1RTExMThDRTVGOUU5ODU1MkRFOTgiIHN0RXZ0OndoZW49IjIwMTItMDctMjRUMTc6MzI6MDMrMDI6MDAiIHN0RXZ0OnNvZnR3YXJlQWdlbnQ9IkFkb2JlIFBob3Rvc2hvcCBDUzUgKDEyLjB4MjAxMDAxMTUgWzIwMTAwMTE1Lm0uOTk4IDIwMTAvMDEvMTU6MDI6MDA6MDAgY3V0b2ZmOyBtIGJyYW5jaF0pICBXaW5kb3dzIiBzdEV2dDpjaGFuZ2VkPSIvIi8+IDwvcmRmOlNlcT4gPC94bXBNTTpIaXN0b3J5PiA8L3JkZjpEZXNjcmlwdGlvbj4gPC9yZGY6UkRGPiA8L3g6eG1wbWV0YT4gICAgICAgICAgICAgICAgICAgICAgICAgICAgICAgICAgICAgICAgICAgICAgICAgICAgICAgICAgICAgICAgICAgICAgICAgICAgICAgICAgICAgICAgICAgICAgICAgICAgICAgICAgICAgICAgICAgICAgICAgICAgICAgICAgICAgICAgICAgICAgICAgICAgICAgICAgICAgICAgICAgICAgICAgICAgICAgICAgICAgICAgICAgICAgICAgICAgICAgICAgICAgICAgICAgICAgICAgICAgICAgICAgICAgICAgICAgICAgICAgICAgICAgICAgICAgICAgICAgICAgICAgICAgICAgICAgICAgICAgICAgICAgICAgICAgICAgICAgICAgICAgICAgICAgICAgICAgICAgICAgICAgICAgICAgICAgICAgICAgICAgICAgICAgICAgICAgICAgICAgICAgICAgICAgICAgICAgICAgICAgICAgICAgICAgICAgICAgICAgICAgICAgICAgICAgICAgICAgICAgICAgICAgICAgICAgICAgICAgICAgICAgICAgICAgICAgICAgICAgICAgICAgICAgICAgICAgICAgICAgICAgICAgICAgICAgICAgICAgICAgICAgICAgICAgICAgICAgICAgICAgICAgICAgICAgICAgICAgICAgICAgICAgICAgICAgICAgICAgICAgICAgICAgICAgICAgICAgICAgICAgICAgICAgICAgICAgICAgICAgICAgICAgICAgICAgICAgICAgICAgICAgICAgICAgICAgICAgICAgICAgICAgICAgICAgICAgICAgICAgICAgICAgICAgICAgICAgICAgICAgICAgICAgICAgICAgICAgICAgICAgICAgICAgICAgICAgICAgICAgICAgICAgICAgICAgICAgICAgICAgICAgICAgICAgICAgICAgICAgICAgICAgICAgICAgICAgICAgICAgICAgICAgICAgICAgICAgICAgICAgICAgICAgICAgICAgICAgICAgICAgICAgICAgICAgICAgICAgICAgICAgICAgICAgICAgICAgICAgICAgICAgICAgICAgICAgICAgICAgICAgICAgICAgICAgICAgICAgICAgICAgICAgICAgICAgICAgICAgICAgICAgICAgICAgICAgICAgICAgICAgICAgICAgICAgICAgICAgICAgICAgICAgICAgICAgICAgICAgICAgICAgICAgICAgICAgICAgICAgICAgICAgICAgICAgICAgICAgICAgICAgICAgICAgICAgICAgICAgICAgICAgICAgICAgICAgICAgICAgICAgICAgICAgICAgICAgICAgICAgICAgICAgICAgICAgICAgICAgICAgICAgICAgICAgICAgICAgICAgICAgICAgICAgICAgICAgICAgICAgICAgICAgICAgICAgICAgICAgICAgICAgICAgICAgICAgICAgICAgICAgICAgICAgICAgICAgICAgICAgICAgICAgICAgICAgICAgICAgICAgICAgICAgICAgICAgICAgICAgICAgICAgICAgICAgICAgICAgICAgICAgICAgICAgICAgICAgICAgICAgICAgICAgICAgICAgICAgICAgICAgICAgICAgICAgICAgICAgICAgICAgICAgICAgICAgICAgICAgICAgICAgICAgICAgICAgICAgICAgICAgICAgICAgICAgICAgICAgICAgICAgICAgICAgICAgICAgICAgICAgICAgICAgICAgICAgICAgICAgICAgICAgICAgICAgICAgICAgICAgICAgICAgICAgICAgICAgICAgICAgICAgICAgICAgICAgICAgICAgICAgICAgICAgICAgICAgICAgICAgICAgICAgICAgICAgICAgICAgICAgICAgICAgICAgICAgICAgICAgICAgICAgICAgICAgICAgICAgICAgICAgICAgICAgICAgICAgICAgICAgICAgICAgICAgICAgICAgICAgICAgICAgICAgICAgICAgICAgICAgICAgICAgICAgICAgICAgICAgICAgICAgICAgICAgICAgICAgICAgICAgICAgICAgICAgICAgICAgICAgICAgICAgICAgICAgICAgICAgICAgICAgICAgICAgICAgICAgICAgICAgICAgICAgICAgICAgICAgICAgICAgICAgICAgICAgICAgICAgICAgICAgICAgICAgICAgICAgICAgICAgICAgICAgICAgICAgICAgICAgICAgICAgICAgICAgICAgICAgICAgICAgICAgICAgICAgICAgICAgICAgICAgICAgICAgICAgICAgICAgICAgICAgICAgICAgICAgICAgICAgICAgICAgICAgICAgICAgICAgICAgICAgICAgICAgICAgICAgICAgICAgICAgICAgICAgICAgICAgICAgICAgICAgICAgICAgICAgICAgICAgICAgICAgICAgICAgICAgICAgICAgICAgICAgICAgICAgICAgICAgICAgICAgICAgICAgICAgICAgICAgICAgICAgICAgICAgICAgICAgICAgICAgICA8P3hwYWNrZXQgZW5kPSJ3Ij8+/+4ADkFkb2JlAGRAAAAAAf/bAIQAAQEBAQEBAQEBAQEBAQEBAQEBAQEBAQEBAQEBAQEBAQEBAQEBAQEBAQEBAQICAgICAgICAgICAwMDAwMDAwMDAwEBAQEBAQEBAQEBAgIBAgIDAwMDAwMDAwMDAwMDAwMDAwMDAwMDAwMDAwMDAwMDAwMDAwMDAwMDAwMDAwMDAwMD/8AAEQgAZABkAwERAAIRAQMRAf/dAAQADf/EAaIAAAAGAgMBAAAAAAAAAAAAAAcIBgUECQMKAgEACwEAAAYDAQEBAAAAAAAAAAAABgUEAwcCCAEJAAoLEAACAQMEAQMDAgMDAwIGCXUBAgMEEQUSBiEHEyIACDEUQTIjFQlRQhZhJDMXUnGBGGKRJUOhsfAmNHIKGcHRNSfhUzaC8ZKiRFRzRUY3R2MoVVZXGrLC0uLyZIN0k4Rlo7PD0+MpOGbzdSo5OkhJSlhZWmdoaWp2d3h5eoWGh4iJipSVlpeYmZqkpaanqKmqtLW2t7i5usTFxsfIycrU1dbX2Nna5OXm5+jp6vT19vf4+foRAAIBAwIEBAMFBAQEBgYFbQECAxEEIRIFMQYAIhNBUQcyYRRxCEKBI5EVUqFiFjMJsSTB0UNy8BfhgjQlklMYY0TxorImNRlUNkVkJwpzg5NGdMLS4vJVZXVWN4SFo7PD0+PzKRqUpLTE1OT0laW1xdXl9ShHV2Y4doaWprbG1ub2Z3eHl6e3x9fn90hYaHiImKi4yNjo+DlJWWl5iZmpucnZ6fkqOkpaanqKmqq6ytrq+v/aAAwDAQACEQMRAD8A3+Pfuvde9+691737r3Xvfuvde9+691737r3VCHSH8wz5H77/AOFBfzG/lzbgr9myfGjpf4mbH7b2LjKTasVNvKm3pmMb0BkMhW5Hdq1bVORo6mXs3JIad4hEkawaNLRu0vuvdX3+/de697917r3v3Xuve/de697917r3v3Xuv//Q3+Pfuvde9+691737r3Xvfuvde9+691737r3Wpd8X/wDuL4/mOf8AigHWn/vP/D737r3W2j7917r3v3Xuve/de697917r3v3Xuve/de6//9Hf49+691737r3Xvfuvde9+691737r3XvfuvdalnxdcN/wr5/mPW/s/ALrVD/rjb3w9J/3v37r3W2n7917r3v3Xuve/de697917r3v3Xuve/de6/9Lf49+691737r3Xvfuvde9+691737r3XvfuvdaV/wAQPkLsXNf8LE/n3hqOcmTd3xqqejsJP5omSr3x1JsX46ZjdlGiqLn7WLrnMIVvqVqRr8fT3Xut1D37r3Xvfuvde9+691737r3Xvfuvde9+691//9Pf49+691737r3Xvfuvde9+691737r3SO7D3ZRbD2Dvfe+RyOIxFBtDaW4tzVeV3BW0+NwWOp8FiKzJy1uZyFXUUlNRYumWm1zyySxokQJLKBcWRWkdI0Ul2IAA4kngPz6pI6RI8kjBY1BJJ4ADiT9nXx+f5fPfnykxn83/AKE/mDbgpcFj9zdk/MqDdPbu7MnV0FFsnGYb5Cb1rNs9yT1dPUbljqsPt7G7P7CybQNUVDR0EUcUkjusR1SAvtT7iPtE+/R8p3LbREpZpF0MFCirEqrFsDJ7egg/uHyTHucOzScx267nIQFjYspOo0FCVC5OBnr7GqsrqroyujAMrKQysrAFWVhcFWBuCPqPce9DLrl7917r3v3Xuve/de697917r3v3Xuv/1N/j37r3Xvfuvde9+691737r3QE/KTM5Xbnxn+Q24MFkazD5vB9H9rZfEZbHzvS1+MyeO2LnayhyFDUxkSU9ZR1UKyRyKQyOoI5HuyZZa8K9Vf4W+zrUc+LvY2+N5bWo4N0bqzufoM5j4o8vic3l8nncVkYa6lVK6nrqLO1eSjrqWtDN5op/JHJrYEaTb2f2ekVelHU1BHEHyoeOOie5742jb4GwfmPTq0rqTpvqWKWuz3+jHYM9XmqZ6bI0tVtDbtbhJFpsRVeCWm2/WY2fDY+pAhUPJTwxGS12uSST2Hdd1iUiLdblVNagSuAa4NQGANeimTa9slaN5dugZ14ExoSKGooSKihz9vU7tbd258JSLV4fP5jF1dFUUMlLUY+tno5aWammpzG8RgdNBjZLi3H+FvZTNHGEYaBSh8h0YGSTUjBiCD1f7ES0UbE3LRoSf6kqCT7C/R+OA6ye/db697917r3v3Xuve/de6//V3+Pfuvde9+691737r3XvfuvdFx+YraPiR8onP9j489zt/wAk9c7jP/Ee7J8a/b1Vvhb7OtP/AOHH/Hs7e/6gqEf7D7eP6f1HHs/tfgk+3onm8urzOpBrxcA/2twLH/jpj6yO/wCR/a9rk+HpP0D/AHUP9x1SAR/wKTn/AAFUg4/1x7an+Fv9KevDy+0dbD0X+ai/5Zp/0KPYV6EI4DrJ791vr3v3Xuve/de697917r//1t/j37r3Xvfuvde9+691737r3Ravma2n4gfKluPT8c+7Dz9OOttye7L8S/b1phUEdag3w4YnbW37/X7Oh/pzaBBf/bj2f2vwSfb0TTeX29Xo9PcYsN9NDRv/AIcROD/vDe1kfE9Jz0DPcvqxkvP6qiG9rf2qqME/j6X91m+Fv9Ketfw/6brYfiFoox9bRoL/ANfSPYU6EQ4DrJ791vr3v3Xuve/de697917r/9ff49+691737r3Xvfuvde9+690Wj5oKz/D35VqiszN8ce7QqqpdmJ623LYKqglifwB7snxr9vWiaAnrT0+Heaw0W28As2YxMTpR0YZJMnQxup8K3DI84ZSD9QfZ/bUCNU5PRRIhI/Pq8rqTcm3Y8HU33HgEcwelWzeKVj6CDZTVgk+1qCmTw6TMKGh6CLuLNYOTGsI81h3LVVKqBMrj3Zi1ZCqhVSoJZmPAAuST7buD+m9DjSf8HW0B1qFFWqOtjKP/ADcf/BF/6FHsK9CDrn7917r3v3Xuve/de697917r/9Df49+691737r3Xvfuvde9+690y7lihm25n4aiKOeCXC5WKeGaNZYpoZKGdJIpYnDJJHIhIZSCCDY+/de61aP5XnUPU+4t84/H7g6x2Fm6E1Xj+0yu08JXwaATYGOpopAQB9B+Pd/Ek/jPVdCHioPWyCfjR8dhCIB0Z1MsKA6Y16/2uii/JsExi/n3vxZSamRv29V8KKurwxXrXE+QGydm4b5m9OY3E7U2/i8ZF3x1qUx9Bi6Slok8O/sG0YFNBEkNkIBAsRf3rxZKU1mn29b8NKg6RXrar906v1737r3Xvfuvde9+691737r3X/9Hf49+691737r3Xvfuvde9+69025qCSqw+WpoQpmqMbXQRB2CKZJaWWNAzkEIpZhc/j37r3Wof8AflHsfpjeX8S3VhNy1RxeWrKKspcLHQVUq1OPrJ6SoSN6irpYZUEsDWa4BUA+1S2jtp0kZ4dMNcIpoQer7Md/Ms6Yy1J9zRbS7FY6WLRTY/BRMLXFg38edCSB/rD24NvnIrVQfnX/N1X6qP0P7OqfN81+Q7l+X3Sec2nh2p6Wv7u69qUizOSoqOeKCDeGNyE7SCH7pCyUtO5CqSWYBeL3FHs5Y42kY4HWhdIXVNJqetpn2k6Vde9+691737r3Xvfuvde9+691//S3+Pfuvde9+691737r3XvfuvdcJFLxugNi6MoJ+g1Ai5/w59+691qS9efyqvm1tzObgqM31phKakqt07iq6Koo+wdlZEVVBV52uqKGs8MWZSaBaikkSTxuBJGG0sNQIBvDd2wVAwowHGnSFoJCXxiuOjR9S/FvsPcmEqarHCIxrvXP9bl2jhUDeW2KnI0eZxeuXIw/t0tXi50FQAYH0AqxBBLq7lYlipmzWnA8f2dJ2tLsU7DQjjUcPXj0OvW3wV74253V1HvXI4jGjAbT7AwOfzlScrhlmp8bjahqiaWOkXMTT1D/tqulAzktext7auryB4mRGJNfQ9Witpw6NItKH1r1eL7KOjTr3v3Xuve/de697917r3v3Xuv/9Pf49+691737r3Xvfuvde9+691737r3XvfuvdAzsn/Qn99lf7if3b8n9+9wfxH+Deb+D/6Rrn+83g0/7hP70+byfd+D/KPP59f7nm90/T1eWrrZ1UFa06Gb3frXXvfuvde9+691737r3Xvfuvde9+691//Z;" parent="1" vertex="1">
          <mxGeometry x="30" y="160" width="100" height="100" as="geometry" />
        </mxCell>
        <mxCell id="aBZCno5w9hMfPToRCG13-58" value="" style="pointerEvents=1;shadow=0;dashed=0;html=1;strokeColor=none;fillColor=#434445;aspect=fixed;labelPosition=center;verticalLabelPosition=bottom;verticalAlign=top;align=center;outlineConnect=0;shape=mxgraph.vvd.wi_fi;" parent="1" vertex="1">
          <mxGeometry x="88" y="148" width="30" height="30" as="geometry" />
        </mxCell>
        <mxCell id="aBZCno5w9hMfPToRCG13-59" value="" style="endArrow=classic;html=1;entryX=0;entryY=0.614;entryDx=0;entryDy=0;entryPerimeter=0;strokeWidth=2;fillColor=#dae8fc;strokeColor=#6c8ebf;shadow=0;comic=1;startArrow=classic;startFill=1;" parent="1" source="aBZCno5w9hMfPToRCG13-58" edge="1">
          <mxGeometry width="50" height="50" relative="1" as="geometry">
            <mxPoint x="30" y="470" as="sourcePoint" />
            <mxPoint x="397.5" y="167.98000000000002" as="targetPoint" />
            <Array as="points">
              <mxPoint x="130" y="150" />
              <mxPoint x="360" y="150" />
            </Array>
          </mxGeometry>
        </mxCell>
        <mxCell id="aBZCno5w9hMfPToRCG13-60" value="" style="endArrow=classic;html=1;strokeWidth=2;fillColor=#a0522d;strokeColor=#6D1F00;shadow=0;comic=1;" parent="1" source="aBZCno5w9hMfPToRCG13-58" edge="1">
          <mxGeometry width="50" height="50" relative="1" as="geometry">
            <mxPoint x="110" y="210.9072727272727" as="sourcePoint" />
            <mxPoint x="190" y="210" as="targetPoint" />
          </mxGeometry>
        </mxCell>
        <mxCell id="aBZCno5w9hMfPToRCG13-61" value="" style="endArrow=classic;html=1;strokeWidth=2;fillColor=#a0522d;strokeColor=#6D1F00;shadow=0;comic=1;entryX=0.05;entryY=0.5;entryDx=0;entryDy=0;entryPerimeter=0;" parent="1" source="aBZCno5w9hMfPToRCG13-58" target="aBZCno5w9hMfPToRCG13-91" edge="1">
          <mxGeometry width="50" height="50" relative="1" as="geometry">
            <mxPoint x="115" y="220.17647058823525" as="sourcePoint" />
            <mxPoint x="185" y="249" as="targetPoint" />
          </mxGeometry>
        </mxCell>
        <mxCell id="aBZCno5w9hMfPToRCG13-62" value="" style="endArrow=classic;html=1;strokeWidth=2;fillColor=#dae8fc;strokeColor=#6c8ebf;shadow=0;comic=1;exitX=0.89;exitY=0.5;exitDx=0;exitDy=0;exitPerimeter=0;entryX=-0.008;entryY=0.714;entryDx=0;entryDy=0;entryPerimeter=0;" parent="1" source="aBZCno5w9hMfPToRCG13-91" edge="1">
          <mxGeometry width="50" height="50" relative="1" as="geometry">
            <mxPoint x="286.26595744680844" y="201" as="sourcePoint" />
            <mxPoint x="396.53999999999996" y="174.98000000000002" as="targetPoint" />
            <Array as="points">
              <mxPoint x="360" y="200" />
            </Array>
          </mxGeometry>
        </mxCell>
        <mxCell id="aBZCno5w9hMfPToRCG13-63" value="" style="endArrow=classic;html=1;strokeWidth=2;fillColor=#dae8fc;strokeColor=#6c8ebf;shadow=0;comic=1;entryX=-0.025;entryY=0.729;entryDx=0;entryDy=0;entryPerimeter=0;" parent="1" edge="1">
          <mxGeometry width="50" height="50" relative="1" as="geometry">
            <mxPoint x="240" y="200" as="sourcePoint" />
            <mxPoint x="394.5" y="176.02999999999997" as="targetPoint" />
            <Array as="points" />
          </mxGeometry>
        </mxCell>
        <mxCell id="aBZCno5w9hMfPToRCG13-64" value="" style="shape=image;verticalLabelPosition=bottom;labelBackgroundColor=#ffffff;verticalAlign=top;aspect=fixed;imageAspect=0;image=data:image/jpeg,/9j/4AAQSkZJRgABAgEASABIAAD/4Qi6RXhpZgAATU0AKgAAAAgABwESAAMAAAABAAEAAAEaAAUAAAABAAAAYgEbAAUAAAABAAAAagEoAAMAAAABAAIAAAExAAIAAAAcAAAAcgEyAAIAAAAUAAAAjodpAAQAAAABAAAApAAAANAACvyAAAAnEAAK/IAAACcQQWRvYmUgUGhvdG9zaG9wIENTNCBXaW5kb3dzADIwMTY6MDY6MjcgMTQ6MTI6NDMAAAAAA6ABAAMAAAAB//8AAKACAAQAAAABAAABOqADAAQAAAABAAABOgAAAAAAAAAGAQMAAwAAAAEABgAAARoABQAAAAEAAAEeARsABQAAAAEAAAEmASgAAwAAAAEAAgAAAgEABAAAAAEAAAEuAgIABAAAAAEAAAeEAAAAAAAAAEgAAAABAAAASAAAAAH/2P/gABBKRklGAAECAABIAEgAAP/tAAxBZG9iZV9DTQAC/+4ADkFkb2JlAGSAAAAAAf/bAIQADAgICAkIDAkJDBELCgsRFQ8MDA8VGBMTFRMTGBEMDAwMDAwRDAwMDAwMDAwMDAwMDAwMDAwMDAwMDAwMDAwMDAENCwsNDg0QDg4QFA4ODhQUDg4ODhQRDAwMDAwREQwMDAwMDBEMDAwMDAwMDAwMDAwMDAwMDAwMDAwMDAwMDAwM/8AAEQgAoACgAwEiAAIRAQMRAf/dAAQACv/EAT8AAAEFAQEBAQEBAAAAAAAAAAMAAQIEBQYHCAkKCwEAAQUBAQEBAQEAAAAAAAAAAQACAwQFBgcICQoLEAABBAEDAgQCBQcGCAUDDDMBAAIRAwQhEjEFQVFhEyJxgTIGFJGhsUIjJBVSwWIzNHKC0UMHJZJT8OHxY3M1FqKygyZEk1RkRcKjdDYX0lXiZfKzhMPTdePzRieUpIW0lcTU5PSltcXV5fVWZnaGlqa2xtbm9jdHV2d3h5ent8fX5/cRAAICAQIEBAMEBQYHBwYFNQEAAhEDITESBEFRYXEiEwUygZEUobFCI8FS0fAzJGLhcoKSQ1MVY3M08SUGFqKygwcmNcLSRJNUoxdkRVU2dGXi8rOEw9N14/NGlKSFtJXE1OT0pbXF1eX1VmZ2hpamtsbW5vYnN0dXZ3eHl6e3x//aAAwDAQACEQMRAD8A9VSSSSUpJJJJSkkkklKSSSSUpJJJJSkkkklKSSSSUpJJJJSkkkklKSSSSU//0PVUkkklKSSSSUpJJJJSkkkklKSSSSUpJJJJSkkkklKSSSSUpJJJJSkkkklP/9H1VJJJJSkkkklKSSSSUpJJJJTl5v1hwMLKdiXCw2NAJ2tke4TzKpu+vHQQ15a62z03em/YwmHTGzn6TVk/WWB1u6RyyvX5LFznl2OTukhzYJOuhUwxxIB8GIzNkPYW/XbpFOw2sva2zh2wGB4ua15f/wBFRP19+rg/wtpPh6T/APyK4jqNhLKCezO/xWTY/wB6EoAJjMl9m6fn4/UcOvNxiTTbOwuBafa41n2n+U1WVifUsz9WcI+Vn/n2xbaiZFJJJJKUkkkkpSSSSSn/0vVUkkklKSSSSUpJJJJSkkkklPE/WmB1i2RzXXB+TlhZQY6hx10jT4ELd+tpaOskEc01mfnYFgZAiuwciCPuVmPyjya8vmPm1+okfogO1fHzWTY73havUSCWePpj+Kxnn3ITXRfW/qT/AOJjC+Fn/n21biw/qT/4mML4Wf8An21bigO7MNlJJJIKUkkkkpSSSSSn/9P1VJJJJSkkkklKSSSSUpJJJJTxH1ykdZaBB3UM5/rWrDsYW0OB1DgYPyW79c9v7WZP+gZ8fpWrCtvaxkTI4AOsabVah8o8mvL5j5ufmmXtjT2N+6Flv+mr+VbuJP3fJUD9L4pskxfW/qT/AOJfB+Fn/n2xbiw/qSZ+q+CfKz/z5YtxQHcsw2CkkkkEqSSSSUpJJJJT/9T1VJJJJSkkkklKSSSSUpJJJJTz/wBZugW9SfVkY231mNLLA5xbLPpM2aOZva93565XJ+rXWq5BxLXebNr/APz29eju5CoXPeLC6Xe4ho4IbDn/AEAW/S2N9/uUsJyApinEXb5tb9X+sn/tFkfOsj8pVY/V3qTTNtZp5MvLR/0Wmx//AEV6Jl9R21zYwNLgCwbiQdwaa6/c1v6V0u9ixMp7rGvL2gOa5zdJgx+6530/63sUlWLLGJa6PX9HwqMDpeLh0T6dVbQCeST7nvd/Xe7eriHj/wAxX/Ub+REVY7tkKSSSSUpJJJJSkkkklP8A/9X1VJJJJSkkkklKSSSSUpJJJJTj9f6nkdNONbSGva8va+t3B0DhqPouWb/zuwi8WXYttbxPurLXjw/P9P8AN/OWl9Z+n3ZmEx2Ow2W0P3bRyWkFr9rfznfRXD312NJa5pa5v0muBBHxa5T44xMfFhmSJeDv5X106btO2nIJPb2D/v7lzfVPrRZc1/2egVHaYfYd54/dhjP/AD4qlwcZgJYPQ+o9XvFGJS9zXODbLiCK2A/Tc+0+z2t/M/nP+DROgQBq+t4ojFpEkwxok6k6DlFUWNDGhjeGgAfAKSrs6kkkklKSSSSUpJJJJT//1vVUkkklKSSSSUpJJJJSkkkklKXDfXOsO6vrIPoMgiR+dau5XI/XEA51M/6H/vxUmH5vosyfK8LlVET73fNx/vXpP1FaW/VXBkET6pE9wbrXNd/aauAymN3HRekfVQAfVzp8a/oWp2X9qMbrJJJKFkUkkkkpSSSSSlJJJJKf/9f1VJJJJSkkkklKSSSSUpJJJJSlz/1m6RnZttWRiMF2xpY+qQ13O5r2Gwtrd/n1roEkYyMTYRIAii+bO+rPX8mzbXhOZrBfa+tjR5mH2P2/8XXYu86Ngv6d0rFwbHix9FYY57RAJH0tv8lXUkZTMt0RiApJJJNXKSSSSUpJJJJSkkkklP8A/9D1VJJJJSkkkklKSSSSUpJJJJSkkkklKSSSSUpJJJJSkkkklKSSSSUpJJJJT//Z/+0NtFBob3Rvc2hvcCAzLjAAOEJJTQQEAAAAAAAHHAIAAALk9QA4QklNBCUAAAAAABCxsrGGmDZ1iZYcK6BWHNfJOEJJTQPtAAAAAAAQAEgAAAABAAIASAAAAAEAAjhCSU0EJgAAAAAADgAAAAAAAAAAAAA/gAAAOEJJTQQNAAAAAAAEAAAAeDhCSU0EGQAAAAAABAAAAB44QklNA/MAAAAAAAkAAAAAAAAAAAEAOEJJTScQAAAAAAAKAAEAAAAAAAAAAjhCSU0D9QAAAAAASAAvZmYAAQBsZmYABgAAAAAAAQAvZmYAAQChmZoABgAAAAAAAQAyAAAAAQBaAAAABgAAAAAAAQA1AAAAAQAtAAAABgAAAAAAAThCSU0D+AAAAAAAcAAA/////////////////////////////wPoAAAAAP////////////////////////////8D6AAAAAD/////////////////////////////A+gAAAAA/////////////////////////////wPoAAA4QklNBAAAAAAAAAIAAjhCSU0EAgAAAAAABgAAAAAAADhCSU0EMAAAAAAAAwEBAQA4QklNBC0AAAAAAAYAAQAAABM4QklNBAgAAAAAABAAAAABAAACQAAAAkAAAAAAOEJJTQQeAAAAAAAEAAAAADhCSU0EGgAAAAADTwAAAAYAAAAAAAAAAAAAAToAAAE6AAAADQBMAE4AVQAwADMAMAAwAC0AMAAtAEcAUwBNAAAAAQAAAAAAAAAAAAAAAAAAAAAAAAABAAAAAAAAAAAAAAE6AAABOgAAAAAAAAAAAAAAAAAAAAABAAAAAAAAAAAAAAAAAAAAAAAAABAAAAABAAAAAAAAbnVsbAAAAAIAAAAGYm91bmRzT2JqYwAAAAEAAAAAAABSY3QxAAAABAAAAABUb3AgbG9uZwAAAAAAAAAATGVmdGxvbmcAAAAAAAAAAEJ0b21sb25nAAABOgAAAABSZ2h0bG9uZwAAAToAAAAGc2xpY2VzVmxMcwAAAAFPYmpjAAAAAQAAAAAABXNsaWNlAAAAEgAAAAdzbGljZUlEbG9uZwAAAAAAAAAHZ3JvdXBJRGxvbmcAAAAAAAAABm9yaWdpbmVudW0AAAAMRVNsaWNlT3JpZ2luAAAADWF1dG9HZW5lcmF0ZWQAAAAAVHlwZWVudW0AAAAKRVNsaWNlVHlwZQAAAABJbWcgAAAABmJvdW5kc09iamMAAAABAAAAAAAAUmN0MQAAAAQAAAAAVG9wIGxvbmcAAAAAAAAAAExlZnRsb25nAAAAAAAAAABCdG9tbG9uZwAAAToAAAAAUmdodGxvbmcAAAE6AAAAA3VybFRFWFQAAAABAAAAAAAAbnVsbFRFWFQAAAABAAAAAAAATXNnZVRFWFQAAAABAAAAAAAGYWx0VGFnVEVYVAAAAAEAAAAAAA5jZWxsVGV4dElzSFRNTGJvb2wBAAAACGNlbGxUZXh0VEVYVAAAAAEAAAAAAAlob3J6QWxpZ25lbnVtAAAAD0VTbGljZUhvcnpBbGlnbgAAAAdkZWZhdWx0AAAACXZlcnRBbGlnbmVudW0AAAAPRVNsaWNlVmVydEFsaWduAAAAB2RlZmF1bHQAAAALYmdDb2xvclR5cGVlbnVtAAAAEUVTbGljZUJHQ29sb3JUeXBlAAAAAE5vbmUAAAAJdG9wT3V0c2V0bG9uZwAAAAAAAAAKbGVmdE91dHNldGxvbmcAAAAAAAAADGJvdHRvbU91dHNldGxvbmcAAAAAAAAAC3JpZ2h0T3V0c2V0bG9uZwAAAAAAOEJJTQQoAAAAAAAMAAAAAj/wAAAAAAAAOEJJTQQRAAAAAAABAQA4QklNBBQAAAAAAAQAAAAUOEJJTQQMAAAAAAegAAAAAQAAAKAAAACgAAAB4AABLAAAAAeEABgAAf/Y/+AAEEpGSUYAAQIAAEgASAAA/+0ADEFkb2JlX0NNAAL/7gAOQWRvYmUAZIAAAAAB/9sAhAAMCAgICQgMCQkMEQsKCxEVDwwMDxUYExMVExMYEQwMDAwMDBEMDAwMDAwMDAwMDAwMDAwMDAwMDAwMDAwMDAwMAQ0LCw0ODRAODhAUDg4OFBQODg4OFBEMDAwMDBERDAwMDAwMEQwMDAwMDAwMDAwMDAwMDAwMDAwMDAwMDAwMDAz/wAARCACgAKADASIAAhEBAxEB/90ABAAK/8QBPwAAAQUBAQEBAQEAAAAAAAAAAwABAgQFBgcICQoLAQABBQEBAQEBAQAAAAAAAAABAAIDBAUGBwgJCgsQAAEEAQMCBAIFBwYIBQMMMwEAAhEDBCESMQVBUWETInGBMgYUkaGxQiMkFVLBYjM0coLRQwclklPw4fFjczUWorKDJkSTVGRFwqN0NhfSVeJl8rOEw9N14/NGJ5SkhbSVxNTk9KW1xdXl9VZmdoaWprbG1ub2N0dXZ3eHl6e3x9fn9xEAAgIBAgQEAwQFBgcHBgU1AQACEQMhMRIEQVFhcSITBTKBkRShsUIjwVLR8DMkYuFygpJDUxVjczTxJQYWorKDByY1wtJEk1SjF2RFVTZ0ZeLys4TD03Xj80aUpIW0lcTU5PSltcXV5fVWZnaGlqa2xtbm9ic3R1dnd4eXp7fH/9oADAMBAAIRAxEAPwD1VJJJJSkkkklKSSSSUpJJJJSkkkklKSSSSUpJJJJSkkkklKSSSSUpJJJJT//Q9VSSSSUpJJJJSkkkklKSSSSUpJJJJSkkkklKSSSSUpJJJJSkkkklKSSSSU//0fVUkkklKSSSSUpJJJJSkkkklOXm/WHAwsp2JcLDY0Ana2R7hPMqm768dBDXlrrbPTd6b9jCYdMbOfpNWT9ZYHW7pHLK9fksXOeXY5O6SHNgk66FTDHEgHwYjM2Q9hb9dukU7Day9rbOHbAYHi5rXl//AEVE/X36uD/C2k+HpP8A/IriOo2EsoJ7M7/FZNj/AHoSgAmMyX2bp+fj9Rw683GJNNs7C4Fp9rjWfaf5TVZWJ9SzP1Zwj5Wf+fbFtqJkUkkkkpSSSSSlJJJJKf/S9VSSSSUpJJJJSkkkklKSSSSU8T9aYHWLZHNdcH5OWFlBjqHHXSNPgQt362lo6yQRzTWZ+dgWBkCK7ByII+5WY/KPJry+Y+bX6iR+iA7V8fNZNjveFq9RIJZ4+mP4rGefchNdF9b+pP8A4mML4Wf+fbVuLD+pP/iYwvhZ/wCfbVuKA7sw2UkkkgpSSSSSlJJJJKf/0/VUkkklKSSSSUpJJJJSkkkklPEfXKR1loEHdQzn+tasOxhbQ4HUOBg/Jbv1z2/tZk/6Bnx+lasK29rGRMjgA6xptVqHyjya8vmPm5+aZe2NPY37oWW/6av5Vu4k/d8lQP0vimyTF9b+pP8A4l8H4Wf+fbFuLD+pJn6r4J8rP/Pli3FAdyzDYKSSSQSpJJJJSkkkklP/1PVUkkklKSSSSUpJJJJSkkkklPP/AFm6Bb1J9WRjbfWY0ssDnFss+kzZo5m9r3fnrlcn6tdarkHEtd5s2v8A/Pb16O7kKhc94sLpd7iGjghsOf8AQBb9LY33+5SwnICmKcRdvm1v1f6yf+0WR86yPylVj9XepNM21mnky8tH/RabH/8ARXomX1HbXNjA0uALBuJB3Bprr9zW/pXS72LEynusa8vaA5rnN0mDH7rnfT/rexSVYssYlro9f0fCowOl4uHRPp1VtAJ5JPue939d7t6uIeP/ADFf9Rv5ERVju2QpJJJJSkkkklKSSSSU/wD/1fVUkkklKSSSSUpJJJJSkkkklOP1/qeR0041tIa9ry9r63cHQOGo+i5Zv/O7CLxZdi21vE+6stePD8/0/wA385aX1n6fdmYTHY7DZbQ/dtHJaQWv2t/Od9FcPfXY0lrmlrm/Sa4EEfFrlPjjEx8WGZIl4O/lfXTpu07acgk9vYP+/uXN9U+tFlzX/Z6BUdph9h3nj92GM/8APiqXBxmAlg9D6j1e8UYlL3Nc4NsuIIrYD9Nz7T7Pa38z+c/4NE6BAGr63iiMWkSTDGiTqToOUVRY0MaGN4aAB8ApKuzqSSSSUpJJJJSkkkklP//W9VSSSSUpJJJJSkkkklKSSSSUpcN9c6w7q+sg+gyCJH51q7lcj9cQDnUz/of+/FSYfm+izJ8rwuVURPvd83H+9ek/UVpb9VcGQRPqkT3Butc139pq4DKY3cdF6R9VAB9XOnxr+hanZf2oxuskkkoWRSSSSSlJJJJKUkkkkp//1/VUkkklKSSSSUpJJJJSkkkklKXP/WbpGdm21ZGIwXbGlj6pDXc7mvYbC2t3+fWugSRjIxNhEgCKL5s76s9fybNteE5msF9r62NHmYfY/b/xddi7zo2C/p3SsXBseLH0VhjntEAkfS2/yVdSRlMy3RGICkkkk1cpJJJJSkkkklKSSSSU/wD/0PVUkkklKSSSSUpJJJJSkkkklKSSSSUpJJJJSkkkklKSSSSUpJJJJSkkkklP/9k4QklNBCEAAAAAAFUAAAABAQAAAA8AQQBkAG8AYgBlACAAUABoAG8AdABvAHMAaABvAHAAAAATAEEAZABvAGIAZQAgAFAAaABvAHQAbwBzAGgAbwBwACAAQwBTADQAAAABADhCSU0EBgAAAAAABwAIAAAAAQEA/+EYCGh0dHA6Ly9ucy5hZG9iZS5jb20veGFwLzEuMC8APD94cGFja2V0IGJlZ2luPSLvu78iIGlkPSJXNU0wTXBDZWhpSHpyZVN6TlRjemtjOWQiPz4gPHg6eG1wbWV0YSB4bWxuczp4PSJhZG9iZTpuczptZXRhLyIgeDp4bXB0az0iQWRvYmUgWE1QIENvcmUgNC4yLjItYzA2MyA1My4zNTI2MjQsIDIwMDgvMDcvMzAtMTg6MTI6MTggICAgICAgICI+IDxyZGY6UkRGIHhtbG5zOnJkZj0iaHR0cDovL3d3dy53My5vcmcvMTk5OS8wMi8yMi1yZGYtc3ludGF4LW5zIyI+IDxyZGY6RGVzY3JpcHRpb24gcmRmOmFib3V0PSIiIHhtbG5zOnhtcD0iaHR0cDovL25zLmFkb2JlLmNvbS94YXAvMS4wLyIgeG1sbnM6cGhvdG9zaG9wPSJodHRwOi8vbnMuYWRvYmUuY29tL3Bob3Rvc2hvcC8xLjAvIiB4bWxuczpkYz0iaHR0cDovL3B1cmwub3JnL2RjL2VsZW1lbnRzLzEuMS8iIHhtbG5zOnhtcE1NPSJodHRwOi8vbnMuYWRvYmUuY29tL3hhcC8xLjAvbW0vIiB4bWxuczpzdEV2dD0iaHR0cDovL25zLmFkb2JlLmNvbS94YXAvMS4wL3NUeXBlL1Jlc291cmNlRXZlbnQjIiB4bWxuczpzdFJlZj0iaHR0cDovL25zLmFkb2JlLmNvbS94YXAvMS4wL3NUeXBlL1Jlc291cmNlUmVmIyIgeG1sbnM6dGlmZj0iaHR0cDovL25zLmFkb2JlLmNvbS90aWZmLzEuMC8iIHhtbG5zOmV4aWY9Imh0dHA6Ly9ucy5hZG9iZS5jb20vZXhpZi8xLjAvIiB4bXA6Q3JlYXRvclRvb2w9IkFkb2JlIFBob3Rvc2hvcCBDUzUgTWFjaW50b3NoIiB4bXA6Q3JlYXRlRGF0ZT0iMjAxMi0xMC0xNVQxNzo1ODo1NyswMjowMCIgeG1wOk1ldGFkYXRhRGF0ZT0iMjAxNi0wNi0yN1QxNDoxMjo0MyswMjowMCIgeG1wOk1vZGlmeURhdGU9IjIwMTYtMDYtMjdUMTQ6MTI6NDMrMDI6MDAiIHBob3Rvc2hvcDpDb2xvck1vZGU9IjMiIGRjOmZvcm1hdD0iaW1hZ2UvanBlZyIgeG1wTU06SW5zdGFuY2VJRD0ieG1wLmlpZDpGNkIzOUM3MzYwM0NFNjExQTBFNzg2RTA0N0VBN0QzNyIgeG1wTU06RG9jdW1lbnRJRD0ieG1wLmRpZDpFODcyQ0U5MDQ1MjA2ODExODA4M0MwODhCOUIwNjE2NyIgeG1wTU06T3JpZ2luYWxEb2N1bWVudElEPSJ4bXAuZGlkOkU4NzJDRTkwNDUyMDY4MTE4MDgzQzA4OEI5QjA2MTY3IiB0aWZmOk9yaWVudGF0aW9uPSIxIiB0aWZmOlhSZXNvbHV0aW9uPSI3MjAwMDAvMTAwMDAiIHRpZmY6WVJlc29sdXRpb249IjcyMDAwMC8xMDAwMCIgdGlmZjpSZXNvbHV0aW9uVW5pdD0iMiIgdGlmZjpOYXRpdmVEaWdlc3Q9IjI1NiwyNTcsMjU4LDI1OSwyNjIsMjc0LDI3NywyODQsNTMwLDUzMSwyODIsMjgzLDI5NiwzMDEsMzE4LDMxOSw1MjksNTMyLDMwNiwyNzAsMjcxLDI3MiwzMDUsMzE1LDMzNDMyOzA0QzE0MzRFNTYzRkNERkM5NzYwQkIwRTA3NjdDODI2IiBleGlmOkNvbG9yU3BhY2U9IjY1NTM1IiBleGlmOlBpeGVsWERpbWVuc2lvbj0iMzE0IiBleGlmOlBpeGVsWURpbWVuc2lvbj0iMzE0IiBleGlmOk5hdGl2ZURpZ2VzdD0iMzY4NjQsNDA5NjAsNDA5NjEsMzcxMjEsMzcxMjIsNDA5NjIsNDA5NjMsMzc1MTAsNDA5NjQsMzY4NjcsMzY4NjgsMzM0MzQsMzM0MzcsMzQ4NTAsMzQ4NTIsMzQ4NTUsMzQ4NTYsMzczNzcsMzczNzgsMzczNzksMzczODAsMzczODEsMzczODIsMzczODMsMzczODQsMzczODUsMzczODYsMzczOTYsNDE0ODMsNDE0ODQsNDE0ODYsNDE0ODcsNDE0ODgsNDE0OTIsNDE0OTMsNDE0OTUsNDE3MjgsNDE3MjksNDE3MzAsNDE5ODUsNDE5ODYsNDE5ODcsNDE5ODgsNDE5ODksNDE5OTAsNDE5OTEsNDE5OTIsNDE5OTMsNDE5OTQsNDE5OTUsNDE5OTYsNDIwMTYsMCwyLDQsNSw2LDcsOCw5LDEwLDExLDEyLDEzLDE0LDE1LDE2LDE3LDE4LDIwLDIyLDIzLDI0LDI1LDI2LDI3LDI4LDMwOzVDQ0RBNzQyODU1OUQ0NjdGNTQxRTgzQ0IyOTE5RUQxIj4gPHBob3Rvc2hvcDpUZXh0TGF5ZXJzPiA8cmRmOkJhZz4gPHJkZjpsaSBwaG90b3Nob3A6TGF5ZXJOYW1lPSJ3d3cuUGhvdG9DaW5lUmVudC5mciAiIHBob3Rvc2hvcDpMYXllclRleHQ9Ind3dy5QaG90b0NpbmVSZW50LmZyICIvPiA8L3JkZjpCYWc+IDwvcGhvdG9zaG9wOlRleHRMYXllcnM+IDxwaG90b3Nob3A6RG9jdW1lbnRBbmNlc3RvcnM+IDxyZGY6QmFnPiA8cmRmOmxpPnhtcC5kaWQ6Mzc0MjE4RUYzRjIwNjgxMThDMTRERTA1OUE0Nzc0NUU8L3JkZjpsaT4gPC9yZGY6QmFnPiA8L3Bob3Rvc2hvcDpEb2N1bWVudEFuY2VzdG9ycz4gPHhtcE1NOkhpc3Rvcnk+IDxyZGY6U2VxPiA8cmRmOmxpIHN0RXZ0OmFjdGlvbj0iY3JlYXRlZCIgc3RFdnQ6aW5zdGFuY2VJRD0ieG1wLmlpZDpFODcyQ0U5MDQ1MjA2ODExODA4M0MwODhCOUIwNjE2NyIgc3RFdnQ6d2hlbj0iMjAxMi0xMC0xNVQxNzo1ODo1NyswMjowMCIgc3RFdnQ6c29mdHdhcmVBZ2VudD0iQWRvYmUgUGhvdG9zaG9wIENTNSBNYWNpbnRvc2giLz4gPHJkZjpsaSBzdEV2dDphY3Rpb249InNhdmVkIiBzdEV2dDppbnN0YW5jZUlEPSJ4bXAuaWlkOkU5NzJDRTkwNDUyMDY4MTE4MDgzQzA4OEI5QjA2MTY3IiBzdEV2dDp3aGVuPSIyMDEyLTEwLTE1VDE3OjU5OjA5KzAyOjAwIiBzdEV2dDpzb2Z0d2FyZUFnZW50PSJBZG9iZSBQaG90b3Nob3AgQ1M1IE1hY2ludG9zaCIgc3RFdnQ6Y2hhbmdlZD0iLyIvPiA8cmRmOmxpIHN0RXZ0OmFjdGlvbj0iY29udmVydGVkIiBzdEV2dDpwYXJhbWV0ZXJzPSJmcm9tIGFwcGxpY2F0aW9uL3ZuZC5hZG9iZS5waG90b3Nob3AgdG8gaW1hZ2UvanBlZyIvPiA8cmRmOmxpIHN0RXZ0OmFjdGlvbj0iZGVyaXZlZCIgc3RFdnQ6cGFyYW1ldGVycz0iY29udmVydGVkIGZyb20gYXBwbGljYXRpb24vdm5kLmFkb2JlLnBob3Rvc2hvcCB0byBpbWFnZS9qcGVnIi8+IDxyZGY6bGkgc3RFdnQ6YWN0aW9uPSJzYXZlZCIgc3RFdnQ6aW5zdGFuY2VJRD0ieG1wLmlpZDpFQTcyQ0U5MDQ1MjA2ODExODA4M0MwODhCOUIwNjE2NyIgc3RFdnQ6d2hlbj0iMjAxMi0xMC0xNVQxNzo1OTowOSswMjowMCIgc3RFdnQ6c29mdHdhcmVBZ2VudD0iQWRvYmUgUGhvdG9zaG9wIENTNSBNYWNpbnRvc2giIHN0RXZ0OmNoYW5nZWQ9Ii8iLz4gPHJkZjpsaSBzdEV2dDphY3Rpb249InNhdmVkIiBzdEV2dDppbnN0YW5jZUlEPSJ4bXAuaWlkOjNCNEVCRkZBNkZBMkU1MTE5OEFCQzFENjg2QUQxNUQ2IiBzdEV2dDp3aGVuPSIyMDE1LTEyLTE0VDE3OjAxOjE2KzAxOjAwIiBzdEV2dDpzb2Z0d2FyZUFnZW50PSJBZG9iZSBQaG90b3Nob3AgQ1M0IFdpbmRvd3MiIHN0RXZ0OmNoYW5nZWQ9Ii8iLz4gPHJkZjpsaSBzdEV2dDphY3Rpb249InNhdmVkIiBzdEV2dDppbnN0YW5jZUlEPSJ4bXAuaWlkOjNDNEVCRkZBNkZBMkU1MTE5OEFCQzFENjg2QUQxNUQ2IiBzdEV2dDp3aGVuPSIyMDE1LTEyLTE0VDE3OjAxOjE2KzAxOjAwIiBzdEV2dDpzb2Z0d2FyZUFnZW50PSJBZG9iZSBQaG90b3Nob3AgQ1M0IFdpbmRvd3MiIHN0RXZ0OmNoYW5nZWQ9Ii8iLz4gPHJkZjpsaSBzdEV2dDphY3Rpb249InNhdmVkIiBzdEV2dDppbnN0YW5jZUlEPSJ4bXAuaWlkOkY1QjM5QzczNjAzQ0U2MTFBMEU3ODZFMDQ3RUE3RDM3IiBzdEV2dDp3aGVuPSIyMDE2LTA2LTI3VDE0OjEyOjQzKzAyOjAwIiBzdEV2dDpzb2Z0d2FyZUFnZW50PSJBZG9iZSBQaG90b3Nob3AgQ1M0IFdpbmRvd3MiIHN0RXZ0OmNoYW5nZWQ9Ii8iLz4gPHJkZjpsaSBzdEV2dDphY3Rpb249InNhdmVkIiBzdEV2dDppbnN0YW5jZUlEPSJ4bXAuaWlkOkY2QjM5QzczNjAzQ0U2MTFBMEU3ODZFMDQ3RUE3RDM3IiBzdEV2dDp3aGVuPSIyMDE2LTA2LTI3VDE0OjEyOjQzKzAyOjAwIiBzdEV2dDpzb2Z0d2FyZUFnZW50PSJBZG9iZSBQaG90b3Nob3AgQ1M0IFdpbmRvd3MiIHN0RXZ0OmNoYW5nZWQ9Ii8iLz4gPC9yZGY6U2VxPiA8L3htcE1NOkhpc3Rvcnk+IDx4bXBNTTpEZXJpdmVkRnJvbSBzdFJlZjppbnN0YW5jZUlEPSJ4bXAuaWlkOkU5NzJDRTkwNDUyMDY4MTE4MDgzQzA4OEI5QjA2MTY3IiBzdFJlZjpkb2N1bWVudElEPSJ4bXAuZGlkOkU4NzJDRTkwNDUyMDY4MTE4MDgzQzA4OEI5QjA2MTY3IiBzdFJlZjpvcmlnaW5hbERvY3VtZW50SUQ9InhtcC5kaWQ6RTg3MkNFOTA0NTIwNjgxMTgwODNDMDg4QjlCMDYxNjciLz4gPC9yZGY6RGVzY3JpcHRpb24+IDwvcmRmOlJERj4gPC94OnhtcG1ldGE+ICAgICAgICAgICAgICAgICAgICAgICAgICAgICAgICAgICAgICAgICAgICAgICAgICAgICAgICAgICAgICAgICAgICAgICAgICAgICAgICAgICAgICAgICAgICAgICAgICAgICAgICAgICAgICAgICAgICAgICAgICAgICAgICAgICAgICAgICAgICAgICAgICAgICAgICAgICAgICAgICAgICAgICAgICAgICAgICAgICAgICAgICAgICAgICAgICAgICAgICAgICAgICAgICAgICAgICAgICAgICAgICAgICAgICAgICAgICAgICAgICAgICAgICAgICAgICAgICAgICAgICAgICAgICAgICAgICAgICAgICAgICAgICAgICAgICAgICAgICAgICAgICAgICAgICAgICAgICAgICAgICAgICAgICAgICAgICAgICAgICAgICAgICAgICAgICAgICAgICAgICAgICAgICAgICAgICAgICAgICAgICAgICAgICAgICAgICAgICAgICAgICAgICAgICAgICAgICAgICAgICAgICAgICAgICAgICAgICAgICAgICAgICAgICAgICAgICAgICAgICAgICAgICAgICAgICAgICAgICAgICAgICAgICAgICAgICAgICAgICAgICAgICAgICAgICAgICAgICAgICAgICAgICAgICAgICAgICAgICAgICAgICAgICAgICAgICAgICAgICAgICAgICAgICAgICAgICAgICAgICAgICAgICAgICAgICAgICAgICAgICAgICAgICAgICAgICAgICAgICAgICAgICAgICAgICAgICAgICAgICAgICAgICAgICAgICAgICAgICAgICAgICAgICAgICAgICAgICAgICAgICAgICAgICAgICAgICAgICAgICAgICAgICAgICAgICAgICAgICAgICAgICAgICAgICAgICAgICAgICAgICAgICAgICAgICAgICAgICAgICAgICAgICAgICAgICAgICAgICAgICAgICAgICAgICAgICAgICAgICAgICAgICAgICAgICAgICAgICAgICAgICAgICAgICAgICAgICAgICAgICAgICAgICAgICAgICAgICAgICAgICAgICAgICAgICAgICAgICAgICAgICAgICAgICAgICAgICAgICAgICAgICAgICAgICAgICAgICAgICAgICAgICAgICAgICAgICAgICAgICAgICAgICAgICAgICAgICAgICAgICAgICAgICAgICAgICAgICAgICAgICAgICAgICAgICAgICAgICAgICAgICAgICAgICAgICAgICAgICAgICAgICAgICAgICAgICAgICAgICAgICAgICAgICAgICAgICAgICAgICAgICAgICAgICAgICAgICAgICAgICAgICAgICAgICAgICAgICAgICAgICAgICAgICAgICAgICAgICAgICAgICAgICAgICAgICAgICAgICAgICAgICAgICAgICAgICAgICAgICAgICAgICAgICAgICAgICAgICAgICAgICAgICAgICAgICAgICAgICAgICAgICAgICAgICAgICAgICAgICAgICAgICAgICAgICAgICAgICAgICAgICAgICAgICAgICAgICAgICAgICAgICAgICAgICAgICAgICAgICAgICAgICAgICAgICAgICAgICAgICAgICAgICAgICAgICAgICAgICAgICAgICAgICAgICAgICAgICAgICAgICAgICAgICAgICAgICAgICAgICAgICAgICAgICAgICAgICAgICAgICAgICAgICAgICAgICAgICAgICAgICAgICAgICAgICAgICAgICAgICAgICAgICAgICAgICAgICAgICAgICAgICAgICAgICAgICAgICAgICAgICAgICAgICAgICAgICAgICAgICAgICAgICAgICAgICAgICAgICAgICAgICAgICAgICAgICAgICAgICAgICAgICAgICAgICAgICAgICAgICAgICAgICAgICAgICAgICAgICAgICAgICAgICAgICAgICAgICAgICAgICAgICAgICAgICAgICAgICAgICAgICAgICAgICAgICAgICAgICAgICAgICAgICAgICAgICAgICAgICAgICAgICAgICAgICAgICAgICAgICAgICAgICAgICAgICAgICAgICAgICAgICAgICAgICAgICAgICAgICAgICAgICAgICAgICAgICAgICAgICAgICAgICAgICAgICAgICAgICAgICAgICAgICAgICAgICAgICAgICAgICAgICAgICAgICAgICAgICAgICAgICAgICAgICAgICAgICAgICAgICAgICAgICAgICAgICAgICAgICAgICAgICAgICAgICAgICAgICAgICAgICAgICAgICAgICAgICAgICAgICAgICAgICAgICAgICAgICAgICAgICAgICAgICAgICAgICAgICAgICAgICAgICAgICAgICAgICAgICAgICAgICAgICAgICAgICAgICAgICAgICAgICAgICAgICAgICAgICAgICAgICAgICAgICAgICAgICAgICAgICAgICAgICAgICAgICAgICAgICAgICAgICAgICAgICAgICAgICAgICAgICAgICAgICAgICAgICAgICAgICAgICAgICAgPD94cGFja2V0IGVuZD0idyI/Pv/uAA5BZG9iZQBkQAAAAAH/2wCEAAEBAQEBAQEBAQEBAQEBAQEBAQEBAQEBAQEBAQEBAQEBAQEBAQEBAQEBAQECAgICAgICAgICAgMDAwMDAwMDAwMBAQEBAQEBAQEBAQICAQICAwMDAwMDAwMDAwMDAwMDAwMDAwMDAwMDAwMDAwMDAwMDAwMDAwMDAwMDAwMDAwMDA//AABEIAToBOgMBEQACEQEDEQH/3QAEACj/xAGiAAAABgIDAQAAAAAAAAAAAAAHCAYFBAkDCgIBAAsBAAAGAwEBAQAAAAAAAAAAAAYFBAMHAggBCQAKCxAAAgEDBAEDAwIDAwMCBgl1AQIDBBEFEgYhBxMiAAgxFEEyIxUJUUIWYSQzF1JxgRhikSVDobHwJjRyChnB0TUn4VM2gvGSokRUc0VGN0djKFVWVxqywtLi8mSDdJOEZaOzw9PjKThm83UqOTpISUpYWVpnaGlqdnd4eXqFhoeIiYqUlZaXmJmapKWmp6ipqrS1tre4ubrExcbHyMnK1NXW19jZ2uTl5ufo6er09fb3+Pn6EQACAQMCBAQDBQQEBAYGBW0BAgMRBCESBTEGACITQVEHMmEUcQhCgSORFVKhYhYzCbEkwdFDcvAX4YI0JZJTGGNE8aKyJjUZVDZFZCcKc4OTRnTC0uLyVWV1VjeEhaOzw9Pj8ykalKS0xNTk9JWltcXV5fUoR1dmOHaGlqa2xtbm9md3h5ent8fX5/dIWGh4iJiouMjY6Pg5SVlpeYmZqbnJ2en5KjpKWmp6ipqqusra6vr/2gAMAwEAAhEDEQA/AN/j37r3Xvfuvde9+691737r3Xvfuvde9+691737r3Xvfuvde9+691737r3Xvfuvde9+691737r3Xvfuvde9+691737r3Xvfuvde9+691737r3Xvfuvde9+691737r3Xvfuvde9+691737r3Xvfuvde9+691737r3Xvfuvde9+691737r3Xvfuvde9+691737r3Xvfuvde9+691737r3Xvfuvde9+691737r3X//0N/j37r3Xvfuvde9+691737r3Xvfuvde9+691737r3Xvfuvde9+691737r3Xvfuvde9+691737r3Xvfuvde9+691737r3Xvfuvde9+691737r3Xvfuvde9+691737r3Xvfuvde9+691737r3Xvfuvde9+691737r3Xvfuvde9+691737r3Xvfuvde9+691737r3Xvfuvde9+691737r3Xvfuvde9+691737r3X//0d/j37r3Xvfuvde9+691737r3Xvfuvde9+691737r3Xvfuvde9+691737r3Xvfuvde9+691737r3Xvfuvde9+691737r3Xvfuvde9+691737r3Xvfuvde9+691737r3Xvfuvde9+691737r3Xvfuvde9+691737r3Xvfuvde9+691737r3Xvfuvde9+691737r3Xvfuvde9+691737r3Xvfuvde9+691737r3X//0t/j37r3Xvfuvde9+691737r3Xvfuvde9+691737r3Xvfuvde9+691737r3Xvfuvde9+691737r3Xvfuvde9+691737r3Xvfuvde9+691737r3Xvfuvde9+691737r3Xvfuvde9+691737r3Xvfuvde9+691737r3Xvfuvde9+691737r3Xvfuvde9+691737r3Xvfuvde9+691737r3Xvfuvde9+691737r3X//09/j37r3Xvfuvde9+691737r3Xvfuvde9+691737r3Xvfuvde9+691737r3Xvfuvde9+691737r3Xvfuvde9+691737r3Xvfuvde9+691737r3Xvfuvde9+691737r3Xvfuvde9+691737r3Xvfuvde9+691737r3Xvfuvde9+691737r3Xvfuvde9+691737r3Xvfuvde9+691737r3Xvfuvde9+691737r3X//1N/j37r3Xvfuvde9+691737r3Xvfuvde9+691737r3Xvfuvde9+691737r3Xvfuvde9+691737r3Xvfuvde9+691737r3Xvfuvde9+691737r3Xvfuvde9+691737r3Xvfuvde9+691737r3Xvfuvde9+691737r3Xvfuvde9+691737r3Xvfuvde9+691737r3Xvfuvde9+691737r3Xvfuvde9+691737r3X//1d/j37r3Xvfuvde9+691737r3Xvfuvde9+691737r3Xvfuvde9+691737r3Xvfuvde9+691737r3Xvfuvde9+691737r3Xvfuvde9+691737r3Xvfuvde9+691737r3Xvfuvde9+691737r3Xvfuvde9+691737r3Xvfuvde9+691737r3Xvfuvde9+691737r3Xvfuvde9+691737r3Xvfuvde9+691737r3X//1t/j37r3Xvfuvde9+691737r3Xvfuvde9+691737r3Xvfuvde9+691737r3Xvfuvde9+691737r3Xvfuvde9+691737r3Xvfuvde9+691737r3Xvfuvde9+691737r3Xvfuvde9+691737r3Xvfuvde9+691737r3Xvfuvde9+691737r3Xvfuvde9+691737r3Xvfuvde9+691737r3Xvfuvde9+691737r3X//19/j37r3Xvfuvde9+691737r3Xvfuvde9+691737r3Xvfuvde9+691737r3Xvfuvde9+691737r3Xvfuvde9+691737r3Xvfuvde9+691737r3Xvfuvde9+691737r3Xvfuvde9+691737r3Xvfuvde9+691737r3Xvfuvde9+691737r3Xvfuvde9+691737r3Xvfuvde9+691737r3Xvfuvde9+691737r3X//0N/j37r3Xvfuvde9+691737r3Xvfuvde9+691737r3Xvfuvde9+691737r3Xvfuvde9+691737r3Xvfuvde9+691737r3Wul8/8A5Hd69efKXfe0Nqdv7/2/t6kpdj1GK23tvP12FocbSVO08TVV2n+GzQeSTJZCqmmdpDrH0vYKBJnLW0bbdbVBPPaI8hLAkipwxHUecwbnf225TQwXTpGNNADQZUE/z6KZU/MD5SUeIyUmA7U7H3TnY8fWzYvB1vZ+4cJJlMhBE8lLQJk63MLTUT1ZsiSSkJr/AFWHs6l5e2lQSu2xlqYGRX5cfP16J4t73SqhtxcAnJOafOnQQ9ffOv8AmB7mkq67sKv3n1jQhpKel29X9m9gf3jKqGT7x637ioxJVZBdSl4345IN/aS22CxmVml2eOMDhUsW/wA38uldxvN5EyrHu0knqQAB/n6Dfrf5mfMjdeaqaTIfI3uyWmXJ1MDaeyN00ptHUOGWMQ5SNogENgFGlf6e1kW2bYMHbbcgesaH/JnpqS/vxn94TVP9Nv8AP0tu+/lF8ktn4XCNhPkJ8jMVlaqrk+5n/wBPXYtTFUUq0rN4o6ZMrSpFKZ5FIYMbKLH+vvV1tG2ADTt8AP8AzTX/ADdVg3Tci5BvpSP9O3+fov8Ahf5m/wA6NoY7+D4/v/fVdT00s7rV7pzWS3ZlX851uJ8rnqvIV7iJjZEMhWMfpFuPZDNs23ElvpFr8qj+QNOjiDc77Aa6en2/5T031383f5+/cCnXvjKxAlFDpR46MckrZrQ3Btyeb8fT+pVNt1lGTS3HRlFe3LnNw1Pt6ddo/wA1T5y5vJwjId/7vmpXqRHVQ0klPCDGJERvt2NOXhc3tqjCsDfkXPsue1gFQI1/Z0tS4mrmVv2nreX64yVfmevNh5jKztVZTLbM2vkslUusaNU19dg6Gqq6h1iSOJWmqJWYhVVRfgAew+wAZgOFej5SSqk8adLT3Xq3Xvfuvde9+691737r3Xvfuvde9+691737r3Xvfuvde9+691737r3Xvfuvde9+691737r3Xvfuvde9+691/9Hf49+691737r3Xvfuvde9+691737r3Xvfuvde9+691737r3Xvfuvde9+691737r3Xvfuvde9+691737r3Xvfuvde9+691q/fzLloF+Y/YDSG1Su3uvqgk/o8S7UxiSIbfQlFBB+tx7l3lEE7JBQfif/jx6i7mn/krzVP4V/wCOjolLwo6Wu5EJWRJFQITG8eqP9sEshiZgTfk+xVU46DnTLIKSmpKk1DTyTBzJTAS3L8sXDXYJCikBiQL8n6e22GDQ9bHEdE360yNVSb4raRWdY5NwVx0lWLLevkbSHA0l0VDxcE/7x7RovefSvS5q0B6Fj5L5D7mLbKKquytkGUqWXgLSAep2HqIl5tb6H3e5UgCvVbdu4mnn0RvM15dpVsI9QkDldHBVxr4F9RsLf0tb/G5LKAOjaDjQ8OgXzNaPu7RuOCS4RB676j5FYNyikAAfj2R3QJr0cQ0BFOHS361qFfNY+Ml7GsiswKtqtLc25BuCb8g3bj2Svlj0YDr6W3UzpJ1Z1pJGSY36/wBmuhb66G27jmW/+Ok+wxJ8b/aehNH/AGafYOhA906v1737r3Xvfuvde9+691737r3Xvfuvde9+691737r3Xvfuvde9+691737r3Xvfuvde9+691737r3Xvfuvdf//S3+Pfuvde9+691737r3Xvfuvde9+691737r3Xvfuvde9+691737r3Xvfuvde9+691737r3Xvfuvde9+691737r3XvfuvdawH8zanSP5f74nl1PHJt7YE5uygqsO2KCApGv6nBLA8HVf8AwHuX+S+7ZIx/wx/8I/z9RdzXjd5P9Iv+DqvyfISFS6MFlaVNIQEmWNUA5ZjYMLm4N/qPYs0AcT0Gq16bKnOokZiqkjeWGMmByoUhnca4/SrRsLCw/ANz7oR/vPVh5evRRcATJv7PMlQtI7bkqwg12Cg1SzHS8eqMuSbKbaT/ALH2XqpEv59GBYeGOhB+RNYC220lQMzUlXMlybSSWp1a9yS7Wufr+LH27d8B0zCTmnRH89O0bOdQf9soWUhVBB1hWLflCVsOeLf09ks4P5dG0Br+zoFc1OPuY2K+tJWDlbOlj9SmlQQo/I/oebW9kV18RHy6ObWh6X/WtSf4/jQ7lilRHoOpQ2oSLqLA82seLckeyeRcj7ejIdfTS6dt/oi6s0iy/wCjjY9h/Qf3Yxdh/X6ewpJ/aP8Aaf8AD0Jo/wCzT7B/g6Ef3Tq/Xvfuvde9+691737r3Xvfuvde9+691737r3Xvfuvde9+691737r3Xvfuvde9+691737r3Xvfuvde9+691/9Pf49+691737r3Xvfuvde9+691737r3Xvfuvde9+691737r3Xvfuvde9+691737r3Xvfuvde9+691737r3Xvfuvde9+691rM/zMoqWb5e7piqHVJBtLZcsAf9DtJgIY1BsdTNri4H5H0uePcvcmNTZo/TxH/wAPUW82f8laT/SL/g6rcYUQn8it9Y9Hgcs6iZ2aKQgAXRHcEADkfj6XAtcVAIHQaXj015PANUxNW0s1MsbreSBJ4zNFz49KQkK4AHJH5uOb+2ycUrjq5p5dF023jPt9+59TdG/jTsYJEW8i6EnWqQyXWMo/rFrFieLflOKeLjjXpU7fp9d/JB5Y8jt6EqWZcVMWZdKxr5Zo9SoH0g8R/QAN/vPtq64gHj1a2YCteiV5+pZC6CJWXRJru3qXQVJKMWuGsPwb/wCPsquBWp6NIj3Gnn0CGbqUacO5dAJAbkMLWVit1t9C4sebc2PshuviPRxBQEV4f7PS66tqf9z9CfJcmVHcMQ5L2Q67k3Ok8Dm/5+nHsnepf8+jBT19Ofpo36g6pP0/4xtsbgcgf79jF8X/AMPYUl/tZP8ATH/D0KY/7NPsH+DoSfbfV+ve/de697917r3v3Xuve/de697917r3v3Xuve/de697917r3v3Xuve/de697917r3v3Xuve/de697917r//1N/j37r3Xvfuvde9+691737r3Xvfuvde9+691737r3Xvfuvde9+691737r3Xvfuvde9+691737r3Xvfuvde9+691737r3Wsb/NRhSm+VueqJXliM+xdkVET/AKYiIqStgjuykPraWnYX+tgBfn3L3JQDbMo9JG6i3m4U3Zj5eGvVX9RWuiu8V/I7KdL6nPk0abpYsrRqr/0vxf8Aw9jGoAzw6C1GLD06jQ5RA0dMZmLxKJZNBszlFV2VUYlQ5C6fr/wb3Qiq0HDp0GhpXPQK0Mgn7NzZjjqZaiZ4amFUYkCWSCnWKZ2IcldJLACwJvwBY+0oBEtenzmPPTJ8kqiam3FikcSTsmFi1uwXSomllBV7GRLyAgg88fU+2LoevHq8HRKdyyJEIpI76g7esAmyuDqUELp0PcX1E8n/AGxPMct0bxGhrToEc9O5kUTaVJkLNcHWtjpUKRwEu5JHI1c/4eya5Xix49G0JqB0IfV8pfNQuoeUoLDSVuhksmpo1sBpIFiPZQ4o2OjGMgjHX0+emwy9Q9Vq1tS9b7GDWtbUNsYu9h+Bf2D5P7ST/TH/AA9CuP8As0+wf4OhI906v1737r3Xvfuvde9+691737r3Xvfuvde9+691737r3Xvfuvde9+691737r3Xvfuvde9+691737r3Xvfuvdf/V3+Pfuvde9+691737r3Xvfuvde9+691737r3Xvfuvde9+691737r3Xvfuvde9+691737r3Xvfuvde9+691737r3Xvfuvda1H82Y0FN8oqVZo2mmyHVG1H0X4XRlt0U6MACDr1Qryb/wC9Xl3kcf7p2Pn4rf4F6jDnGh3MD/hS/wCFuqua/HRVVMy0yCnYC+mMEklCigAqTpBIY/QXKm1/YyI8j0EUDCh8ug1nhFPMxmkeOTXI2ojTrRNWqTSbEK4NvqSTf8ge9MaAnpwUJp0iYJaaj7WqZII3aKakxbqFdlSR0iEUYIVwLRyxfpB0v9fyfaUE6vn0oNNHz6THf1Mp3I3mq9BjxdCjU8cQmlj1RPJrcSsCrAEluWFmHP09sXeDw6cg9eiQbuhiRf25Hjk1aNLIbKSLKbMwTUGOoWOkLf8APsmmpU9G0J4H5dAVlmjZyodlLsQDYuq2c2N2XUC9h+fp/h7Jbo/s6OLcqR+XQkdWW/vFSLYOJJYQVjOkkEoVIa3rcFvoeL/63srkWpr0tiNK9fUK6e46k6tF7/8AGOdkc/1/37OM5/2PsGSf2j/af8PQvj/s0+wf4OhG906v1737r3Xvfuvde9+691737r3Xvfuvde9+691737r3Xvfuvde9+691737r3Xvfuvde9+691737r3Xvfuvdf//W3+Pfuvde9+691737r3Xvfuvde9+691737r3Xvfuvde9+691737r3Xvfuvde9+691737r3Xvfuvde9+691737r3Xvfuvdayf84aF0+TuElRGBbqDatTrW4sRuPelOCWAPpDRL9Rb6+5d5Fzs8n/NZv8C9RdzmabomP9CX/C3VUtBuJ6GSY1C/sxwIWWdFtUyadTxo1tDF5CVBvZdXPsZnoJofLpvgknyeOqXnjgp9Na0qyveQs7XbwRkkuy2uBqB+h+vvZFevPRWBHHz6CiocU/ZeIlSytLj6UqgUv+5TTSR6250LpdeQ34B+ot7YCqJOn61XpD925p5t25KmI9P2tDrkBUVAeWiDF3Uhh43GkWN9Nvr9Paa6HnTp+3qceXRP95hTAWEkTlSG5dikcqjyvqDMQCIyCQeBa1+fZJPSpPRtDgLnHQAZcytMoLLpDRyerSFYqQqklrEgLYW+p5ufZLdca9G1vmnQr9SKDubF+lWWWqohd3W+ozIGtovZEjOpVuf6n6+ymStNPS5CQfz6+oR1AQeper9La1/0d7Js/HqH92sZZuOOfYMk/tH+0/4ehlH/AGafYP8AB0IvunV+ve/de697917r3v3Xuve/de697917r3v3Xuve/de697917r3v3Xuve/de697917r3v3Xuve/de697917r/9ff49+691737r3Xvfuvde9+691737r3Xvfuvde9+691737r3Xvfuvde9+691737r3Xvfuvde9+691737r3Xvfuvde9+691rNfzmqmbHfITb9ZE+gS9N7XjksAXkjj3hvh5EDXJRApBYW5v/AE9y7yIa7TKP+Ht/gXqLudB/uyQ/8JX/AI83VOssjZuOCOKnkhemjEumHVI0rx6QV8Y9EcX0sfpqv9fp7GzLToHDHDpRYoTwQXycU1IuozJC5EUD+UECRSraxdb2ufUf6X966ccKBXVVugzy80f+kXCVP+TQwPTFKQRw3hhjjqdQ9CAeVoSSbknUPz/WjKNQPV0Y6c9AF25J/v48zJF42klrpRDI+tHeJBH4pG1qoMj6SFU/T8fT2X3WT0sgoOJ6LJnYjNTToxaIzXaQurrGwvzJH6m1kD6gDknjjn2TzDA6NISCF6AzJLH90o1FmLSKyxt6CDq/Tck2Zhzc/Xj/AB9k90KA9GkVQV9KdCp1H5jujEgAEDJ0KTNddelqyJFAP0YN6R9P7Rv7LHA4evS/gR19QfpsAdQ9Vhfp/o32Pb6EW/uxi7WtYW9geX+1k/0x/wAPQ1j/ALNPsH+DoSfbfV+ve/de697917r3v3Xuve/de697917r3v3Xuve/de697917r3v3Xuve/de697917r3v3Xuve/de697917r/0N/j37r3Xvfuvde9+691737r3Xvfuvde9+691737r3Xvfuvde9+691737r3Xvfuvde9+691737r3Xvfuvde9+691737r3Ws//OrhkPd+zmhjZ5JupsPEAoLkgbs3cPSLhAxLj6/6549y7yEB+6Z/Xxz/AMdXqL+dSf3lEPLwV/483VRFHk7VEFS32+Mq3qo5ylLEkFHGn7ccypFYBKdVF1jHF2449jdq+fQN6FTPYygfE1R0yVKQ6XaSCemkd6ogEQU8Ss0nhFizg2Nvx7sEqAetHovWawoTce1a5fVQS+SZ5zqHihkeFwJKeVP2JlAsAxIJNgfbTDp+Oun7D0Wjsuepq81WzKLxrkapmWYXbxzySNCoKg+MhDe5AC/63svuRg+vS2EVPRc9zTp4ldAyxDysxUrIz6ApBZifItrH6WXkH2UTUAoRjoyhz2+nQF1axvKviay3bUWKSarNIAQf7AKDgAn2T3WQR0bxHhToWuoIXTdNJq/RHXUUrmzKylZ4ZAVUH1NwL/2SPzzf2WkcR0tqKA9fUG6ppZaLq3rainR4pqTYOzqWaKQBZI5INu46KSN1Fwrq6EEf19gOX+1l/wBMf8PQ1i/s4v8ASj/B0v8A23051737r3Xvfuvde9+691737r3Xvfuvde9+691737r3Xvfuvde9+691737r3Xvfuvde9+691737r3Xvfuvdf//R3+Pfuvde9+691737r3Xvfuvde9+691737r3Xvfuvde9+691737r3Xvfuvde9+691737r3Xvfuvde9+691737r3Xvfuvda4v842Z4+8tlGPh4+qsXpYXLDXubd4JU8aWIt7l7kD/klXGP9Hb/AI6nUXc7H/dnAPLwR/x5uqcaOgxktQtXOHWendammpYZVBmkRFKU0jkjQvlIYkf2eB7HZUniMdA7h06y1xpxV5FJoqaWZ5DMUkEaUrSI6eWIE6FNxovpIF7nj3cUQZPWl0tmuOgf3ru0zzU1VJUR1E1CS11AkhnjWCRVAYDSWR2DnVa7ge0rn06UoNKj7eil7py71DPaYI0zSSShSrCUhLGQga2Vgp4BuB+PZXOT59LIqU+fRcNxzhnmWHVDAAyqhYaWNyQ2nVq8ktvzz9bjj2UzE9GUNTSvr0GFRcSoIwBaxY25LDUG1KeWBsObeyybuB9D0aQjVQr0LvWNQafPU8sY0u0kXCqAB4pCVu30dz+Df9P+x9oEWrhadKDgH7OvqR7Nsdo7Vb+u28GfqTa+MpT/AL7+vuPZf7WX/TH/AA9D2P8As4/9KP8AB0pfbfV+ve/de697917r3v3Xuve/de697917r3v3Xuve/de697917r3v3Xuve/de697917r3v3Xuve/de697917r/9Lf49+691737r3Xvfuvde9+691737r3Xvfuvde9+691737r3Xvfuvde9+691737r3Xvfuvde9+691737r3Xvfuvde9+691rcfzoVnp+6Ng1RDrFN1XRIj86ZHp91bmMihhYAxiYE8c6h9OLy/7emu2XQHETn/jidRdzuKbjAf8AhA+34n6pKbKvEEdHChwVLq4azX1EK+myopI4/HsekkHoG/b0lM5uKephkgSoN2IZnDFAXYgaWC6SoYixNufdGNeIx1v7OgMzNbOROiyAn13Ie/o8pPBZgLgt/sB7SSEgY49KIx+EjoF8/NYHVIGLkjUQD9WFl8hFy7NYC4tzz9D7Qzio+fSuPy6CPNfuFi0mm6MWuLNpUqLDSDa5LD8m/splFa9GUOR869B3URmyaXYaZJB5AfQdBAa12J9Km5sPz7LJSAT6dGcfDoUesqeep3JhqWMSSyz1EUcCRgyNJI8wRFCKLyEluP8Ag30P5YT+0GM/6v8AB0oZqoan8+vqZ7XglpNtbdpZ1aKenweJgmjcWaOWGgpo5I2H4ZGUj/X9xnKQZJCOGo/4eh/H/ZpXjQf4On7231fr3v3Xuve/de697917r3v3Xuve/de697917r3v3Xuve/de697917r3v3Xuve/de697917r3v3Xuve/de6//9Pf49+691737r3Xvfuvde9+691737r3Xvfuvde9+691737r3Xvfuvde9+691737r3Xvfuvde9+691737r3Xvfuvde9+691Xr/MX+OEnfXSsuR2ztGDdPZGxZZsntvHpJDS5XN42WCT+LbcoqmV4UaeqeKKeGNnBM0GlDqksws5R3k7XfSJLLptJFzXgGHwk+nmD9ucDoK817ct5ZJMqVuI2xTiQeI+fqPsxk061Wd29P5bAXpdy7d3b17mljgkrNs7nxrpkMZNLCJPFUUc60uRVo1k0hmGkkXB+h9zJFcCdFmikDLTiCCPsr1FrxBWKEkMPIih/MHoEc7soRpMsWVx2nSpjSojrKPU3JvIpimFiR9VYED/G/vZkpxOerCIAV4/n/m6B3ObOyKoXjrsLKCFS0da8XBIBNpYkDeofW9yPx9PbDyjI6cVGOSegizOzsraSzY8Nr9ITIRMDwSLJpJuQbjkXvf2gmkGQD0sjiIofPoMMpsnLSWIqKGNiWU/vh9J4YkERkKBbi/NxyfZbK3kB0YRIeHE/LpIJ1/I8kUdXm6aG8qp4YA885bVZUjhUF5JZGNrKDe/09l7qSajpelRg9Xh/yavhPiOxvlhsPcvY+1ayr2dsvG5TsGmo9z0po6PcmWwEcC7cp6fDVMkVZWUVJmayCuZ5U+2lSk8bJIrnST7u8trYTTRrQntr6auP+x/h6MtrSK4voYmYEDup6063l7D+n5v/ALH/AHw9x90Oeu/fuvde9+691737r3Xvfuvde9+691737r3Xvfuvde9+691737r3Xvfuvde9+691737r3Xvfuvde9+691737r3X/1N/j37r3Xvfuvde9+691737r3Xvfuvde9+691737r3Xvfuvde9+691737r3Xvfuvde9+691737r3Xvfuvde9+691737r3TPmGEcELFSwaqjRrc2BSX1H8kC3+wHt+3FWbPBf8o6LtzNLZcY1j/L0jtwbU2vuyiag3TtzA7moHADUe4MPjsxSsA4cXp8jTVEXpdQR6eCL+1sFxcW7aoJ3RvVWK/4COiGaGKVaSxKw+YB/ZXh0TzfHxD+GGWyVRT5rpraX8XnRJajH7Vpdy0lbDBOrLDPNitk1UX8PhnWI6JGijRyGIub+z+23rmAxgreuY/IvpoT6Avxp6Ak9B+7tNriYjwgr4wpcnPDArT7SM+XQDZv+WT8IdwtLPT9b5rHs4LGmpd5b2xsiD0oL0WVrmqYwNIsSOP8AbEGkXMO7jErRt/tQf5qadFEltDnw5HX5Y/5+WvQO5v8AlWfC6mu6bA3LP4yXKVG/90hHIJa0vhrYXcevjm4t7O7XcppyPFijp8g3/QXRZKJoyfDuX/4x/wBAdAtub4A/Efbr+Wi6YxVRJEweN8rnN15ZdSi4DR5DOzUrK4HIZSLcH2fQRwuuowr/AIf8PSJr29ViDctT8v8AIOgE3T1V1pslZF2dsHaG2FijZI3wu38ZSVUcYF1C1kdP95cmP6+Qkn25LHGoxGoNPIAf4OllvNLJlpWI+ZJ/w9G+/ltU6/7MjSTDkLsLcq3GsC7PAQfUQLnTfgcewPzR/wAkqUf01/w9DPloD95Qkfwt/wAd62DfcZ9SP1737r3Xvfuvde9+691737r3Xvfuvde9+691737r3Xvfuvde9+691737r3Xvfuvde9+691737r3Xvfuvde9+691//9Xf49+691737r3Xvfuvde9+691737r3Xvfuvde9+691737r3Xvfuvde9+691737r3Xvfuvde9+691737r3Xvfuvde9+690z5lA9PACWH+VREMraSCqSEf7A2/1vb9v8Tf6X/KOi3dP9xh/px/l6TWXr/wCGYrJ5HxmT+H4+trRGPrJ9pSS1ARbfUuY7D/X9q4k1yxpXDMB+006IZZSkUj04KT+wE9FQzWOxOyK/E76qajeE25cV0j2huvMT4rdtfjsLuSrM+y8nnKrM7XZZMFldxionjTF19RGz4qlVoIh4mCqK0ubm92y+2OIQJaz30Cq/hIZoiFmVfCmYF0ShJkjB0yNpZgSo6BV3ZRQ3ltuRmmF0trITpcqj6ipJZKUZxWiNjSKYNFo0bh7Em2bmOzctF/fXfFU+7up9s4raFVkdt0eKxuT3th8LRUUe06mpp6E46grajKLPkDWTy3qA7RaEOn36x23xTBWdUV45GJINAIiQa0FSTSop0s3He0lsbGyTa4Vktu0yJqEk5lbWDKWYqSgOhNKqAoFanPQdbi7vgp6POx53Z2d29uHbu9evtmZnbtTXYStkhfs3J4nHbdzlJlcZV1OOr8YUypllUMk6mCRCgIVmE9jt5rD4dwrxujMGAI+D4hQ5Brj+fQXuLkNrVoysisARjGoVBqMEU9DXon3fXcuQ28vaNNiNtCtquvs3sHCVVfUvla3GQUu+MfTZGr3LmKLA4yvzUWG2tTzl6laeKaVwAwMa3ZRPbW36MD1y4JpT0NKCvEny6LyQ0zLXtBz88E/zIp0VWu3A+7Nr0uafMbRz71cFVrymyKqsrtt1TRVMiBaKasIrVlRV0zRzHXHLqS/HulwB5Gg/n0a240MFK0FPt9P9WOjdfy4Fv8h4OD6Nj7hIBXSVZjCt+SQ3F/pb2BOaR/uqkP8ATX/D0NOWDXcYf9K3+Dq/n3GXUkde9+691737r3Xvfuvde9+691737r3Xvfuvde9+691737r3Xvfuvde9+691737r3Xvfuvde9+691737r3Xvfuvdf//W3+Pfuvde9+691737r3Xvfuvde9+691737r3Xvfuvde9+691737r3Xvfuvde9+691737r3Xvfuvde9+691737r3XvfuvdMObqYYIqJJpo4mqq5YadJHRWqJxS1dQIYASDJKYoHawBOlCfwfb9uDqf5L/lHRbupAtlr/GPz49M1Ssc0LQyrrjlR45EI9MkbqUdGBBJVlYg+1SmhDDiOg/JRloRg9FR7FpZU2bnsFVUudym+sf1zvXrbbuJw2ObIz7kx+7YMdSYfciJDGGho1lw1KlbKzrBQTvL5iEMcjCXbpB9VFIGRbRp45WZjQIUrqWpwT3NpHFgBTNR0FL/ABC0LajdLEyKAKlgfhYU8sCp8jWvl11uTqefJT5SufOClmy27eo93SwfY+QUs/WDYiSoxyzrVI04zLYvSJSAINV9Lj2qs9wVPCUREqscyVrx8Ukg08qfz6L5rR2LOZKFmjJqOGgZFfOv8ugU7T6bqdzz9j5Cj3X/AAPI7uyfVuewlUMOmTi27neq62PJ4iorqKatgTN0GQyNOn3EAemcwhlWQMQ4E21XoiFkhjqIxIDmlRJ5fIj8+iu5gYyXUgf+00+RxpFPXNa/l0VXOdS7vpIuxcluHtSvO79+5nb2SqNy7G21i9ppiKfbGLixNBi8djM3PvWllgqaZCKo1BlMlyAF+vsTxzxOsUccREaA4Y1OT6gDhTpEFIcuQpJ9Rj9n5/y6Kvl9nY/ZWLrcTQVWSr3q63J5avymWqYqnK5LMZecVeTymQlSCkgFTWTMTphiihjRVVEVQAKXBqCadGVsatU9Gp/l4ZDG475F4ekq6mGmqszs/clDiUd7SV9bDDLkZqanjuyyNFjqKWVjb0qnPJ5AnNKltrn08FdT+Vaf4SOhpy2yjcrfyqrD89Nf8h/Z1f17jDqSOve/de697917r3v3Xuve/de697917r3v3Xuve/de697917r3v3Xuve/de697917r3v3Xuve/de697917r3v3Xuv/19/j37r3Xvfuvde9+691737r3Xvfuvde9+691737r3Xvfuvde9+691737r3Xvfuvde9+691737r3Xvfuvde9+691737r3RQPnXV1uI+M2+dw4uoqaLMbayGzs7iMnQzzU1bi8hSbywaR5CkqYJYZaeeCCdwHDfRiOb+xDysEferaKVQ0ThlIPAgqcfy6IuYwf3RcMpoylSD6HUP8/VVHX380zsXa0CY/srauH7BpKeMxrmaapbam4JZPJqD1s1JQ5DB1BSG6hfsqN30gsSblpAu+SLKer2dw0Lfwkal/KpDfzPUdw79cKSk6LIPXgf5VH8ujHU/80L4vbooqRN1bf31i518c2iXA4fcNNRVLIY5JaHIYXOzV0ZS7KJVhhkI/A5AJv6obxasTDPER/pip/MFaft6dn3K0uEpJC38j+w1FPy6UbfP34Z0ULNB2nNSkBQRkNpdkT1C6j/mxNWYCrkOm/wBFew5/p7smx7wD+pbj8mT/ACUHSIyQAfpk/wAz/hr0F25/5iXw/jjmJ7aE31BWn2Tv921FjoI/364BIte9/Z1aWF1CAZI6U+Y/ydI5FMlQorX/AFefRKu0P5mXxugetixFP2PuhkJWObF7Rix1JUXB0eOXcWVxFWqg3F2hBsPoRa5wkyQ0DEn7P9mnTK7XcNVyUH5/5uqv+3/5jWRzX3cW0dh4bbIc2XI7s3Aucqo7FgDFjMVBjYBINQN3mkTgggnn2mudxOmiKPzz/IUPRzabUAavIT/q+dejdfyOOwNxdsfOnLZ/eGYrtw12D6U3r/Cp6wLS0WNaqzG1IJhiMREiU+MR6epdCyohlVmNyL6gHzBcSSWsgLGhK/4ehpslvFFcppUCgP8Ag/2etxH2COhd1737r3Xvfuvde9+691737r3Xvfuvde9+691737r3Xvfuvde9+691737r3Xvfuvde9+691737r3Xvfuvde9+691//0N/j37r3Xvfuvde9+691737r3Xvfuvde9+691737r3Xvfuvde9+691737r3Xvfuvde9+691737r3Xvfuvde9+691737r3RO/nupf4k9xAKX04zbr6VBJVF3jtws40K5GkC97EAez7lj/AJL23U/jP/HW6JeYf+SPff6Uf8eHWqFlpSwEbyR8r/bZCLWN1Am0r/QHRKpN7aR9Pc+p2oWI6hk5Y19eg4zMSSQSCanci7aW8Nbx6hdkkho8qi6gR9COfrb2yRWp6dQmuTjoJsy6QxyNFWTRBWcENlaeKIEuuoBKmjpZNaDnSBcng/09tvShH+r/AAdPISDX/V/h6B3N1XnLqmZrbam/zWZxxkP5ZkVKWpcWH4A+n49oZAACTw/1fLpVGdRAFP8AV9pHQTZaml0SOzVtTcEiSWTOVNueCCMdio1uDyTMFuTe3srmUZ8j+fRimABqB/1fn0GFfHACzQIqPEzC9OtOJE1MP84KCXKV0RH1u9VT8fU+yuWlGHRlERQCtOr4P+E8qyN8x92MoDRJ0pvST0lHQhtybJVXV0d1vqezEPKtzzI7fpCu+H/E2H9ID+fR/tJP1YFPwnrdL9g7oU9e9+691737r3Xvfuvde9+691737r3Xvfuvde9+691737r3Xvfuvde9+691737r3Xvfuvde9+691737r3Xvfuvdf//R3+Pfuvde9+691737r3Xvfuvde9+691737r3Xvfuvde9+691737r3Xvfuvde9+691737r3Xvfuvde9+691737r3XvfuvdILtLbLbz613/ALSjpaWtm3Ns3cuDpqWtRHpZqrKYaso6WOcSBkMZqZUuSOPr+Pazb5xbX9ncMSESVSfsDCv8ukt9C09ndQqtXaNgB86Gn8+tODfu0c1tTN5TFZrG12Ly2LrKqgytFPDUQVuPqqZmhekrIiEqop4WU2V1kH0sSCD7yNt5op4EkicMjCuM4+XkeoNlRo5HjkUq6mhB9fn59AfnITp0vErN4lks/wBkswB1BdTSriZmbgjlzb+th71UqTTqqllNAOgtzjTIulHqA5JX9h8npIZALWo9ySIGGoci/HP5t7Zeh/1DpStDT1/1fLoJcuKi0qyPW6ito3MubP0sx/zu5KVb2B5Jtfj6e0E5rXH8/wDZ6XRBQKjj+f8A0D0DeSEDMzv9vqQW8kn8NmcSBb6SZqvPVBDDi+j6n6eyuUE1z/q/KvSuPNST0jpcPX5J1tHN4riwqhLHTDgqJIf4ikcCadJsYqAkX4P09lso8h59GUNCKkjSP9XHra0/4T3fGfcWy8B258hN07XlpKXe1Dt/ZfXO58lTVVNPlsPR5DJZLek2BWttU1WCqq+lxUb1rakqaijaOMgQMvsFcwyoBDbI4L6izAeXpX9px/sdCrZInrNOV7DhSfPjWn8s/s8+tln2F+hB1737r3Xvfuvde9+691737r3Xvfuvde9+691737r3Xvfuvde9+691737r3Xvfuvde9+691737r3Xvfuvde9+691//0t/j37r3Xvfuvde9+691737r3Xvfuvde9+691737r3Xvfuvde9+691737r3Xvfuvde9+691737r3Xvfuvde9+691737r3XVgRb8c/k/m9/8Ae/fuvdFw7t+KPSHyAVqnsDaKHcK0y0tPvDA1EmF3RBEgPhjkr6X9rJw0xN44q6KqhjudKC/s62zmDdNpGi1uD4FfgbK540HEfkR8+im/2Xb9yOu4h/WpTUuG/M+f5g9auvzt6iw/xh7tzHWu36nPbowUGBwGfpMlkWoIMoDmoZXFHUinjoMfUyUzQNZ1EIdCONQI9y9sO7y7vtyXcsIVyWFBkYJGPt6jPd9tj229kt0lLIADU4OQD1W1uvfuCYk19JmomaMoGk27TVCghmU6Wip6hXCni4Y6ufp7MpLhFqWB6QpDWmlhToBs32ds6CeRI6bLSel7eLaCJrBVTp1NQQqg4te49R9lk16gBwa/Z0YQ2rHz6Diq7axFQ8UVLi88VZhEn3MlDSL5CSQzx0lTULHHybiRYz/QMfZXNdLSoFR0uitiSFJp1uXfBT+UT8P8T1f093dvnbmb7f3hvnrvYe/5cX2Bkqeq2Ng8puPblBnqqkodoYikx2NzWPp6iv0KuZOTVggawYn2Adz3+9aae3ipHGGK1HE0J8zw/KnQz2/Z7VYoppCXYqDQ4AqPQcfz6vIpKKjx9LTUNBS09FRUcENLR0dJDHT0tLS0yLHT01NTwqkUEEEahURQFVQABb2GyxYlmJLHzPHo+AAAAFAOpPvXW+ve/de697917r3v3Xuve/de697917r3v3Xuve/de697917r3v3Xuve/de697917r3v3Xuve/de697917r3v3Xuv/9Pf49+691737r3Xvfuvde9+691737r3Xvfuvde9+691737r3Xvfuvde9+691737r3Xvfuvde9+691737r3Xvfuvde9+691737r3XVh/r8355/3v6e/de61eP5ssSS/LDLo/9vYGylGkhWYGnrLgXMVwLc2Yk/6k/wBmauRVB2ND/Tb/AAnqKeb2pu0g/oL/AIB1TLvXb1DUCRjT2kVVYB4ZojobjU1sSdStyT6ibG/PsUywihqMdBuOTIB49Fb3btyEPIpplayyaFjp55VLpGhZGkTBzMWOoW9XP0/r7Jbm3RakL/q/Z0cQScM/6v29AHkaBYa9GVtTw1EN4mJZ4w2kXMfmmkhALC5KUtzwX4sSC5WlRTo6t+7urnr6XPxHjSP4qfGqNTcL0F1CAfSocf3A2+L2V3W/0vYkc/X3F99X627BGfEb/Ceh/Z/7i2/+kH+DoxPtL0p697917r3v3Xuve/de697917r3v3Xuve/de697917r3v3Xuve/de697917r3v3Xuve/de697917r3v3Xuve/de697917r/1N/j37r3Xvfuvde9+691737r3Xvfuvde9+691737r3Xvfuvde9+691737r3Xvfuvde9+691737r3Xvfuvde9+691737r3Xvfuvde9+691ry/zfuuMZS9q7B35jpJFzG69n1OPzkFS7tTSrtquSDGVFKVUyUsrwZFopVIeJxGh0q2tml728mklsbmBiNEcmPXuFc/Yeoy52jjjvYJqd7x59MGn8x1RVurFVMNLOxoyrqHUeNqUoTrca7rUY5ivN7lT9Pp7H8woOgfCFPd0VfddDNOCJaaI3QpeQ0AdDcMGd3rMkxHpFrRH8eya5oAadGkJqR6f6vn0Ge29jxZ7e+16LMT/wC4us3Fhqapoqd3EslNPk6anmVZzFQw0LPHIwMsNOJfUSHHsP3I1aj8j0bQsQQAcdfTM2/hMRtrBYXbuAx1LiMFgcTjsNhcVQxLBRYzFYykhosfj6SFLLDS0dJAkaKOFVQPcOuxd3ZjViST9p6lFFCIqqKKAAOnf3Xq3Xvfuvde9+691737r3Xvfuvde9+691737r3Xvfuvde9+691737r3Xvfuvde9+691737r3Xvfuvde9+691737r3Xvfuvdf//V3+Pfuvde9+691737r3Xvfuvde9+691737r3Xvfuvde9+691737r3Xvfuvde9+691737r3Xvfuvde9+691737r3Xvfuvde9+691737r3VGn83oatx9PLqVQdubqFyW9P+5PFcgAfm1r+5a9uP9xtwPn4g/wCO9Rtz0AbmyB4eG3+HqiDc8VopgqjgspurE2GhuVuAzKAeBY+r3JEgBU16A8QowAPRU93QjyS60CamYg3uVeRmUN9S3rDfngH/AGHskuh28M9GcWsGhJp0kus6eCbtPYFPMiTU8u+trRyQykeORZc9QiWNr2cKyAKDewvbj2HL4lYZWHkp6PLEapYww8x/hHX0ggAAAOAAAB/gPp7hvqUuu/fuvde9+691737r3Xvfuvde9+691737r3Xvfuvde9+691737r3Xvfuvde9+691737r3Xvfuvde9+691737r3Xvfuvde9+691//W3+Pfuvde9+691737r3Xvfuvde9+691737r3Xvfuvde9+691737r3Xvfuvde9+691737r3Xvfuvde9+691737r3Xvfuvde9+691737r3VG/8AN2udy9QLYEf3a3UbWJ+mTxZ/pYWHP15t7lr24/3F3A/8MH/Heo155r9XY+nhn/j3VE25kaWlncOUAJZTbULSWs2nkEAfU2/3n6SVJQg9AeOpYEGnRWN3jTKxB+oa5DW0qkmnW9rixX6AEk+ye4XtY+nRnAeHSE2KTB2NsuZahKNV3ptp/vHSJ1owc1RN906vqVxT38mhjyBb2Gr/ADBPio0n/B0eWr1liIOdQ/wjr6QQ+g5vwOfpfj6/7H3DHUp9d+/de697917r3v3Xuve/de697917r3v3Xuve/de697917r3v3Xuve/de697917r3v3Xuve/de697917r3v3Xuve/de697917r//X3+Pfuvde9+691737r3Xvfuvde9+691737r3Xvfuvde9+691737r3Xvfuvde9+691737r3Xvfuvde9+691737r3Xvfuvde9+691737r3VdP8AMA+JO8Pkhtrbe5Os8nj13/sOLKQ0+1s7WHGYXeWEyr0k9VjosyIKgYLclHPRCSgnlRqOXW8NToV0qacX8qcyrsUs0VxHqtJSCSOKkYr8wfP7MdBnmLYTu8cUkMmm4QECvAg/4CPL+fWt32v1F3R1sKyn7H6Q7j2Y9HGTV1lb15uLP7biWP1M8O89lUu5tmVqKVJ1w17ixube5dt9/wBovFrb30bfKor+zj/IdRtJs25WjhZrVx86Y/bw/wAPRQv7ib37CqpKbYPWnau/ZDKIfBszqvsPcswnGnSkkeH2zVJCQGBOoqqjk/k+0l3uNkqsz3CBfmaf4adKrfb7qRtPgtT5Z/wV6sS+F38nf5G9o7/2dv3vva9R0f1BhsxitzZDFbkqqRuzd602NrqXIU+36LaWOq6qp2ZTZXxtHWVWWlpq+ljYiOjeQh0Ae88xWSRyw2riSUimDUCvEk8D9g/l0LNq2O51xyzroiBrniflTiK+pp+fW4KOOB9B7jroc9e9+691737r3Xvfuvde9+691737r3Xvfuvde9+691737r3Xvfuvde9+691737r3Xvfuvde9+691737r3Xvfuvde9+691737r3X/0N/j37r3Xvfuvde9+691737r3Xvfuvde9+691737r3Xvfuvde9+691737r3Xvfuvde9+691737r3Xvfuvde9+691737r3Xvfuvde9+6911Yf77/ffn/effuvdesP6X/1+R/tvfuvdd2Hv3XuurD/AH3+vf8A3v37r3Xfv3Xuve/de697917r3v3Xuve/de697917r3v3Xuve/de697917r3v3Xuve/de697917r3v3Xuve/de697917r3v3Xuve/de697917r//R3+Pfuvde9+691737r3Xvfuvde9+691737r3Xvfuvde9+691737r3Xvfuvde9+691737r3Xvfuvde9+691737r3Xvfuvde9+691737r3Xvfuvde9+691737r3Xvfuvde9+691737r3Xvfuvde9+691737r3Xvfuvde9+691737r3Xvfuvde9+691737r3Xvfuvde9+691737r3Xvfuvde9+691737r3Xvfuvdf//S3+Pfuvde9+691737r3Xvfuvde9+691737r3Xvfuvde9+691737r3Xvfuvde9+691737r3Xvfuvde9+691737r3Xvfuvde9+691737r3Xvfuvde9+691737r3Xvfuvde9+691737r3Xvfuvde9+691737r3Xvfuvde9+691737r3Xvfuvde9+691737r3Xvfuvde9+691737r3Xvfuvde9+691737r3Xvfuvdf//T3+Pfuvde9+691737r3Xvfuvde9+691737r3Xvfuvde9+691737r3Xvfuvde9+691737r3Xvfuvde9+691737r3Xvfuvde9+691737r3Xvfuvde9+691737r3Xvfuvde9+691737r3Xvfuvde9+691737r3Xvfuvde9+691737r3Xvfuvde9+691737r3Xvfuvde9+691737r3Xvfuvde9+691737r3Xvfuvdf//U3+Pfuvde9+691737r3Xvfuvde9+691737r3Xvfuvde9+691737r3Xvfuvde9+691737r3Xvfuvde9+691737r3Xvfuvde9+691737r3Xvfuvde9+691737r3Xvfuvde9+691737r3Xvfuvde9+691737r3Xvfuvde9+691737r3Xvfuvde9+691737r3Xvfuvde9+691737r3Xvfuvde9+691737r3Xvfuvdf//V3+Pfuvde9+691737r3Xvfuvde9+691737r3Xvfuvde9+691737r3Xvfuvde9+691737r3Xvfuvde9+691737r3Xvfuvde9+691737r3Xvfuvde9+691737r3Xvfuvde9+691737r3Xvfuvde9+691737r3Xvfuvde9+691737r3Xvfuvde9+691737r3Xvfuvde9+691737r3Xvfuvde9+691737r3Xvfuvdf//W3+Pfuvde9+691737r3Xvfuvde9+691737r3Xvfuvde9+691737r3Xvfuvde9+691737r3Xvfuvde9+691737r3Xvfuvde9+691737r3Xvfuvde9+691737r3Xvfuvde9+691737r3Xvfuvde9+691737r3Xvfuvde9+691737r3Xvfuvde9+691737r3Xvfuvde9+691737r3Xvfuvde9+691737r3Xvfuvdf//Z;" parent="1" vertex="1">
          <mxGeometry x="80" y="296" width="84" height="84" as="geometry" />
        </mxCell>
        <mxCell id="aBZCno5w9hMfPToRCG13-65" value="" style="shape=image;verticalLabelPosition=bottom;labelBackgroundColor=#ffffff;verticalAlign=top;aspect=fixed;imageAspect=0;image=data:image/png,iVBORw0KGgoAAAANSUhEUgAAASwAAAEsCAIAAAD2HxkiAAAAGXRFWHRTb2Z0d2FyZQBBZG9iZSBJbWFnZVJlYWR5ccllPAAAA2ZpVFh0WE1MOmNvbS5hZG9iZS54bXAAAAAAADw/eHBhY2tldCBiZWdpbj0i77u/IiBpZD0iVzVNME1wQ2VoaUh6cmVTek5UY3prYzlkIj8+IDx4OnhtcG1ldGEgeG1sbnM6eD0iYWRvYmU6bnM6bWV0YS8iIHg6eG1wdGs9IkFkb2JlIFhNUCBDb3JlIDUuNi1jMTQyIDc5LjE2MDkyNCwgMjAxNy8wNy8xMy0wMTowNjozOSAgICAgICAgIj4gPHJkZjpSREYgeG1sbnM6cmRmPSJodHRwOi8vd3d3LnczLm9yZy8xOTk5LzAyLzIyLXJkZi1zeW50YXgtbnMjIj4gPHJkZjpEZXNjcmlwdGlvbiByZGY6YWJvdXQ9IiIgeG1sbnM6eG1wTU09Imh0dHA6Ly9ucy5hZG9iZS5jb20veGFwLzEuMC9tbS8iIHhtbG5zOnN0UmVmPSJodHRwOi8vbnMuYWRvYmUuY29tL3hhcC8xLjAvc1R5cGUvUmVzb3VyY2VSZWYjIiB4bWxuczp4bXA9Imh0dHA6Ly9ucy5hZG9iZS5jb20veGFwLzEuMC8iIHhtcE1NOk9yaWdpbmFsRG9jdW1lbnRJRD0iRjRERUJENjk1OTUzNjg1RTAxMDQxRjEyN0I4NkQ5NjgiIHhtcE1NOkRvY3VtZW50SUQ9InhtcC5kaWQ6OThFQzBGNzRCNzM3MTFFOEIxOTE4MTZFMUI1QkUxQjQiIHhtcE1NOkluc3RhbmNlSUQ9InhtcC5paWQ6OThFQzBGNzNCNzM3MTFFOEIxOTE4MTZFMUI1QkUxQjQiIHhtcDpDcmVhdG9yVG9vbD0iRFNDLVJYMTAwIHYxLjEwIj4gPHhtcE1NOkRlcml2ZWRGcm9tIHN0UmVmOmluc3RhbmNlSUQ9InhtcC5paWQ6NDU5MzU0MjQtNjdmZS04ZDRhLWEzOWMtNGVlNjEwMTZlNmVhIiBzdFJlZjpkb2N1bWVudElEPSJhZG9iZTpkb2NpZDpwaG90b3Nob3A6ZjJlMjMwODktNTNlOC1kZjRjLWEwM2MtYzc3MTZkN2JkMzZhIi8+IDwvcmRmOkRlc2NyaXB0aW9uPiA8L3JkZjpSREY+IDwveDp4bXBtZXRhPiA8P3hwYWNrZXQgZW5kPSJyIj8+nMSp3wAAssBJREFUeNrsvYuvbft5FfZ7zcdaa+99zrn32tfX8ZOEECEwD0UEqUCakiqAQiGqqlZqpUqV+jdBK6SiUigVLYFSpcRumgbHjXFiiA1RHk5sx47vy/fec/ZjrTXn/L36jfH95j43EsQ36d0B2jl9fO5+rDXX2vvMMb/XGOOztVazHduxHf/mjrD9Cv6dOGotS1zO07Isc4ox51rkS7nkmk2V7xrnrPfOWicP7rvgnO+64PE/77ztu0H+s/0aNxBux3c+5nm+vbt99uzu+ub6+vrZzc3d9bPr4+3p5vbpzc3T29vb6Xg+nY4CyJhKztm64lwnOLTGeOcEjoI+513X9cM47Pb7fuj2+/3F/tGjFy4fP3np8eOrR5dXjx49vry6uLo8yLe6sF0DGwj//30Iot54881vfPPVt956+803Xn/1tW+99cab10+fHu+eHW/vlpTnKUp4s7ZOS8wx9sOQYmIkNDFFZ50PQaKiKYiH1hb5QkophNB1Lmf5jnXOxSUNOwmNYRBMCjQPjy4fP/rgyy9/8KWXXv7Qh1/5ru965ZWXP/TBl1544fGGyd//w2414e//cX1989WvfeNrX//61772ld/86tdfe/W33v72t+dZsBUliHnvBXJG8s95sQZAst6VUmJOArI+hHmaYsS/mqDREW25JJNrSgVPByqReVpv8VzJUL3LksDmIigcBjxezuaQnUoGKylsN+wPT548efHFFwWNH//kxz7x8Y9+5MOvfOTDHxrHcfvH2kD4/51Dirmv/+Y3fuXXfu2X/uWXf/mXfvkbX/uN29ujRDRkIz5U/DNUAZR3UtH1vQSxkiXjjMsiwcxYJ99HASh/C5gkvGUjHxgnYBUYdqgO8UVADjWggNDywAOMQaA08loC7nEc9vudPFqe4X3ox0MtRs7jQ+eDkwRXYC+B8oMfeOVjH//I93zvH/xDf+h7vve7P3p5cbH9C24g/Hf1mKbpV3/t13/+F/7pv/zSl3/5X3zx9dffkjAmyJOsT8AjMUoOAYsEvVIlUnW7sb+82IcuxLhIbBQsCQgFb7WWaZoLPjApyd9W8s/iKipBixeSIjEIqkJncD7gDl0aOSSKrh/HmLrgh2GQB+KZCJkjw28nZxAcytM9Wjm9cV4gL+e5urz46Mc+/KlP/ZFP/dHv++4/8JGLw4bGDYT/7mDvK7/+1Z//+V/4wud/7ld+6ctvvfXWdD5LzEEF1/f4vVsrkEOimLJ8PM2Lc0ZyxauLC0GLMVUC2t3dUeIas8cqoet8PisIc8I/GZHpjLf4HsJgdQEPF2ARw8kTgdZYeZZA9bDfS9UoADZV4Oe6frDyBCS+JnRj4WkFhHiHvkMO2wfB+RKjQaQMH/jAo+/7vu/+/u//43/q+z/1gZde2v6JNxD+23vc3t5+7vNf+KnPfOZL//wLr/7Wq3d3Z6SLRuBiWIlhkoBPGQIlKFl8vS5xGYdewNMHYAf/KNbkmCR+AYEVQJN8UkJTXFIpRiAXEz7IGF4UOYkAzkoqOwxS+CEwxiRJreSc8iyEweAlpey7YZ4nOYNgbxgHHwbJSgVuw+6iVCk+JbzanAqiopSeEjSdgDk6F7IAlFOQi0P/iY995M/94J/9D37oB154/GT7595A+G/RcTofv/lbr33pS1/6P37y01/6xZ9/9uwatVtu3y1Eku9thxTUMwV1Ush5hRyqPikFmZ3WKsEMAQpjwCzfRf1mtBTEqdKy2OpiErCU+RwF3Jank1ONfS//lvo45JR9J0BFCiqwLHXYCe5G+bQWeTDegGUem6vcGvrd4Yn1AloT04JQKW+l99b4iiCLklP+DoB3Xc7n/WH4Q3/4u//ij/zID/6ZP4UAux0bCP8NZ57z9Nn/+/M//ZlP/+ov//I3vvH10+nMlgg6McsS9YqXQJWSgEESzhGQQcIpEdEKRAxaK14ej+jUD07/VfAAU9E9KQIWQXDiVBBok7wxYvQgheE0LQK4rhPsIhb2vQSuLPmovNa4Q2MTzy9FwAOUou2Kv+SR/G+XcyxAenHox/rd4UV5BalABfH9IGWh3BBwefiuy4Cu3CrkLUlclWzWz9O0G8d/78/8qR/7sR/945/6vu0y2ED4b+z4ja9+/R/8g//l8z/7T1577fWb69Mbb70t6BA4vfzyByQW3d49i7OgYkBhZqS4qn3orUc7tOs7wWKKCzsmAowqeJEcUK7vioG7R5SyCGuCuiVhNCiYwkTeclwBTJbzaZGvHva9IDqX3HdBgCIVnaBfCk6cR16iZDnpbjeiAVsEWU4Axi5rEbjKB9M8S+opYN4fXvSdhMpYc8LkwgV0fYJHZJXLJMkryB1BMN9JCjyjxK0SvT/ysVd+7D/+j/7qX/5h7zdGzu/x2Cazv/fjp3/mZ//e3/nbv/GVX7o7nd988/rtp+8UBi6JFTc3t08eP+q73pqEcCQQCmhbSlCSMg0ThtqR4+JJNLNyWQcp/3Ss51xaoqSXVQcM+CayThaSUrPFiEKPgUnO0nkJqWlJUmdKOPV4+SpYzqgYq5y/mtLvRpajVipOKzEZQ0aM8AsS0UC4ghe3zMdDPzpTjA/yTsC+kZvAIjlzV4hASVGRvsoPlCQWp6Hf+d698ea3/8f/4X+6O979F//ZX91wuIHw9/X4Jz/7+b/x1/76O2+/dpriV7/2xvF0C6igwAM6zqcJFRpw0fXBZEGaK5pySDiSy9j54jqMyxO7oxzQS5rIIb1UZhb9U9aBRb7R+SAoRIyq6FQ6OW3ocxJ4yKOc4E2gR2qoAEciseG5dHJhJO5JDiyhlPDGy0xpkS/JJ3J6+XpggjoLtCW+xihn4lvy6MckyUPldhAUflVnjkZiYxbsInrnIhCd4vIPf/x/k+/95//pXwkb4eZ3f7jtV/B7OP7xZ37qb/w3/+3d7bFk++a3nwoCM2bepFKzmcl8D31LXMuhd41ajW6lVbQYE6V0w4MLyjAO6yvCnml/VYzQO3kwT2rZRcFYAnlikM8qHmFad0XhXTHOl7Oiw1kkHrpxP4zDIO+Fg4uAGtNUweRufxH8rqIBI/kq8k0MLS0CIIeQ6LWy24PIFuelsHWkzSGJg1pTSu3IKhGvKg/7yf/90//4M5/dro0NhL8fx+d+7gt/9+/83afvPK3WPLu9eevtt5T4goSRrUS5fEc2YLTAS6Cb4TJl1z+AJ9Z1hU+RKOm7ILAsxDAvfFsbiiX4Vc95AxGKUWCQ4Fkdm67o1pRUOigmAns5KO+D9Rz9IXXMNcnjh6EX7OGdsGs6joduGOVky3LCiFLCseSUkFyMgjkQaxKnkOjKSm2Y+CO0t8AXxasqEaci0Ds8nNMLeQc/89Of+9ar396ukC0dfdjjG9/61o//+N+/u7mVsLYscZpn+VuDl6DC4iofHj9+HDjfEzyAkgYAIYx5klsqJxZsXXKEh2SUaaTUkxQiOYdApDjEqBATfgecs4OqaabEv1BYuUFGUXIEL9SBaJqJDXmo8b4jPQCUNNSHOHpJLwVF8p61pkxF0tGu6/dSI5o0F/K9OT/ErUCeKDiUO4XrfZwybzNg0UliLHjkjcWQggpAyk93fXv981/80nd9+Ie362SLhA94/NRP/Z+vv/YGOhDswPRdt9/vxlEqr243Di88efKhlz84ILhJsVS7IfAC1SgXACcWbxLxPDuTiCrWYGJOgDG6FE9KG0k16J1k9EELnxY45SdFBvDzxK1ly4Q80TU1FaCAMeMDejxJArZDtIIWQ7BtY0RXh8RvdHUErVFAOUvR6Av4pUHgl0mUwbN4tuWUeIexgklwVgWHy1lOi3qXdwQl33W9/8pXfuN0mrbrZIuED3V8/evf+Be/+CUpr+ZZIs4iALu4uPrYRz9CblfVbohUeggLnBnEOGvzs9V7EmUsyzkIjwo+JDNboCiXPuYEqK7w2CXNgtyiQGQbsyajkNM5vmSSCJfeTdOk1FBkm0wdJXxZcF/QnpFHxrgMvUS2AoHhuH/29K2UIoeEmSevDM6dYSfGsCql+leSXIATXaJSAfgaC3gzzEoh5tjJEwSTLB1xa6mY7NunT5+98eY7n/zEh7erZYuED3L84pf/xd3xiNiUBGECvQlMsT6QcAYJ+xqI2NvAqE3bnHIRcyBOPlo1eqmjzWkJHlUVAWykp+SctF/ao3Qk0w2ZaIuopTZ1UlwmHcDLm9EIiPRWPo14g2y34oRkriUF8zJPgkmD1NEqOa4ULVkNCkK+NTJXEebRKZVQP+w9mrCGdxmvDSGtBiWeTudJS1kGSNDovvnNb77x5lvbpbKB8IGO+uqr30JzAhVd0SZn4fVNWFWlWWt9yKKMuafT3zBGF1o7MSjyYRUzcCBagEEUaj7J8hDDA/lAJbaW1762RzAmJAtOsJFSWhCLQIGRB0t9itZoSQBG5wsPuTnwyUXC8vF4k9hr0fYrg6FhHVoQbk1utAEJ5hiiQDBMcZPhTUFC6QCwWp/ykvNSMkjnHvUqQrhkt6Hzb772xquvvbZdKxsIH+TAJAH6vshwZWAqQfARcK0Yc+ybcARvCUr9fiESi9ZOJENXXu7UwqPW6+WB52nKDHbgs/GckeAUqMgHDqqLfoKcV1LhSBTzXWFIiLMLusgHNV3fqZ2Mvin9u3AmOE8TlVBgnjLeVt4nJAsVNNbD4bA7jPozGRLr5Fkco1T9QciFLewMScXbpzyjc9R+SL1T1OAxh9mulg2ED3XEiMrMWZR/IMEg7mk/3zJhQ79QR+IaEpnyFdLQ2InhGE9n3PdsQRJsEIaUv+YhRuoJZgRGFV6gWVpqzMnBwMkzWAqSUvAde63IBdnOrOzPeE2MM2o5SxKPvHyneayEq4ofBENKZJVQFapuI8c0wzajWgEYKtJM3ltLQBmZgVUraO7CaOWthNG4kJZonIRNuVmAiHO4vOi6jTezgfDB0tFCToxFoPNsYJI3za+0Wq/q/MCujUoI5DOuXacVnTXaVRVspFZAYn7OiMSWi0FPBTxSnRzyPFafZdlTVaDyuwLEOYNe40rr9RiNcQAVs1oDolw/9KPcJCRzpYCQWTS+46ketMsyxWWWTzIIqYAxElO878wQmvRuIu+QjRkJpLO2cCx/EgcaenIM6PIuLi+fjLvddq1s3dEHQyGhxoCDCEjKSG1ZqAOZS2MRexgW8CjgWcsX0EX0aITMKY3DmE3Sx8OfImEeZxuCMamXpLFViHgMX5AVp+UZEhPAgGAlmTFwwvm/5K4IiZ0fAijXRerE0EuZ1gPwGeiOEAriB+DoAmO94MFQQ+XZQ2sPNkDMGGMwiuNG0TJnwE+wp8wepr7omjImg4EwdH2g/EqedXklWe1hu1S2SPggByJaXgWCnDo4hi69LuEO41YoVaujcIlFghb2cnIDcMnneWrRkuMAnBk9mKxBFS2WlYzSyjA0Wn3hOLFyWkB9g0E4YoTS9yYJajeMmMujSKtMcz0Y4SbMy3Q+g1ZgHX2hOCFEcGaPtpCO45qYAzwZ6vqRF3tVP3pE/BjPgr2czxR8JH2YnA5UVtLcLEhwFY5uoduuli0SPshxe3d3Op3lMi55Zt8xy3Ur19yyRJ2yy+XKnoTVcs9x1M68ERPz83QaBnq3FMn7AEJJFPFIjCcgyZWL3hLGFeFI6dp0i2EWq+MOhMyEuJYQ1yRRLF03sFiNGOVjEML7BQaVdHaCwdQk73WaJ4Zt3EdSzBBP9HArDYyugtrpPMv3fTdixugyuTISyUnfwc8FeYZkrQK6jAQVZqeYhCwpuyCPi0v0QOMONIZNHLdFwgc6JJJoVknLicxIVow2Qo3SK8t9O1JLwqqEl1VgL9/3kA4NEjPJk26CCUkPdfSYIGSQVC9qQSif0Q3DS5yjDt5RmI+6rqL76tA+4bgE9hXBkVMmr5WDZ9lJxBV+kSRrRmPGScESmQBBks++31vbgc6WQTnwUABrBRhNa8LW0MsLSMqKbDlCxHQ47C/B+UZo7TAwnWDYOM1J3ls/bJFwi4QPcxwOu2HY8RouxBtECwn+EXGdcQe5RFMuJJ34GBfV18FJjXIHDPEj4BMoUlBGNZmkgHGk2kiVuMhIrRHIUTFkXLaFFBkkuuieoOEpj5IXpxbfwaSJEVP1S/ofp8B1TkDSFEZyToTfWtjvzL50bic4AttbwmbXyR8kssZmTCMTG064iwy7Ue4ducy5RIOhhYTTJJg3BVl4soZTzcR7j7PbnX2LhA8Fwv1ecAhLCDY2qQ/qMiGnPRs1PYOUArGnUNyAui/0gZYQARM/NPrVtgIMTY0kzmprtLDjErwe7IUG6GszRUXwJ6xseNJG1CBdbAG2dH0QRKNA41nofcgWKSHukTZDXO/RiYlqYRpgIxM4MjEjfWKc69MsQQ3DSVqYQv4LxWNcIIzqOgnSco/pYOV2mpebggYqNPgdpv8oYv0qUd6OLRI+1MGKDViD2zyEP8U3tSuuR36nKAdFLnUKJHwqifJ2dBQ1MNLtBUiVsm4cdwK1uCxIDUOQKIdLP0dc0HSRAGa4aMJpHwcf1WCkEJ3hU9p3KueDywzsMtiu9BJyC2lr6A/l1SIKZhZ4G3QZJlwoU5Jv5Ztn30YcdkCy5MMI7NhrgeGhPE9AeHd924+SRfs4zbaT4rN2waQ6Q0yVnzTKkIWUUT04tmOLhA/WIEVlVZRbpvTLjhGniXlMudfdoTNJl977eAXmGpuo1jQStDz09u5WGdh0WEPjU9BJvQT+kq9HzOTp1lTwsWmv1CKh5KQcFejUxNG0CRaGgliJWcAxslmOGG2jkgquuhYxBewTGS/RGthVMNOuVFGh28m2TWfYWKJjN2ag1C6D10bPG1w8E5q9UH4oL6+YtLkWbZHwwW5XZKMg4iFZw2VaLBqkHl9UPb1p+lcqzQU9LMkgp6hFuSx0MRTkmFVehFZoFMCVeZIrexxHpwpD9n6Yfzq6/Ta1fLtp1qRidskDZ3A4Szzny8sDhofkvSkjQAWKOTdXjWWJuWA+Ka8qeWU/DI2KDSuaYehMzhMdiXckmq85NuEdusF648Mw9jMVjMpUw58U593uQoBtSeuRB8uDtqtli4QPdaheFoGCBjAq4cvkW5O22RjYynfRrSzaIEHdBclhr/1GdCu5W1DqKXh7wuL+fD8nBAaUsYI8Ek0Uw9yRbFWnJ5SA2vH8sPG27uLiMAiAvRcYs33L2UmMtHtqoXshE5VzlOQDLA9bjo2faKXvlChFIYYoTHetaxapEidD3w+7Q48NUIjVPYRXKXgMSBK8aSLId3Ka7MZhWyOzRcIHqwjVQob7IyR7zImULkNk8lq3bXQO7Wuhth3BQYlpVdeXcW6R6ZlNb4is+AoYPCiw2cIRGAIzhRomtmP58vKnUFOrYQjYCHBQ7PtegBFjUj4aqQJo55wmEgM43M/oqYzLgtJUXojrQ5FDDrs9qG7TqUiNR9FVSkp5lXcykmkgmW3AfQXSQiUYKM91L68VF6xn6/iTN82V2dLRLRI+JBDVdWKVT1iySZ8zRcFvoayWnk4LuvZoVKDnmWkMwdUrIKHAManCdo1kTzVcC/T5rRwMGMorPGniTG5jJEFUK060TegpTE2Twy2ACNSZh+PCMwmG3Tj0uxG+bPM0C+j6Dj6LAmMQDHAr6YhPbsWgMsuSEsB+DO4FqvqP8oNgw0w29/WutnVgDgCuDwg37PHA6tuR5r4dGwgfLh0VjOSsI7m2m1rB6bGwIavXmnZAyefSCFg1hTMAwOqoxrLKUHRrW06oBSVaHawnydjuQRxTPR+froxNGHJjPonxIyFHDS5z47JWlWgdKU9gtxtwFxAozjMFE0bSV3nleTnHvJxOdzGrvc1zzigA2g/YjihhEHyekGeNjT3SALhCuWm6SWXhSLKqPpiZQr69O26XypaOPlxCqr7Yhnp1FEBNwIuyDexNJpyehC/w0iBv0N+yD+isoNCD9QsgbGh8SC2tlG4eAqIAPYRAJS7QN6hCipRuNDwqkRgCFtaXpBTtzvXk01DrAH6Z5JyLg70aJb+s8OS5u904DH0Ej0ByaZwWkRNzEQcPi7TUs9wjBqPG+6ZtXxOQ0vcUzScYYMhps4vR9d0lV/8CaahpyWtFs9dWvkuzBuTt2CLhQ4CwmTGBKUPlrqdR0vM4ec+c9GCOFXDJwG3heBBU6dL1faNug8LWCC4CTegYQrDrnFsXgTZzCpjXt4scnGvLzYGQtHcGq5TQO8WubAoKHXZlR+SQNNjfjaO8xqx+cGCi5dY6YrtVssfd7nLoBsonzjgVylfEdTXFyCXrrCIuM/auYfeoCogXGFJx9xp+Ut6dHKRMdhtPbJHwgTHY/tO80mos9xESHoSByiC5sQV+nrBaEC3OVRBEnzUvlzqkf0AysljaAquWsC4RA4DOhyUu+O6A0zieXv5uq3prVqxSwGRjgneaRETmtpkTETBmMPPLMFo77C9oDBUFMefzOSarGxHH3ci6Mex3++k8QXSPJcE7SVDZOlJeQu7DAbpDnL/e3rztuaDiPF/34LqNzGChm1BvDh1obn2ZLRI+YEnYqr7aXEP14m4DwqZpqrr4jGp6Ejgd9k9oM1Ohq7CVL3P0gLJNkjoJO/MsWDhN04lGTA7W2UPXUXeEtmyh/31elb4s3/ivB9sLENyo91Vz+wirC8dn2ScvvLTb7bGEcBjloFqDf9hK0W2EiLh56anor+W5EKSHVHAc9zu5e7zz5qtvw+Z4kq8R/kE3zGTl4LRFbnYD4BYJH7QrYyhuQIyIS1MYZLZVsGjCoPWSyI9ZjQnVjNNzO7zL73JeSSUhfRt6tBZpOS8VGhTrlhsBa+6ZnSo8GP7Y1NQ5xQq/avGahBPwZrEERgKX53aKOOdZQCcwvrl+R1tF5+ls4PmNRcG0scCaUSkxz+cyT3eOGW/Ok2lsA/ys4+ExbdeUK4uGrrzJON3JXaN5ksJpLTTTHe/XMc6GxA2EDwZDtdLWvShYsWICt9guKlqyq+89A6DTbdWCkLksoNdUEFywDRf7JCqSUli22YCe/kxUYwe9xCZJSi8uLuXTeVn0elZlU+Vqa4w3uC/bUv5ArxhyabC3zEn5Nw7djKaRs6RfE26V5Jvm3q1mM6XoTQKfD/04zedx7Bd5W+cFLHNUmWaZ7+QFD1fyZuqjRx9MmXaryxkGM6AZBB3WYM1b8616bjm3HRsIHwSDz5lpa2yMFMVX9gV1Xq+XoKSSbGDEqFbWGkZtpgpCksbk0R2F1D549i1zlnSRpGuHjfMZyl1SPVtgFTAvOn/DULzYwhkhHQfJ+U7wpSiY12nI7Zgzyiv1Q386nxmWHenmVsIsq77KwcZEb0Z0heb5uLt4tCx557Hxtwvj3fFt+ZnCWdJUwbg80u7G/WF/dTrdqSU/9BjwZex0sEFp5Rojt2MD4QNgkKv51qySG12o+0OPE+N4iW6JdDNtP1pa4mKMYZSKqRYWhhyxrI1RzB46K3mjKjSkAOO+I6j7ima25KBp58cmRD+YBVs1UyuC8m7oW2FZKh8MPxgpD3X+TodFpJ0sU41alUIw1Q02LbqIG+b48vk44p4yz6XM1u0FgfvL/f6wO96dmxC42sN4iewa2uJ9xtwwUvoosXHp8TYChVxW3a62YwPhA6Wjts0pOLzDry84JaZVEEEp1YW1IVoj8rHUXy0Ywr0a5i5xSQJCCXrsZAgsYDAjUaTrMEiE1S/nF97VYT8s07TkNLCdIxe6NmcT5Q70pedcL0XfYdlTLHG1G4XbC1fVM2GscOM+n5e+77R5KdjruJci59ij8TNgGB96qSOlstztunku96wDAaf8t8fjruSd313f5JjHw2E5OQGhkZN3sAWgzCPpc/KWjm7d0Qc7mkG26nfVL9Ss4iVu44VswrNF2UNFFNShFLChhC83Lwo0KJVdoiqjGCcpt+TBC1kvPc2S0JwcB42KPFJTGPHg/nrDAWTWrWlWiS3cJCMPPp9PYLpxdBlcyxO5AAq80BTP8nUkwKHHXoqUlzlJoBx24243wjyt8z3uC5i4XF5KTNyfz3NMNQw78spr6EdIGD0cSuVew83bRkvNsjVmtkj4kA3SQk3QQnfDoswZpmqqrgDt01bsiDfrTk8o76RutFAMqiJYMJGUlaYcMXooDhJQAlcXehuci+vyXcbS1NozXN6ENfQV/BhQ0qogFvWbA6I6yh0yA6k3ffPVTxwkWixFDFw4U0gX7/l+pYYcMPUEe7STpyYQVA1uH17uI8DzDCXGIg8LfUhLghk+klIXBjfuBlPTvEz0MjUcIdJPdQPhBsKHOwAuGNe3iwxpoUSqqI4VVLtm3RTP8MWJgkQYW1zxAt1ZEIWtoN4v84wBdzdAXBvjOOxCDwKap/oWzqJoeNpCkrVtPQ+soVdFUvPe1+jsSW2T8hALISStFdzK4+2+23Fy0Gy5M5XBzEgtx4OL3DskBZU/XYec2dkg94GFCw89xJDmeJ4kVPYWDaEyTfJDRXorBu4txca1rmIDqQThYHkjcLq44m7jjm7p6MMFQip6W1+k7Q2kmpBy+3UbjASfLNkdLOUzrdY4qPC6honqIXQqydtG8kY+Ss/VS4bWahAi0SBU7S3aKFw93Dx9Pg3bOMgn+8HQrx7laiavjc5O6qMRsTkDO5gA/g7VYUpZCdwLRPoVU35sTQShQDJXG8LQK2fVcxMGxBbyXLqn1SYfWYnmgcu3EXipauIXHQwBnJvmebtWtkj4QLmoUcPt5g9PbKAlY1qJ2IE4arNulm8OFInNEo+1tmDXRMny5L8Oiaskni7C6wkGGTBTDB0MBckvw7gcDtuYE6rQiYnlWSEtZ/PU/kKAj+BD1YQ1EqM0QHLLWu0Dtg52iLEQK8JHg+9cYQx37kHySStAxXuwILXBhzvXHvWgm+COWuc4Cxr1xwfaJOhl1MIS0iXPlXOOI+4g1a7bMzj1366WDYQP05ZpPZiqm8YkdcxWCV9tmRK7lZhgYD7BziUjBrTzMwyCEZGqJo39oLmipKcJgwvL2NUcvrllifa+FC61raCZGyJy9eSLqblgjEnde7kOwxeuo8ArcFTSQ8vfrKW8l8wz6/5DidvDuOvDIc1F0BclM7VxANF1hF9wwP7dPEWdQJIEY9WfHz+O99nCNEBiq7zlkFRiWVirIlm/3+K2HRsI3/9DKyx+AEVSs1ihRJdOa+RWKxpX0gwTVvDaJLJg56cP2VIv6/zqoM88lmUblwGidINoH7tBMdSoJd8b1/TdSMwr+RteNawcDReUqnaRxFaorNDXmSfIp2JKF4dwuHhk4F98xivSKQNLYDCY6PYX+5RrXJJHZQr7NpLaiqORHP3F6XjMXFgCtdSB4zCSyyYJbcdUvAjemUjjrtQMB7ZjA+H7ftwdj+fjkaldm5XXslrUIwrmNQ80vusKZuKACgW3oK3QHzurLhDuvRzxM162JWrcr0TTCjp1Y52EseP+YppB69Z+jyBOnm3AWsN7oJka5BSRI3gI25vw33rXyf8kVC7HU0KHM7bdNRAHVobsSPP9YAV6o48guMKiHwONZh+MeUvvg6SjSLVBkVu4tr64wZd0xPcFhLVO04wKlidONM/fjg2EDxMJ0eDP3NCS2WeRIs3Rur6sRaDTLbzwO2ye85h594OvkP/qWhhIDdloaYy0ym1ktOsOSuZs2ntaXRynM/mdACRcuvOsnvryWDhr8I0lOtPo1ic14NYZAXcQJoo6EK6DZJvxrPbBWuTKD3JezqGYHow5r5YaKpyicNCzQ4N8OHC+IgCbjucdHZAzXcOl3kRaDGWjhGWsBceQY8tHNxA+VE1ojcpsdWUno43lpk3O3dHzNGsX8b6XQ+2BWbsv3AkhqaDWeDrS0K5Jrb5Bj6vkdbiu1JOYc1t3oasuvKWFom5L5KIy+vALtjvM6ocgqIKOSSKnjches3H9eTrvkbj28hoLthpG+XhZzoK8BMvf0vc7gd44DBJ1uQQmWHmfILiWAEpOOJ9PEGBc4tdwOk9oDFm3LPMouenuMe28PZnmcqfI29WygfChYCgXIm3k1TTNwAKf3u8qp1uVeFqVRXrYg6HSvliLDv2U/0JlelAEqu39fRdUX0wH+orJQq62LSY4SQ45tMgY+jWc04ExNHtvtIT2+7EL/TxPGNDT5CbleDxmjBuGgetGsR3tPJ+74Hput4eMmNIJHetzu/YkH8JXG2Wer1ih4XfjsMyLqbROXKX/NtvAFYuFy9K2udcGwoc6VpM1jXMoDB2zTIpZfXG1tUOpZgolsAFjV/lsFfCsnvlVN+Peb8PW9qZt7vTGtla/U78MmHhz+4VE00LyDLo6SHeDNkklJ8zFqJ+UtTQaJaFVEC6Qi3HGsJHQlhhYatrvLyG2gL4pGFSwIU6ZrBt5z2jYwhr89pZLLEBkk5JyiWk8HASxOSYJxcu0FCN3GTDLpSDce5vygsy3Oa9u6egGwoc5JFKRETqkeNRIaNX8nl15STcxaqBqgdVepWdFoPB8kcudYlqM6TXE0acmSkATJDsoMIouGVVZPSCuDho6Uqg1NKWipTGpIyEO7c3C3S3KrJFYPM8LhyWYEyKq0qNU8kVBy+l0otdTGfqEAWY3DLtLR7dSQ4+KfhzVEFU/XRY8zOFjDOE7vsmE5XBm2IXT8eTdAPYMm7S0e6yuUxesDYQbCB8uH4XnLxgn5IiWFLUj6qGE4EozAx95P88sugIkhRwJKv0a6Oqw2yjBMYlhtVWADEMqodcWyGoTjMEH/LYdVILMK9vtQPe90BcUXjJIVL3khD6iJwvuaFWTRZrYZ3Y+MVnoMR1ZloiphuvGfhf6Tg069vv9FCUnjXIyemXI+8zj/sLTtKaDd7g7z1Q/LXkc4cdNpmjFXN+xIO08t/+2Qc52bCB8kMOreQxinBpp57UqY4sSowokYzEuoJVU3WbtaEWTpvMJG+RpN6gNG2wLbX6JRvNSQ5liKwtzxTAwcASPaX6X+SV5asfBgGazkDlI5mkgNgxgXXcSlCXq0jetcBGM42MllHmuXrIBzc7h8rDfHS4lf1xcWhYM9+fzJO84LwuJdTANACXVqslqiAkBru9HzjiRoMYpBYFeCOOwd97JLenqatzY2xsIH7ImhNVSMzUreVXl6kprEse4NUKQGdnZR0Io4Wo6nx2tJeAYH2cpBunWG6pjnwZmF8myt4mQpQopuiQmE5FhMldct/5Zrm/Bm2FncqFDjeW00LGYVNh71Vtg+USqHbSAvYVDab8sz5BFY0JZYsx9Tne3ZzoMD02mVbTlitaPQ32ZBbG8xUipaYduwDwQBDq5y0BPiAXb2BUDKix3PVm2ardIuIHwoRoz6iuj0ngQuBWBq8oQwdCs7qPMJAv1ePfZmQSoPQqnmnrkqJaWM2zMcDpO1QXooBJdqIriMt64UP5O6SJ88L2a68Ivkat43XoPQNaqAqWiij+qrGAYTv0RXmvpeqSMXPQLTrYE54xtGIKf/nS8g8lGzBdXV+qCAT9hEugM1k6xuUsRlsr8O1BfezKBOtxgOmzJtlbj8xYMNxA+EAgp5FE4oRxSbhqrIKMbUthFAXEU0wLI7LFDk/ZMgQlk+37MOpcvdRVeMH4pgBVY9N1tEwvu3nYzKJ6GrFCJkD0mCQxpnsIiFUlk2P5W3YgogG30MUv9UZBYh4UWBsnqbnfYSwSbpplVK8rUOEdaCadA2s35PINXIPG8yg3FwYyf+5iKGr+VhP31yHadhHd578MAmxnNzO/u7tYEYTs2EL7fKKzkgjbY2OfOvywUnRqQqqWZWgamHHWvoT5L4xN9X/LQD5AUlZm+MVYnEyp+qrFomNVCEfmqxc56rBxl1ofJyOo4WGktEyNcZDgqVJpOLrq/CfNGFLDzfBqGka9ilzh3ab/bSaKKFBvGFhGUbm727rERmx7ew7Cf50nCuZMA2+MnWqY0jj1DHUwfKVOU5Dt2oVuWRFPwXt7XeZo3EG4gfCgMVq29qIRQ7U59197cVdprVJrE3aCEnjwjcpGgcSziKss2utSsAmElsoUQ4ElBSJp7Ow25+pcZUojQNn7ShcazNq0edJy+gM/tafaN+Cm5YTPgcM3BG140cT7QSTEu0zJPeX+AhcwwRvr/Prp6NM2zOoinVnaCgFoDSsGI6A0ezhInmBrzd7EbezWACjDSTxyhOq1Lt+7MBsIHOVTtSh/tLqIrmYlHhWHrlBJZQJ0iU+olBJOqe+qpm2dv0QW/oM+JUWPGEN+TyCZwqroEpsGMz5SAled5mSOfjRVlklEy2DrdXE3jGIzpEhxQzThC4kC5MNW9lBsvy3KeZzZspUDcjeOeodxxS7bapsK0BiKmUgbbC9rnZaEYGcLDOEs6vEgQPh9P/dBfXlxEsyQsOQRTjhkyXVSdW2igus3rNxA+DAhpLF8UbDA/JDCpXVKrX3VVAs85nuHBxMQQ7UTKHZi8Ra/C38y+jlF3MlUqVaWtdSSsaHuGw4zSGqTYtQ0CgOM/mXZd2K3lEigPLxlVwWv8lDNQE9yMUiU+xWlawjwMu7jA5cnPgfVkAXOu+Nu7I5jlzJlBuGO/N5Nc7qlhmuezvLvxsDN8V6gwlyx3g2qLxFUBaylxwPzQbQjcQPiA6SgpMmC6sDejq3ntvROpo7EFs0h4LhUTaVTRSqNlTuw1VrLQKLaA4VKQLzhlvGASQErKyhfFyBGDeCWLw/q+rMN6rkOTsq0tcpJ4C9zSwBCCDHLlBEpnqOmhDBzloZiUGDVWvLu7loddPXpRMSpAEyC5jAfsDntdosjHYycbrJy8GXfwWZMvlmSm88yfqnKDGvxXx3FwvGtInLyn9m3HBsL3G4QIK9hujY3ZmHiXJSaKCYvuYFm3jgF4LMngsq0QjYUNfm/y861FQKRc01JuyVU+mB65n3dIUdXAxmaFL1dqG4mBAuP12ia01a+bjZ/u0Onu3LWXk9Vwu++6xcShlxIxa0yOMQ3DcHm4lOLz7vbGY892V2q03u73h+NxlsTTkZROGnoeepX5F6yFIcE1mlhzvo/h4N/QWkadZmgtsKmZNhA+IA75x/qMObXe8DnPAxU0c+Vm77BWJXJNJ/zROPvzBTQXT9Z11V2fpHSffbScsylutUnK/iorTUfgZi6c4MpR6mXVYhheF6gGS9U5va5Oi0rHIbfOslcElo86v4Wg+ycsV9tgbykWYCSbXd3tDrtuICemCbMSNMTdwI1reDSCfJKEe+z3WfJP2OVE5Y5XLKIid0feD1SF8v9NRfG7O7bf1++qLkSLEBs6DbaUaTOG69AQhnSGgPEgBtpet9EztWOmCltByOepkfVcAi81XoBbxDiSE4OSsscWUZAxNSOFvz3UuisHBWkrl1GgFSQwjl6TTIAiLQnz9mmGNZMCj0smBskZ5WvYzpvi/nApsF/iRCo2aNsdiKQ9VhDCvnFZTmemx17H/VL7TsviAOCyLPl4usPSwqFDHl7TnBbrcQeB8TFzZmzYztu0fgPhwxw3t7dYf+tU/ed1QZJZPSM4o7Mp5rrWgVjHQmezVBJlwMk0bk2hi0QY93vQoyF/Ty1Covva+GPYvkTPmLTStXEu7JxxuVlIDeo4qrcH+eIygfZJE16jRoZyLxCMH/YXPQxuwoilF1L1XUSYIU4SsUnyRp+pC34v+ejFBTZSLIvcVaTMs+Cj2t3Ya4ZJh2/87F0HEynEcyxX9PdzGuTnOh7c1lFs6ehDHNRGFNXgok6jxZP2R2kPQwmf9fe6erQYcfFiv1LmtyBlYjD0BT0ZQAvJH32fGO5qSyYtjbqDVne10KEUlhaBpDkuASyIytBAVQ72ETBNW8Bd0Cs6T9NAocPV1QsqnoIZFG8BbKLu0rIEdGKlVhxoUQPxxX6PzVDyeHkrAtP9YWRYc0uMofeSvro+UOOPtPlwGE/HbNUEOTCFxqAyFf42tgtmi4QP1SHVrgjGb56sUDbrcdVySQvsqJltojzD/DqpYWClyDDC4VPg17Fmo1aefRTYIjY1BY0tWE8iXmKxfGJsrLocFD1Xg6VOhpsM5eVMMwI2BK0XcMZlpjmGQRvJ1ePpWc6zfH46nyWoprjc3V4/evxk3B0CnE7rPJ2Webq9vZ3PJ4mNTZNrlbRdxt2eZG4s8QbddF7kq3PECFHN3SJ8wUku57ZUyVQjc+PtYtlA+BBdmaKrV5QWA38HBq41OYSgFekkpomSbYInrX8IXKtbKwqd83WA0Eo8IobndM1mBr4XOgxEnCEvlDhn70edfisXjOriUOcqgyQ3LcERtFdt/nk6y7uLcZ7mY+LMUIAt8fzu7vZ0vBuGHXZkz1jNCz+Lgq0SUsV2oJbuOO0Igrhpmrg6Zujgmc9XcXwHiH2WvVAlw6nIA3ec6Xw+nTcT7g2ED9GUofVo697nyE3XxjeGi+emzY7Gm+ifYuUDYiOmew5F1IgupgkFkWduzvZKwYFLYtYlt7qKUGf0TQ1IV3za97r7t4FDU9CVoKkbuQUXeEvUDbOng5RSvt7DZh/xmS5VANF8PkpZiD5r6EI3YC8FFcASw6jwgFMHtsaQHe5MkDAnGamERlBqEvZAqckAGrXMwBHYcetoC8O3jdkbCB8oErIiax1RElZgFlpJGgXfxbtGFrFtgRl9tdEGNcpXA9ggRwKnBh19qByab42ycVTFp8kq1o/5Tj1malu0a9XGxjTfxNLWQ2h1yokiW6wo7QQc426wrnlMBSSrlhw3CpQUvCDoDPgWXZt0ucazZ9fzNBUlkYIiC7qPD53EdMTkUsE8PUvGW7j5t2vbCKmhotLCsM20XS8bCB8mHdUBXinxXV9sjUHdCdOY2YVMb7RVitZLUt0FRz8y4kGxSq8ns9LWkIVSGsFtu7VtQWRfBKwYfEYzGQl0VtfuopL0Wkaq+70+XJ7e991+v4NlU6k3t7f3sRwgKe0NB8r8+RPBV0ZuCfIOBfQVObBbpNIjkDDeWOZEJT37UEixufEQHhg03oalHDcApGWORhVW27B+A+FDHGiUIGOEVlA9YJgnOvW0VmvDFnBYyzWbUJLNdFoohZ6us5Ur2HGjS2lLCulCCMaJSpQsmduOVoXYynK/G7StuOA4HlNxBGQamDpSVSoXZFs1m6ISCjt6z0+fPqXBqR/GfT8Mjl0fga5UepicpIzVoLu9rpjxDO/ewnjbyP9ikgpPkCXhEGPDhCRZ3fKhzcdSmV7bufhmihoVt0nhBsKHi4boUzIrdYwfrAmZiakhIjbmIpbdp5n4ox5nHkvHKjfS+6rDwdSEFOjKWLK5mRO2tTNsfgS67qutG9JRynq5K0ILQ2qlSAkoLBF1Ea/8OZ9nKT4lsj2+emSo9KVNaGL+2UsdOE8nwae81WHsKQUmpbVS3giDm7ZxlxN/E9PCeYucPwz9KDeBCV0fbDh0q+wYCyus0vTqRh79XR3bnPC9R0KBGBT18FwzEYI+Ri4VLdD+wUKcXjJE7yEQZaVjsyRnzPlZ7kGHAR5L0FWb5LVg3qGOo2SI50jSDAJjcJ2DrUYiLxRqW3yHDR5ldcvDVLeLcBh0JxIy0nHsWKMFEuhCNW2AjgkhVkpAy7vgPXE54RLJCReYy5vHdP54il3f2WAxmcAs1GZNstV5ka0irZOlrnQujUPH7EBtPTaPmS0SPmCHVC1Fm029im/VUgUElwwDQo0gza6iFBRX7OInfuAhXh/2hwv1EVX/Clzuti15UlkUqaTZNrZqVToo4hzp49DQOxXRg/AdOmW0gCMjrzRL+YYGJkb2MWJXtpxUvohOKcYMHj2heKZ/aSffkm90mN/voAwscU4TpPedCz3anYiNbAkrt02ginLQ+3fdmiI7N4PjVimoFGu9b+JuxxYJ328MGi1+NAkEVQVmE897M4gDBGZzpA/giqF84mw9a6DTzWa6b8U2TkxDo6aXbJdAuARhFCce5OgkjkJcgOe3YecHGMDSCEjyO+axRj3x6YNRtT2CRYJjJ2ee5rnrp/NJKrpxnudlSaEflGFHTrgpdKzAVheLFs3adbJSxQY2h7BLwxRduwTRVNdN04m5a2WEBAgxv/R+87bYQPhA3VEdSev6PrK4s0F+qNuzKVDnFB09SkGcim4xdu8qNQe2bU2SYDVPLvBKJS8UbRKPdS5owzgzdl1O0DFIwEmG9r5VnSM4S6QI17Y2jWHLFOiHymEYM82dlOOJGhJvGtSAsTvo6osUZ++6F1/6oMDQOSUYSDo6qxWVPKDDKphA2ipbP1jCbRYMMrNSZMhnldqy49KnpA2qpMweF1argS0j3UD4MDAsqgZ0ufLik+jBog51mtElu3o4q05NEiXmZdILV6cXuiNGKSaUR2DLii6CR/PGc0zoLazV1NLbgN2WqnK5kc/C0wliDmPa4gdFIzLUDL1hpiGNP+z3A2YYGJPI3+ishJ6boWIqy3meUJka3ALwbjpXKnSGuhNNXhnuHXiixQ+oe+oxlMAiRHaDHZi0UvJyV2lA8ymO4yjfWe36t2MD4UPkoqzaVoqZac3D9ulq96TDAdMm701ZT9ZnKZLsQXV+Pp3l8n38wuO+71b5n1GLtOC6rvegu9CmCc0e8lHNqrGIJmvY5RxOtYRqe+FJUhXMgP4m54fXCxXH8rhxB74OjUm7cXeIgHixjTDHJNtwcYZ18nSkvkxmyYYVcMNSre9DjKgtWSUW1zmqJSGYMhjie+MFgQ5TQ5BsmlHVdmwgfJ+P84SGPmhaEi7Qmch0f0G+Rz2u12W9aPGjeFKjJ1e0+wnIIGX1WPSC61hA0nVtMVOryUhuWRZD/ppn7ZmbwSlbQG0ZBeW/6kmh4LfU9hvqNhwE8mNKVXeGRu5gG9KIepPGT3h1U/e7nYRNuBuWxdDwLcBxWH1lID5UjQaI4sEN2PvSLctJ3jMHjFwXnHVjKviwS4y78eDUj83Af/HueDLmhe2a2UD4Ph83t9er8M9pJskU1anVNcJgUXu0Fn+4kdDQ8RqlYMB+iJRtIkN6pLIexhCgv6xNUe3rZKaeGSansJ+R2CJgKlgoWoxTPAKHXqUSGP1roxVxLGCDr1HV32pHXG5ubiUYSrJ5Pt7EtMPeGMlZZ4wlhnEHERMoMov8BKEfSdCR6nKQ9HNBAwn9I0r71eIRzLgEaX1RKSLmJlHtLSRNReNU3ttpmrYL5r0f24jivVeEulIeuxsQpGJSWQUzVdhJOCriOaUgBVTbl3CuR6nXdjMZ1pUYSwwo/jDq89p0Re+lEWmcxlv0V0JXuZBbeWCFzqLUJeq5mRijnjQ6Z8cAsK3dxjmnM1ja2Lg0z9M0Qcq0TA6LmWaS6/D0vht1T5uckFqNMur4HhsOQUkH+plRB/gAjPKt8+0JLtwTtoVK0ejUD7gaUmpys3fbjg2ED1ATOs0ASU/rLNlqVqVF/DWSt1LVqEK7KPACJb8bLU0+iyGL7qRwXtLh+jpzBwiqms+Tjuk5ewQnNOuw0bTOqzoOZjVMNE57rrpPTTd7quOTFqiSHHZSaWKWaHRZ2jQdua4iCc6m411aZt+pAIL724JlEGVd6rR7xC00rFHhNdqFYTeGXm4YIS2YSXiISKyuT1S+Wtnm9RsIHyoYKhQNeWqSxXETtm37sHPDBJls2s6kq6dvTG5Wg94FQrXpfd69O6WsI24Fti59YouDTDmWf+iLFnMvYlQJIoxt1OiNCFUdE8mluqnCnU6nDomvDhuNsnw67EhEbmzWHRg9OQPE7cL1hqTK6M9hdfmiGqw6zvzRoaW9YifBl3LhZrtmNinTBsKHQmClmR/zwLau06rcoTRhEPyONBiiIoNvEs3u1VIb/p/IPy2lTJlyWON1J6E6BbIURPeETDep7oauo+yobYmB9hCnNoiStpI0g7TRqhqCyOfCGCjbY1ok3PXBj7vBsI8iKOqoD4SZGso4P46SqO4xUEGK25a9qDsNt2IkbQWpkhgnqXleZu5/goN4nGc52TDKWTukrBlxMkaWwBsIt8bMw9SEjZcMLtoyNToJv5XXIaGjKwS/UvQDShlIayZGLByZQJbudU+TqfDUXgPd0AcNd/DEpj7IRnJmLB5GVb6tubV+aqu7HHsh5Z6kInHQGx0MImemC7gnsbvSG4rW+t0IOwyqGHnDQNhMGEIUgbxKJQv0TZgSDvTzxfI2iJXkaJk2JzPIu7WgBT08Zt9bUok2EG6R8EFy0cpNEqyWnl9k9r78YUHVbCmw2YhbGeRqRlDimiT6QRls1VQvUGofuJEeivXmJrqgO8IJnOaqGudWWT0qRZ/wENUW6557TPtzieid0i1f3orkn5Y7Y7B3nvpDeUqMk9Sl+/1hHMe+7zGgiFhfQQU/tn+iSYTJCv03yLDByEFVxdb2oeOiC6wxxBp7YBhc1gTXtmbVYSmG3ErCLRI+bFIKhVGoyaTWGWEMhA8FLO6Rc1YrMa3nxW1U2476iiImSvMzV8ADfLao9MlJntt3HnxRTNtBOs3kaHYgVeMx2uBpJFVEnrZbuyp3LWubNKEDxJkHwlGCKZrkiq5w6k5TxricBTU9IuFBoNzDnLvQM8roqEMXenNmEgpkwJYDwQJSEOYkJVBfX2KS1+uHQeCs8Z8/H+8XeaOtbZHwoSKhUmYk3HWG+r+6ripsXZasNheJDRf4fyL6JSzGRSAxrfxjqAn0rSi0xEY+qfI9B+0s7SaguO1on4GVMnbNeNu/Gbmd9KrQEIe8GJbbbV+pyh4royJs6rUfY7mwjctsEJnPp2MH4oujGQ3m7lUZqCkvOBJ9EMFfpctG0CaRKpVgJ5dKP+763Y5EBclsO/ykXCBTnufp27GB8H2OgUryUg5265OYVWuw7n5R9SBmhZILOj6SXUYsmhY8SEIaOWDkTKKqNIGnrV7DJeYWAX76w05iWFX3CosWTvNBzIxr/KcT6EAx/C58oiZsvGoa7DMRZR4NvaID+TOTE3OUQBlA2an3m20k/F5dXeww1h919aI+3VnNMLEJWJUZXL2W+77Te5NDMmpjnFsOrVzT7dhA+P7/ppq3tKaZUhF1RJe2arRJ0awQW0KI2XdVpZ+uakD7hNlpinOhMZT2WLktFJd36DpOMjjV4OqmYdcVVcqadbc2DYN1nk+2yjLPC6jUwMW6qB6RyFsldoeuLS297x6hkITzsDxZm58C/GEcJJukTXCl4XfTQ6rVPyKhMk1VvF9qJyUlLf2BQC4U5Q5wr6qOe2+47dhA+H4etjVIHCoxU3HjJzuG8cyuM4tmDNFI3twjqFIkiW9EY8KcwKqfd1bZhJxa4o+hmHe/u9jtL4dxrzPHrtt5hiPEmESrt0qGNGjWRWId5EgmJFaocSnKzVahfI5ImBXqba8bBJCe9sQDUAqCqCdvRw+H0QkHHHzFCpjhR254TlH7opxbeLdMmIRY9lGpsejkfAlbR7H0YrtgtsbMQ+SjUmJpMESY0gFBYVDyXJQrASbFbMs9c5T2LIZNCwYWdlbRPtG9Er2Ftihye8vJIhaFfoCgzwfWXy7kfHt9rVokKNhTRqgRMGQ2WkEoq0xUEXW98VA0sJ0Dtqc8TSISjTCIQ6tc8LXlCrNDqA67oJvY5mkKobcY6KPngny5c9QudppZcjQKRUXhem3sgkvR0c6DzIFOoiOGooC0ffrserteNhA+AAaZE3IRGrcyUbDUSNIq6s26Kq3NA6o+RQlu2FUUBUpyaXtD+jUfFpeMhYFjv8SoxGtkj1L7pXi8O6r+fYFjk3w/TdOCzUpR2TbaJJK7AqSALXsEbUA7QM2oW55IDioSTJLR7NL5vh9qPcr7vbh6RPcaSHkFpdi8ixTbdZ08eqyYznP6yPyTyazXjqzh3ahTn7VUQo95vbZ+ucTbbM3RDYQPchS2PhnguGcXeyHKSuDGLpTKjSiKPRRX5F9KaIKygfuUHHZ0LlJIScCUKLXM3Kti6+3dSXJAndH1Xc/tt+V4muU0a0OomvX/qgJcm0R27Rnl5vFkfluTZlmqNnHUWIOSSD08djZ5qezcxX6n63XBhIGF/hi6veuGMOz9MPrQ69JsiZMVY8UZJ+TrlljklsIdNIYbGtEg7kBq3ZaEbiB8sANVU6JzTOxscFjKZ9sKTvQ3qb1FZ9IZ2uxi/1Gb5sOyVGd9iQUanzGv6+o50lhxYpt+sDZLGi1Izb2GXj+xz82U7lHRiDRtnKhPV+NgPtjW9eXYQ63JxPM8mbvbZ/dsm3upvjXBuX2/H3aHQ7+73I+X3XDgQgssS5NXguqiZh/2GJzC1SZ2nYRQ8Eid2TS9Gwgf5jiebrU5yY6JCnltE85b0/UdTOMdnZ1qGcemvJWLHa0Kyd+0lJKYWDU8rR1ICGrR8cEEX6o7qSphXei6QHlh1SiG8EICqaELKV5TtfD0tlGrb13ki3PLO3H3CaEEZCkmAwmohGU1vqwTRcGVRG1BDvbYoKWSVp9/KWVv0q05373tXDfuRrC2PZT5FCtKwAzQQOWFu9sGD4rsIMEfTB1nt0C4gfBBjrvbO17S6qSGPidVrp5rybrnCjplUaLJKH8yakaPyTrqSblAMcHrQSlzHYsxcDv7zukCbQmBUvwxIzXsgqDP4mlOsyS5zDEDCFgxDxdQTBHZCCloyVDFlKuAANWbBz9OUs1CQpvvpdrEVhci1PadavOxGLRq6kjrRoZ6z5yWZS3qT6iZAv35M6aGAfMMPHj2NtIU35ckf4fqqe4vlcVns43bjg2E73tnhp5n7HMUDNPv/QzhrA1uSpwie4by/1m7KTPm8jSBSKuzfcLOzcQxtx2kAOPzewGP9QffPzKuc8Xb/lDyWL1UekOtaFOiYrOd9aGglgsS9Qx8ZRwXwnCRGhYECrbUwjQS0QUSDMxI0lLL3Fa7RSvvQZ5fb9lUkkC2mHzOy2TqtXNHxEqfRwdKHVloEGthPZMdjMmcC/bYa2q122PQkYEqyihViD3kug3rNxA+DAZhqYldmYFr4JdljnE5n8+n0zRNt2fB3DSdTicMyZJughGkjcZdFHuwaHU8cuHSD3vjDs4/Cr1cwb01u9ANAugwqD0ifDCsAA2lVRgHnRC6CO4NElK9FQDUZHfS/BehTqMXG6a+lYL0X+QfqoEzxpBarPGLThFlSGPTTDTHqSSwXvIimDyVeJ6W2ZS7FG/MdLL1zprbzp+DjT0i+SCnGvoc5515VDDwwMp7yPPhdOr8dsFsIHz/j3Hcvfyhl+USffbs+u7u+M47b97eXt/cnK+vzzkzrLlLG14MV49C9+LQvxz6Cxd2rrvywwijM8kOEbGCspx78FiwZaWDGUWR73CxmtZ6oOSMHdbLnOe4LOk0lTmHmJUTQ60DoxhCH1ZHxKpMGiS+qvNX2yju4maUBBSd8QyT8A+W8w8jhRClkxuAl3eCHU9ohNIqprl4lzzNAjO52UTwAPKzNB0Fosv5rVqv8/S0zpM/vXVzvunkdjJ0F48fSZH56Mnju+N5u2A2EL7PR5SoJ5HufP7mN3/r9ddevb093p7MnHdh/9HhQx8L+1fCeOX6KycpZScBsEec8mR4W11OyFqytkYJhQq09yx5ngEoiUWMtpgRdrBCNKfOJ0lnc12wnBPPUy6qadzoyn29tRHLERmDaabbmB2qNoOcMqsWaSTGsauDlRqVNhlZEslMhxionyD5RdXoEObcAFvgcIW09qCeGylD1ZSzpdhKfh/HeD7ndJfOT+PpNt2+Oj1949nTbz96fD1Pn3786Oov/Pk/vV057+XYuLbf+Zin89/8W3/rJ3/iH77++tvHJST3Yb//uL98xUqG2Y3F7UBfSapt1cJP8aQGnEVTRNdaoW1Sx8QSuCTri/NCyoZ1yYXgU9JaemjAza0JlIAxSYd77ZgigGa1I9Zv2TYpWTdhqE2G+pqSEqeSD7xB3xmWmdxuAZ1+CQy8qRGwdTeNiic1j8Uz1b7D6UCTq+CAZMRLUFNtObrlLt69VU+v+/TGozH9V//lj/3oj/zZ7frZQPj/9njjjdf/2l//65/9/D9P/mW7/4TpPpT8VSwjVq1kssdKVKszagXhbQEYFpVPJF71fh3rVd2ubdoWTcf0MgGo2lbNoW2ix2L7vLJ0JK56FnIhjIfxYhQYzEeJQifJXbn50GoyCovFVv4x/7RqikNIeavCYLVOtb5yzm7oVVgCEJ65+cXRKsdNU8YQIlj6lBJ0EEw6QrSNKXX/DEUiq6KXNIZgJS0+2vPbV/7t/+Qv/bG/+EN/YruKtnT0935IhfM3/+4/+uKvu/3Hf2ypT6aIBQwLaM5zk+C12ObaB14vRBrVk/9JBpk6lCrRDMY0RjdMFMz0XWDv03GzGrNBOQsmECzgsDk3WW4Z7a0fd1cY00n0ilNbgWarfddAfyWutQE9nbmpKsTrF5rF2Xe9YdX+FSVnL10PlmleLOxoXBcnR5poAj5pvs1uEE3nOKLsek9f/UobOLwwxo2C5E7uFk/84Uk2H/kHP3f75KU3/vQffXm7ljYQ/p4QmNLf//SXvvibj82TDy+xTEtdlpm4o3Ic1yocX7SMogcUVHmmkPJilLGtWWJRiLAeQ79TNbe6rGUYzBgidgH26tLm57lIcjcMGIVwt4wETH9esOtJt1MUnew5rQnfZarEpTEt4zXNsI2CP6MOF5AOUozU2K7WdNREOctobCXvlfgLxva46+3OkjanaXTRk6IFZdYtABIZA+5FDdItmFYXoe6V20s39It94b//zGvPTvkv/MCHtytqA+Hv7pim5b/7n7/wmV94M9a9en9CIYjN1djRW5pNdqcooy4WcwIaBN9vbNe4dM8FowKICRtzxOK8fDvvB3/Y9RJm+s7pFpnO+/NsxgEYjQRVN8B4IvvMLbqwWrMKe9NExk2SZpVwvcJPt5cWzYFbidjS1OarpvVpRQ9pQftGElos1u6c7VI5s15UsbIODKF49LrETSI5HD2Qit/z2nmfcb4twMGyezv2Ndn+J77wjjzvz3//K9t19a88Nj3hv+LIOf/t//WLP/OlNyQ80eMzqVP94Wq4fDJePen3l32aam0VUtvB0DqQOonT7BOF4rqVXpe3mKyRDPDIaJBKaQZjwh412m7o9qNgstvvYa4bvB26gB24uXRdxdoVPUdzOq3rPx+HhPpqiHvvIoLyDRVoC1nr4REYYzjfVsBUk9q2a2vobYHeqA1GTQJUJ0k7xqLCR1B/VtNTzcWb5z+DMx+8+oBYk0BgqDp3+ewvvvPW9eaNv4HwPR+vffvmn/3KGw4T9MQVKXJbt2SCBbt68tIqjctanOaEkehS4rWSp1veWlvv1KmR/toM41iCrUsJPuS+VA4OSoyYx7cYV2pHc8LgsrZBGi8b/26c1NcW1kjoYZ7IUX4t973YBs56v/WXRSBW06Bg5B4LeGFwOZPSvOFE4znb0OhqaKdanGtlrZo/KlmIvDe+E3W9Uv09aeuoFaudo5mWcpzzeUrbpbWB8L0eMSKJS8Uv0U6zPS9VCsJU3RwtTXtxua+cEPWeKDTKdutVWFv0s7ppwq36hBa7EIFaCIWFWXBqZA8e9rKU00lCUllmqUAn+TvDNC1rDflue3nNLZXIXYu+alX3Cr4vdZfR1aUWdjP+3vNbl33qRifUkZjR16rupB4afWwVVu8pNQN23GII6nagG6q+AW2ItqyWMbpBvyp0udbGHs/lV7/6zq/+1vkffu5bq1Pjdmw14Xe8M7kas1w9NUUdjqlVzNpYgY7WUbkO3phdNUhtVbtt5kw6qW8UFvDR1JratU4mwwZ3tzSFEYoxjxWC03mKxva42nPXuVgz1PYSsZJpK7Wp8ber42gzVtJJ/b36aVUdcqqnUkKdHzI/ZCsF2mK0WsG8gUU3rMHlZ8qwbQp9MdMqh+DOKYFkVKtflTS2VaeqJNEIq8UnA65l0cg7WjLn4zLs9//oc0+t+dp//Zc/CXPH7dgi4Xc6LE2OkE2p+33l/ocOwnMdezuue7jX1BrO6DT4UGsPoZOGiwr1r7pDmNbdby8hJ0mQSqjqNuV6c5ffeussyduU3N3kznGMCR6+XEXabgGsLT1joFGTRY12/NiqWz9vBy00mqqyW7x6yxS9VZYc3Kiyfi2zW8olTVKMkmSDGwyrSI38hfExlzUBUAUX2lG6BNW+60er60JVaPPz2qWS9P7/+vLpM194Y7u8NhC+l0joNK3CLb/Q50g9LTTN02mAt88Rq62SrOmodkS0mipmbejrsF53enKAoWWjXNmdJKRa2kkiejzPl4/TCy/77M0ck+TDEiCTpMEwJWWhtWp1UdohJLrSFtHodKTp6Jte0FqFKM9v2tTeu9o2bGOzRWWCzTU2pgsr5swa1gpOywZwbdr8FWZca5OJxhaBm5iYaNdn6HtbK1L8Fr/6+nHT3W8g/M7H8Thxj0tpWoQmWNfpX6X+oNz72zb3CcshhVF5vWkkmBYn9fJvf+5nA/wi2JuGM8mIQiw5F7DqpQ/9xcChABotTiDpE+bg1muaySGjVmVkpWpq6B3T3bry13Qy0XJg5xPRwb5qVtdwKBy5pj5wvyL7pdaEIahT1f3Px6frKFB9EzUZreb5/FP9rVqjSHfgkFv33IFjbaVuCNxqwu90PL05/r1PfwkXNC1kaqFVmSWrElJaixUvTsfitTGq7Rp/zFqeWacXJKsqJarUNkGs6wCczwk+dk4XAIJaJhH2+jqE2ZQpj33XczO3ZI8F6l6li5mGasFjyqwJHZ29K1sjVgcndDN0tbTd9FYnGNRjydd81zZLyU/YhdAHkyaXQMQrdPuutn+XnUazt3ENW0ar4gqtBjpS6l2qJFXV/SMAejZb3+3EXbY1MVskfI/Hr37127/06+9IcKClmtcBu7daCaJuWrnaZd3U6+5NXsw9IwwFlaR68idY29on6/yuIh80umit+g5L4XdYMIbVZbve+pJO12dfYuddB1F8Jpa0S6LLApsxjblfzWSat9u6HUP7lIxsYJcScLWNNPhty1BvoCWkuzDeIKaQJi41LgZ76Y03v+3szaNGXXA0nGtSvd6PGjX9Xb8K656711QC1W5A3CLhdz5omGa1i88eYBvAQZS+gOsM6hYuaA0O3tjmaKZ6BRVSkFRS1Yq75WccsMH1sCWiVaUVWj9KuJOgF2GABumCBMjDUCVICkTXMFKaTbcmfvZd3PvVm9s0p6iWoK7bFOtaE1bltGiCzbq30AUHMz4se0FvJ+hMvr1Uc2xi6PV25Z6vbDgWvczUubXN6y+JBBt9aANkZaJuMcdvnKHt2CLh7/wbabIjw6te8WN1KuZVUkBtO2f0rmZ1cyBdzdW1ObFe8TrHL1anc2s5WJqjmlNUOB3+ddgKKhVi2Y3+yZXdDZiUeBhAyVc7js5b3+O+acTRn6Xivi0ttK4pDLl6kF3TsrqtmXpPpuEtBhtctDsEGNpgG9fcctyvDaSGGNVIWC1Sa8MwwqdmCmrzVu/D5BqNcXco2twiTaj94BsMNxB+5/kE6h3TrYRrIIGXsce+z6aU1Vm8Nj953ZXWyFDLCO0fKmd6LR01x6Ms3pbOS+Bxak7DnX6IwBJlIbfnxvrQ+a5rFsMs6py3LR2tLSDdszU5rzd1dSZte39NY8dYFqVtQm9c6xJh3W8jmXtuF0zwjNL19Bh4LAxfrR7E2bPeOcxKBtBV3lZZo9rvNfW+VWPXzlNjsVW0W9f14Jsh4paOfgcIalvPFvY19NJyxXBDfc2eGWg/UhsLT6QmEHpX+94ok/N+RG5bypmtzeReU30BrKAnuSSbq2fL0sEmGP2L0HcGUge8rscqp2pSdkVVEsqPqa1LA9PD3PLD2uT29+al6wQF4w3mguw03ae4eMWOLSZw8IKpMxik8pjnnsOYZ0Bf4dehR7P6pjKDdHYNjGvb1653MRX98+ZBalB7I3jqdt/fIuF3OkpthOu1m1m0yYlhPZfD46Zu631YWAd3WghR6sQkVulhLRwgZrLVyqgIfhhMzCoJm/F8nqcpmufiWCw55MOw9QUOF4ud5jwnWMrw8i62OeFzq4V7ni6qQn9Noe+bmWn9Sr1HZtFzYHFMAkyd7gS2fcdgrSaHdEJs/dU2k2gLcGiFalKbxOOepd9tY47VZ6MxbsjSofGAmbmsZrvMtkj4Ox7rqKuusy9qCKBthy9Szs8TQd/6LYx9mduLQrW6K4Jqw9J2wxj0WtRlgn17u6aIBib5S8zzXPsexoLw8MYWa4lNMOyeFgiE5QHoK9r6rrEBitKie6ydjiZM21dj32WAvZaDRrcIrlVpVYwBbIV7mhy4as16VAGpuvv111Hu5furcAM9HLxwfh5+14K1SfG1w9Ny59VfB3eT05wu9/12oW0g/NdjcI1d7abe9mXSTQXNDMgJSk1sbKq7GUMf5/jsPSgOXIukVSGr6zgz24gmt/qq0ORXLuaMVWcVROppMjFWST7HAazLXEBqSaliue5cw+i6EeFJHWM0XhndSWPXUWQbXZp3A9HdG+u3/2sP1oRAGzakytx56Pw8VQR7G2vtdLju1qn82oDFLUmZQ9Q3ah+4zSEqc2YlytXSRhgsaqttNNnt2ED4nspCNRR05HOZxsZkC5SeFmaJbXa/7sq+D1BK1HYrde15ocQ6yuk8g6UUDKDSnF9784yN8djTFFPqclRHCZOj4zbCqCUmvWTCdJ2uPvS4G1xcEuhmlOi2FTX1fknFWpK5d2kL3W9juq4zCDXbLhqjl1luLVaQn7Jd3ipYRN+bJqAQiIYmI4bjr2kuGtrneb6XBoDT/mxtljZtlGhcc+E39b57uh0bCP/12ahc3koLq23Ni2abXgJU9gF9CwmIWvhpnbUaKtm2Nxvaw6q9k2afdp9GVrtqkEqc5yR/lmVt+3PAiCu8uh728hJoiTKEndDJhQzV7c2bpzAMvlMFUxNFaAqKdm3bm6Zhza6kMtU6WVo5VU4vyH9hmKpc8uJDyMf5+PQUl5hmG+eThEpqLBgPLdgC0P6iMdU7kN3sbrcbdt277j6mbSNdt89olqpLm7izqcAQuW4Sig2E76EkZMPfNfUrqzpnuX5TYkMfUok0ES2qGHzOWlZWJzby3guLnGqalONCkVNQNezQu3xh8240ZgjOpqIXq4CH9qHwF8SKFpqWhtU5hmJZBmSOG7RN2ngC6wyxmjYxfB6EtVPCpJGzzQIX4PsqTlHqbL+/dF3EAjeS14DPZapzUg//gqliwf4YY85c1uumcX7yyiONeM61ruya0pfWY6YPsY4r7fP9bNuxgfA7p6O63oixpawGFaacb0/hai+RCuL3ujaWrXnXmO7ezsk2EYYi5jmNEg37wk1Mjy87NBgTBw9QJGBeL885zyUVB2TSAXHdlbYO6UGFcySIQlhcsi1KA9XEUkIV9vze01OceW4GVVctIRNsp+qkYoOacXhav7WbQeDel3xZAb3aclHYQLGKlWdNU8qlwU9zBnW4wX3GPWfLoJXFrikWqjGtrtuumA2E7yUSotbzkgEaKb0EEGmJc5Q/WLV09+zGuK5EKzkhxudNOlsIDAzEdLy2tiEz5fPeNKIIMjK5dmOqydsRO3zLfu/HMVwM5rBzV4e+69y33pyvj/X2WI4TLKYQXF1jZpPI4huuEXYTJw3++UzQqWI+WY2o600CGTb9mjR+I1fWqT0LRXlL7NCU+zWIWM29kl9se6gnUJ0u3/Zdk92TmIqi2bXsnPh+Thlt2XePeN8IfVtJuIHwPQRC43e9JHDnm6dHQA83cwePiHGXud/PdNjcshK42Qgh94y9Sse2xf2YkDVmZh8/4izYkiaJpqvLjB0w+wFmM1IBLrk+O56HLmT6mgoI40LcZh3oOSS8iJdRE2Tj7hk6NFfyMOR+nuu5RAttb1pTtGDvpy+Ik4mWccmz4Cxw98Z4cEET1Sue5Yf02LXUhIJWWWxk1Uq4LnSUKetAQuWULeazLXwfCvGIPrjLy24+nfuhGy9C2NoyGwjfyyGhogv18eVY4PQ7GNstMWSOmyN2tlcOKu69y5vHGIJSs9q1EiqNkpubL5OFBBbJHRstOFKhB8ttjWVhTxW+ivL9xeBPMzqjA7flLm6Nt4bajoqNoDi8ThDWrd2+RT6nHaVeA5vzQQ2J0U6xAbrDDncQNFq4jxSNFldYfA6u6wRKgkypXpu1VPC+88rgBsctrCQFRGBINLxn+yoXsGuq5fan2uYgJgtov+tDV8ebd87P3jS3l4P9YB82isgGwt85HeXNXS7EEPrHjx/Nc4kZAroYTcqeKoMKd9vSZLBqO8/lKhTaFQ7vADnuaUix0sG3SPFXz4AZRuyp5lNOE73YEhZuekBNgs0g+agvXUhSNBa5qpERnzsfipwoLYIeeYd3p+tUl7zYdDZ+MHmOiL+ezaIsuaXuPKu2NSadrpDo9jsJY84P9B7FbutaVRkhEbLDk2xvXA8QeXlYr4m0C6PvujCMrhtoGNWD6gbfqN53ge1cejNyEClohC8jzTd0JuL5CuPYPTo8CY+Wj7w0/KUf/Pg4bFfdBsLf8XjlA4fHl+oZUdQLkKahxoXiYk0x+xKlXCzIygQZUf5K5ZyWJedTFJRJ/hqnkk8ln7EZO8daY16ONc4Svjjir84jG/VcpXKxC1cXfQfaipUQ8fjFF7vQv/DCxQ6NU9sPw7N3noHwGfz1s6fYfJjj6RiOx7gsy+3dJIhYAEJEKEl0pyWezxOjYuj67glt8yUIO+uGIcvHV1cvgLUTonMxhBFevTB2O97cTsvSzdHOMHrL1Y2xhJyXHKOOSUN34fudwM/3Ar99GC+7/tD1fdfv3bjzmJp0Pndy70qlM4LF0vnBNV6dRav3z/3AH/wrP/jJ7QLbQPidj+/9xAf/8r//vT/x2a9KFjaOg4Su8+lsJBzZ5HfG7eZ5itN5wtK+42m5PR1Pd8tyTMtU47MUp3Q82zqjl4jR9uKHDnszTYKxmoQ4xisJLQInrENyfrfzT57suUrJP37ykrwiLnLBz4svnY9HH+SDF8/TJHFwGA87566vnwkSsEApm2GQG0Aexl3RXTRy/l4yz53cEEypu123vzh0WF4BH4urq0sB6ijHbv/o0QGrETvB+Fiwnm25O8W7k0C9L/5wOucwhMcvvCTB/ng8vvPW269+4zemSX6uCWvappSnYbkZlATbD492+4tHL8r/H19eHcJwIclrLG5JvTO9q+NwMe7ldfDzb8OJDYTv+fjQBy4D1ptIaXeq8Xzll5efSJVYJHos8/lbp29f317fPjvd3Fzf3Lye5gUt/zRZBz+mALY0uhRDLwjqJAgiCo2Ds+/2WWH62nUF80FoKSR6Hobd6XxzcfmKhBdJKQXnchwue0p02zJqAdPQ9dkvs6VfPbRPkClwXSCW3YPuGQxN+4FUzi0lfxwE24f9JZor6BJJ9C7DcCFHTBJRJbB3u8NYfB12V2G4nIvEveEP/5FPXUk2vix3t9df/mdffvrt10/HGwwZBIOzJNJ1mU4SjafzW3fXr863Pj2+7F758Ec/8cn9vofKEWXrUKzcm1w5j+PVxW54tF1aGwjf69F7M9ojFoMNaXQJCR3l67mUN79987WvfOX66TeClXStPA6p+syRepdzYCO006WeOgCgdT09tj34JlW9BOX3jgAldRYUhhLFxmFHjZ+dptNOguHuINjqh5FiIrnuE+OnF8w4GBZK9jfElE6nk6SS+/1O0llUqjBpRP68I+aHLlC8lCQCS9aKRTTYFeyZuBZ5ridBW97JEpOOViTSXY5uPwbrx5ubG/nWbjcM/bDfH+aLJ5JX5hS9NYcsd4xB7j4ocGfJC5a7402Zz7/5ta/eHm//2B//Y+N+5KKZ5GAcHiSLP99MH3j00e3S2kD4Xo8/+MlX/vSf/MgXv/QrA5oOge6jWS7iZ0+ffe5nfqr36dF+kDQyRYkTXUKMUmkPHHTjkph1YYwmX2H6WdsuB7XczVlik/oeDX3ng11ilFCFl6iYT1QHvOWUqF7PaLkEx+mDFbDJnQAA9gsK0mUZBijvY0yU9laOJB00GKUN+TxU+ehX4h7QYc4nqEK3ttTb27uLi4M86+Ly6u4Y5TYg9esy33XmYuzt03feevTokZxd3kmh/lFuNHGZBFEBHdSK4T5T64ur/Uv1Yrcfl2n+ws999hN/4JOHy4MO5flG4m6wf/JP/IE/8j0vbZfWBsL3/EsJ4Ud/+Ac+8OLjX/zyr1zf3KWU7knYH/rQh1+4kjTyfD6dSGjOZik8DKnebBN6sDwhpO8oJtdduc73fZimCAgFx9Yp/ief4mItcdxdSLnWy4N8kFw0x+RU1+BDiiUtaKuQxm2klrN2log27sbQ9VU3XtSk3sKQ7SVDa3AAz7nQS0jtd8hpY7KhSg4Z4JUjNWEnkVYKQ7yIx7jDu2HONcb5ohuvHj++vLwIqCm9ukuFDjpIzi2N1Kj90Ms9QkAYMMHvL3e7Mu5+6D/80ccvvMCB5v/D3psHWXbd52H33P3et/c63dOzDwaDhQAIkCBIggtIiqK1QBYoKSo7suKqWIkr8iI7KclRJVaq8keSSmVxlWU5iVR0bCWsyLIjS6IUiYIUiqIIEABB7BjMPt3T+9vf3e85+f1+59z7XjegFKCkR4J8D4eDntev33vdfb/3/dbvw+Z8q1k/d3rlgXtOnlzpVNdVBcL3diD0euyRex7+wF3bu931zd0r127ud7uaNvfoow8Hg9v9fjfHsqejaXGeS2NeuU6Em0pYWaU2nqA91mLTgpQyqAqKxUYbpWMc25bL7NiJw3oLXtFAonGEnk+1Wg1dOFEeX4OsMo5iTTYlga/SCJ7Msi21L0holdUdSC8ZtgpMEqcxNdm40JQCFNq9ZJnjuCZZE8LDep43HE7gQ54kJBRqpVxYDuSRmJoCS4dxUJhX5G7NTcIYvkq+rci/4fuD7waJUYiF5fl2q9lqeseWF9aW548vt2q+U11OFQj/PySHtnni+BL8+eiH7gvCaK87eOPNy09/9TfpbZ6wqhTTGLUKMynYIsp98ukqLd6CSxi4hoBOhthMow4+ymigghuwVBwnZqvdQpxlXG5pAA3RIAv21iFJg+eF/C2KItN0eD5RqMsy4lvaVtRKP1CNZtMM8rEAaFs01cPxHwaQn11vNICpanU/Bw63TZFCzClMtA2Fe7uQ+8VxHISBK5w0zU3KZqWQnGXbyoJCujTRoaVLvPFjH773ow9fwPXk6rzrU80uvNvje+7J48sffvg+w5C6SXKwW1eiFNJHU3n0carCGGqYRgOclU5jOFpjklU8+atxClwZxcBAJw5QThRBSJijfTzapOVezQdSA1Kq1ZuAD4hFdQkJnErTSThGS7NcmgZSXVTRlpwghwcF2ADFGnTgH17NA1BCaurXMKEE5KRpCneFTxmmLWEPLwnoDkNfGxBrYU0KGB/ePiAjtUw1TU6HxDUIjbgSyebbtQqBFRMe7YHL3UBe4oQ9k0lflGJSmcJYHa5jYCfcmTflp3S5ko5LvShnBglTjj4xOoajAJ4cqSzHkkyOcviWpddqTc+vyWoKfH0ySWJsWMTAs2maBJNhMAkz3C7MpENEhuOmQirNoKWvia73cGsUBcB+loclE8sB/rPTPHGcZg2BbXiuB8AD7EdxkubMs+ww1pIo0jFSxdzSdV38GtuVNqT4SiEVtE0qFmOhVwrPaUS/Bk5oi1nztupUIDyayEGqSgu64nHeElVvdTKvVeKBUmBGLidIYRUtk/K7OIJN5keoSIjbsSJmzHXsBDK8ING10HNtgNr8fBsnYzJcl5pMEHujwTiKQp7hzXGSJPR/WnTQ4aJPU9rl16TjJ421prkDESb1Q3DCZjRIgD/HRg1rodoe3w2D0HWd3v5+o9mo1evw+JMw5po+nmCd1W0uMcsLgtCxjSxNxoMho0XgOEAvlzyNGOk2qlUtsn1SfFitKVUgvBMFmxmJeUUCTKqTZWppVSqqyR0nnCtlJABV2ErnAgI8ErnQ0gTCwGyu0+m0XdKMAebx/ZoLXwbsA4iDtM3z/clk4gCEaPwa196R/XgYhjgxRzKhURBiHmcAf5lZHhOzYuMRaywYTVqe55GSGqZz8DaRJpkHJOg5pBYF/0xcxxGaDXzYbnlBmDIWx+EEnnpnexserbvb7Xd70WSCk0MMMlfyZdQtx7E937NMG2kQC0NMpLwaiqlAeORHVj5MSq447T1kOsaCUpYb944YLuwy3azbvmkwSMka7Y5tOz52IOxaDYdCHceBSA+SK/xsq+V6DuZjWM+0sWhqmxAFAq48ysoAqUVts9Av0zRWKLbQ7jo5FipHJOnoItVQcQkDpXCEFJgy8J/4krGhgag1MdlDWGd8NAmwLyKMGCdRLac+X2t14FGDYLLhO/t1Ownbg2E/DCLg+SgMcSFLADcDhDV0MtWZaxu0CVxdIxUIj/jgBAp5ISHN5djlc5y2s+hjU63ZbNS9drtda7b8OpGa7UKE6fo4EIrZF5YmkThN2jmgxSKm9Dnl0pCmA4AhBwOUkqKLFSfBeDyiELdQry68qrUDzitT5xZWenNL4cFCB1vpyshiEmOQFiqrUfqmxpMA7Sjkiq5gfq1mW7pcQ97tHu/3R4C3IIyBDuM4GwcQ4U6iGDg4guwUPoB3oDSKcAYgryLSCoRH/fMyTMisFo8dO99qLiwuLS7MtTtzrSbym01ExqYlUrX+riltFWlviAeVIQAO2VS3Wm4b0NY5VkX1NDUg4bThvxn5vBeOaAXqCm1FXS4wygV5XXqzTYXXSlQW7yCalDpENccMG/eYN6ITN3ElLkxqaroVXoglxbN1faFTs22Z60rfGazKYtKK03lAldF4PO4Pxvv7O8P+aGG+XV0kFQiP9gDePv74JyDL6nSajm1QNQKHNjldorjakCvfslz5QNA1rZNZmjS+LyylC2/Rkt6Uv59Z+BtJ8zOC2aFt9FJXVBQ2L/gXSdnMLq4fCA2LZ5Ii2aWxbllwInAKRaGqxUEPgdF2LjT1bUmFbykPrHs+EL7b7tRPnIQU9xQA+/ixueoiqUB4xIUZxlZWjkkPsCTLiohOKPvOwrlWFEpHrNi2Z/qszpiYwYmy3WSs0HaThR1FO2pJfeqspJVSvEpOsBQdLFeFWEmGs8CVsopF0EpDbYbs9RXKiFIihtQtDhp6ohwGL4Nh+Y4B/8ZOZpLiegeTDt6MxUnm2NVF9d5O1ax/zzDEzQTMfHJWOthr0gBiRvBXP5CqFcmX0EqZ3ql5dimSISWiZNUHSzVaKRHItBm/ztIY9ABDclE4dU6f+U9Uc9HLaFUINsOZhZMSmvWKKV4PoLkUsYJrB+dKyZK4bN9XbrwVCO9MfVTBborBKadNnZn0GeJjUxFgVjjYMvUQM8CZAoSWozTp/XJYqHMKbKaXM3HinTdm2aGXdyCilbARBf4loRfeL1NRNFHYSMxgVdmeYimpmB86yPDVqcLRo2RCEmHimqZrB4XuZy7ZqVygVlCioSuZ3fKKR3nf6VUrplCk4JMkYnTcWZIKppRRCqlsXVCrUCYQBwA/GzrPgELMSmVPPUulRr02y7aFn9kMRYqpo5PyIpYPjPoyXE9V5YlX/YkKhHcMhaSqWzDU1Aaw8G2noEz9k6ZJ9CCIBv3BaDTOUd1eh1Cz0ajV6g3fdWn3IC8grVI1Wv8lrzI2nf+Wor2syMiYroLe/7fXqWYEpl7Z8j1kljZl4YfGCTReGI3mNH5WBtFsNotV4FQdSzJ1YlqhrFg1CisQ3pl4lIkDlZVCOb/8NFN7DIZp9PvDNy9d6u7vWaYzvzBf833LsuDLh8Phfrfr2i7cCIA0jbJYimvEJNerrHYlsRae3FJh/1DoOy26SJ6Skt30cGI21pWvU1KgUAPYQntbHKlsRg/cKNjsh1MzUPXIuSjMLSoMViC8g7l02RU/WPZkyrodoPPKq6+/+MLzK6trD3/wkbn5Ods2dTblTLQfjOIoCrrduFEHZnRp6oVW4rmCh1pK0sSBaPhgzqcfKNvMvB6hIltW/F2GnAWSpx5Jqp8/k9MqzdQCkzMVl9IJXMiqaZpl/V5fvndonUZ1cVQgvAOFGVFYm4i3RYPT3Ombzzz35muvP/rRj168+wLt+PHC1l452sKNALx6zctyjlMnceq5unIA5EIOqZkohKFiv+LSL+uhKl6U7cEDdSPVyGDFSxWHyjSqj1IiUxyo3LDS6HMmtWTKfVeZgFN/lKbSdeb7XppmPM+SOOHVDHcFwjuRE1JSqNKradO8dBwC5Bjfev5FQOD3fO/3njq5EoQogEHDJyWfCIMKmzTYieuFzbovoSJ9/3RdU/1AcpYXWlay4gHGm4WkcoOYLcMo71A5W6MeobSbKLzcClAWpjGqfSLK/snU1nCa904DWvimXMcKbZPzwoO0OhUIj7wuM7V/ZrP5lKQKy9Zv3lx/5Tvf+dRnPrMz9i59c+vR+xctI+daHiR9325jTSfPX/n13w5u7hjzjYe++AMaLjRohhqUQSM/6TQms0EAZM7/hOL/tHiivVOLYpaoi0SvyOi4wjybaS5qqmtYNvzYoXRRTCvAQk7eHHz8yvfsT5vbVOe9BqRsWpA5OJwJP844SZ9/7rl7739w6djpX/y1jZ//lZ0b24lrWcNs8/mdLwd5HyufWbb3h3+09ztfHTz7ItqslLkXPfi0WkIqhlQ9OXx5I1Pp5JNb0CB/5xadXK3QpuApSHT6BUwZ/bIiFZxNQmdpcwoyQaraBSuyMiSo5H0rEN6RWLTokOtlxXBaYDRN/a23rgCsHnro/jBKB4M0zfU8FczMr4++fiP4364O/ogmoE3dNvMiQ1Q+89SwO/Rc0wLmwbTtbdGo9s6twhJyByE6Ha9R7ofTkVZZkTmU6oqikkrijmVp5wBNzrRqqlOFo0cMQtu2gjDV0H9optZJH6VpdvnyWxcu3mdbRruuffFz80nKzhx3BpMBE+b59l/TNTvOQ8s0T33f96QfG1idOcwIRdHZx0Z5YRQsrZUUWkp2ZCX3lssTs9BCryW98CnVykFtOTh+KIB8W2xbpnsaKzPS2Tz4bQmpmFKlJsfTq1OB8M7lheJAV4A+BDSt39pOY3b29Okky5mWfd8nluH2PEu57n9g/imTmdR64DkTpz7xMdMyeIbiFFgLJbcxXM5FCVCDSUNsdVmjhLcmdynQnhPvl2XiUNaHQzlMT/OMzYxxk6c3k0L6hZuvtLE+nGMqIY53Sj0lpIvqqJiNnkQZtzKhEsqKCCsQ3vEijbqE5R7EzZsbx1aW63UrSTLZNBdM0RBxheQm3HnP0yyNEjTFpmVewFcwDlCA1IyAa13bwp1eKeCGn56WMUejSRzHnU6bUGGUL6U/HGdp1mo2sExKg57SAhvIeTwe8ZxbtlWv1wzcr8enY9PljDIOLXNDph3qGk6/32JfpKjrlGag8vN5nlcXVQXCOwC9A1208uY0y3vdvXvuu4d2LNAx4tKlywCJu+8+D9fpaDB84fnvPPzII+12XWfmrVub33zm2See+MTCPC7gRWH01d/7g/EkqNdbT3zqk3OdFvbfvNrW9pYLiLQNWUeBnPPZZ7917eqNp37oB+fn2rTmh0Gpqevf+KNnNm9vPvXFH+y060WHXbt85frLr17a3d3PM+657sLi4oXzZ86ePYE6cX9CXFquQdEAuXZwJm+aImL99sDMtgqBU7TNqNR+q8LMkdMf+RUe/NEBZiaTIEvThfl5WXe0DP3SG6+/+cabED8C4Y2Gw1dfemU0DAwSne/1+2+9eXk8jiTZpWmytbmla8bqynKrUUfZJIwhc0DRSy+/wUWp86kNBv1efxCG8SGemgzH/f4YHkc2CE3DuHzl5le+8vRbb12zTLvVakIYfPnS1d/67d//zkuvm2RoOpvoFstWRUeeHSj56GqqRs3ZML1s04jZpZK372pUp2LCozokc6/TULRWCi6NRmPTNms1T16YXO6hk4W12jlAce68HOZED+qiNYHavZzfdeHCJx//SL1Wl8r5cJ9ms/n8C8+fPnNirtOU09tSB4PuwA/UTUpaVjOj4pXXLoVR/PnPP3Hv3WfhliiOd7Z7b12+5nueGnuZYTblTj/T+WQz/Qk1iyAXfmVdWGj8UOlGxabV1VGB8I5gkJXyLUxt2QKfDYcj1/UtU0+zmc1dCSdNJU+i0IABCCu1CYUBbqJavUEEqJEfEyqmLS4uwJ3Go/HCfIfzrKy2FKu+0+65mjYtxtAgfA0mgWvbd507Xa/7cZLZtt1qNs+dO4nEm+W2ZR0AISvG1bS3rQMXz8WK4pBEWlmaFeWu8oEp1+pU4eiREuGhPIk6a3EUe169nLGUbCcbBVKPULUFBX0oG/CFwgxgFUBCBZqcxO0VD3mu47keCUdQd16TFc6c59mhF1RsNqkXBhnpytJiEEy++eyLvf5ILhzlJDAlgT/lLDUpXsrKqFSPT8uvReWFixmUyVcyu+9f4a9iwjuHQdmnF1K/qazWJGls2Q6JYedlZjWd/mKSQHgxWk2tNy4hx8lSE/I0Q4WvasNQcx0njkMl24ZDaiUOSeWm2CcsVt15CSsIbx988L5b6xvPPfPsrZs377v/3nsvnm82a7zQlJkVTJwuUsiHxaopWazRti8v0Mlnx9b4ocEBVryxVNdHxYRHDUAh0jx7x/d8aes5/cEydamqwRjVRdOLAqt0UpLSSvivLEu59P6bKYwYOmugdv2096dWcxlpMfHyVcnKDS+tIPIsn19oP/n9X3j0I49MJqOnn/6Df/V//tZzz782mURSq7+8Z7GbWEpvsBmCLGsuauBtZkiIFbYzZM0m1yhZFY5WTHhHQMhR35qJmbWJcny5mLtmRW9cdvVlD44roiqnpJXODJOQjOOIaUYhfKYudnTftqUNk6ayMV3tUhmGkZO2KdNnVNTEtE6S53lnrvmZz3z8/vsvvvbaW6+/cenpp//vN9+89NhjHzp/9iQXXIgSWmJm7EethJQDCXKpapbzVDWVl8u9U/GpigkrEN6Jo6qCusyC9PLS0w3pVi/KnHHmwlRGFHqxgQ8RqCDpaylEQ14ytmEW4oW6LhGSJulgMCRnGTQgJaYxONfLNr2aXBMyiRO6PosWxsmldGlpYXl56b77Lr762puvvXbpa1/741artba6VL6tlKpTRd4Hjz4jSUqLVZpWTMEd3N46eCoIVuHonfmRSfbjBptdFBKaaZlJkpYlQskuuvKMwFtoHk0/UNic7mJIYzMNXUTLPjh9bjIJCsoSRZlEyp3KGThaoCAWJsRpM6IyTOInRxfEfGlx7jNPfOyTn/xYEARbWzszkfO0BjqNP8UBbtOFdlCT6tAHGqvGtysQ3tmIVNbruZi5EOFGz7HDcDwr/ldIvwjy02asFGjDSqaQtQ4FNax4QrKZa4e0XTRhWQYr2nA60/2al6aIInS3N5lp6paFztjU9M9nOWk4nuzt9Rm6f5qk6o2KpstL8/CAUZywoiJa7GochOOBCoso2yni0J3Ua5cT36JCYBWO3qGjLkZUlSDNs6Jt0Gw2r167mWLGqNF8ptBEKT5PksFaNiU4oUxaygCPdFx4IU6vio/AYNRdKBNN7ezpUy8+98I3vv5NuGV+rikHr01dD9GPRedcPZppmM8+89xbl66eOXf6+PG1dqtlIVEnb7yBm1atRn12FVKJPhUCVqJIQEXZO1Ti3IWGHGaRB6a9ITrIDooUV6cC4dFyodSLmB2/hCu70WymSRIEYa3mkjAu6crkuWQ9WUYkxfhiSIbcfFV9hxnkcptPhbGlilmWkwmuoVHgmaTpubNnPvGpT3zj68/81m/8DnAhvAkAdBnuVeQOuslPC0hra2sbG5uvvPzGSy+94diWYZjy0e65994Ta6vwsWnrh8JJVq5TzO4rlxJRqlmveFCf2YsSGptZbKpOBcIjRqCqyR9YqsdLtlbzINLr7nebjeM8R8nCE6dOQZSYc25IU5giswL4LS8tfeRjj3Y6TeQuxms1/4MPP3J89Vh+0Fqs2WqcP3+h1WzmZU1V0x77yIdWji1fv3E7DCOBBdUMOAyeqFFvNho+2dbjNsM9F8+dOrm6vrGzs7M3mUyyPPOc2vLK8vmzJx3XVJpw0ne+WJqnXRBa2C1Krqq4W9aTNK1oMR6QuREz6vzVqUB45NEove9zprbvplehbZkLC4sbG7fPnF7D0JPnDz5wH+IhzQ3HlLKh1ItnAMuFhbnPfvbxPEdqgQeCr/3IRx6Gi5+M0CQTIjwcx3nowXvJFJFrpZcS086eOw1xJuGIzXAZQ7PsYikJ8Ox63sW7z168+5xEJlV0sAsvvQ5LqVMhpouBXBSzdBQTm5qq3irFt6lmPiO1tWJHUa/kZarCzJ2vznDBBJtlA7iyT548sbV5ezyJmOoVyDyJUyNNcOX0yTUFkgMF/sLNUMwWdYRSomCzS/Rwa5bi4Bo8AoATzT3RghfDWSmZyIseOtyU0ZHKFBjvyiZK4WQo0UvQndY8y6G5EpZqxodryjutzI2LwsxBO43qVCC8E2RYGLdMA1S8lJeW523HuXrtJjAb9Q7wijct07LNfn8C6LMd6Uami4MA1qaIVZL1mhpUK+7Ay7mWIvArxbM5DQKU3YoylGSz4y8zfQUh0zl2MMaezQ7ZoeBbKzRsBCvGtA+MeU+HayJq0lSnCkePmgQ16ewwsw+kSoamaV64++6XvvPi2TMnbdvIc9z03d3tDSfjb7/w7cWlxVarkXPxtr07RXtF3jiFTWHoeUhgZvZvqvtob4f0n5TNMu1QNWbquDTTf2czeocHX2y5Z3FwtVkoNRteza1VTHgHeFCyAZ+RX1Kf4Fmenj97qubXvvX8C7puWLa+t7f7q//yV3/r174SBfGHPvxh17Wml2lRauHF9BiBmxcVSVZ4WuiadtDK8KAXRTlBylT0ePBFTe889QTWZmZH6UZ9Ri+mMEqc6scol6myDMqKO8+oJjLtbbak1amY8EjDUdV4Z4elAZlpsI889uhv/MZXWs3WBx+6t9Fo3nffB4Bqzpw7s3ZiBVK4YtdJCfEWwSeT2w2cZjrLpd6Z0Wox7dIpNLDDshNF3Hig2a+8zA7EveKwfoxqO8zYwxze2IVvIZebFILN7PsecFCb2dCvTgXCozxEXDldgbp2yDWMocP7wvzc448//vTvP52J/OEHPvC57/pERhraRD6MpmfKSxX18OGzcRp7rjOdZCuwN8NqrFTpLVNCCTdZsylNurVDlPcO7TtZ0lT2oEUr4pCCqEKa0nuTM25UmGHKvH4qbqFqpFrVJqxAeMcieFpOmm1mHyxs6FmWnz93iotPf/3rX+vu7j3yyAfnOm0ay1ZlS1wepAs9SbJhgKOhtZpfqkMwNnX3LCY8FQILOVDBDoajTJdehKVu72HUCTGbBAoZjgqKSGe2eYX0G1VzBTMlF3a4LMUOCmSoag2rspsKhHeqMMNmQrK3BXZ0vSdpdvbMqfm5J1948Tu///TvLS0vra6e7LQbtuNinzDLkiROkzTnwvfdTqdtmeY0vaKGXlmYmXG6lwhG9iomxNlsrYSrRWL2J+3WzjymwrM+8yl6Aq6kGcXsEr0kW6y6ihyfm0u1/iIHLJqNmmVq1X59BcI7VZqZemUz7SAZqs1WgRNnzWbj0596vN/rrW9sbW9t7Gwbtu1Ylm1aRr1eazWb9XrdMo2DCdwsZjTZbhCloUQRKM6qgkpW1afeg+Uy46xqky5ka78szAiuzdRDZRWI0aouOzgFeqACPPNOUcycahzC6Tjled5ouHFatSgqEN6xrBCuYUMI8Q6TIqxc46UZtHZ7bm5uAZeBqbEuRy4Nkv2VchKljUQhg32Au9Q4i5pXUfBj0+IlmV3ruvZOtDwD53IAQJ9BFKIuP9xVKCfKNW3GTvTAtyc/w1XJNOMcAux6zbNtm1da+BUI71hMOk3NZuofM1aeYvaiznG1QgDwDLXxw6XDZrEli+gg8wlJVvq0RIlTKgVLzWSHam1frsXrZSyqycHxd8fmbFZpRqjNkEKwTS1WMO2AFbEoU0iNFVVdlcdibJtXTcI/XZWh+hH8KUGoH2AJqcQ5rYEc6sWTnsyMotlsIqbxKcVpYtoeYOWk+IEKSFmFFEXzHRiJ83K4WhzwTizueKhEoxVKNbSjWCxVaWVuKUdPZ2hPKU0V5VCNy3E6UeodIiKzHKi+osIKhHcCf3T186Jtf4BdZtOn2XCxBAMvyv6HZlzkTKmYTQsVWU3llA6IyJQVTHEw7Hz7kVvFBwLKmf/oBu55TOcOhFZKAZSHBs1Vriimr00jdWOtbDOaRnU5VSC8M2UZqsqUbkRqtVy8LVjVSkNNWflnhW01rRcSKtjBtaAyji3ptFx0KHGhnk/CbWZ0DOdu+KF3irelerOhNI18l0w9/RJ6oXxmAI3JKo5a8y2XmVgRvpYTrxgXGJVPaJUT3oFD3mXwrm8o4Xcas0Z9+2m7GqMySRwz4rmlJTXBuChU6mwGrmrBj9Mwp040ZRK+pCKUKLK4ko0KuV/ZQihzRnUnVjxm2ZYoc1m9yObUdySns0s464WVofTcwJD1kOoi1W3J0U0zdD3HHSnU2uB5dUVVIDxqGmTa1WvXkji0HMe2TDQURH8XFEtDlSadETY12VaAC5RUfU1qzjNFh9Ox6dK5U0FRoNKM8q1Qvx6TdJ8SNCQ1mDEbTlIff6oUKoqBNfYOI5yskNogwX0UelPjO/LT8I6RF0obkl45y1mWkRQ/PnQYxWmSZTmEpYLnJN7BsWKUC5YKbTiYJGFg6hp2KXy3ukgqEB7tGU/Gz3/rj2/dupWlKfAd7gTChZhhLYNnpE9h4IorfYLbloO0aZkGcYZlG6ZhSV022em2bRtSMs9zAbr1muvX6p1Op15vLi0uy1zOdp2bt25FQbC7u58mcZKkXNGaXCDU5PQpoCOnPoGcXbNsB56JCXoLkBAlB2DbsnSTwZO2W2140nq9XvNceDG93nA4HMdpFkcJ3C3OgNYNw7QdvwnIT9O02+2mcRoE3WA0wQkDLMHqrldvzbVdz4miQOdxp+G22/UPPnDvmRMr1XVSgfAIz7VrN25vrA8HY5x5iYEfkjTFj/KMx2ma51lKLhHILYhRjh5nOuOIUi69lLI8AWDKEoxtO3BPx3E8x2l2fM9tLi0vO647N9cej8cAsEajtb+/H4XhrRs3h8NemgL2iZKEiKMYLYANg+eyxEoDnSQDYzsOPK+JYwDIvhbJrWHhxLS8Wq1eayyvrrZaDd/34bV5nhdG6XgShgGgHBCXJ/Cods12fa/WsAwX8L2zs5NEcZyMsjRG2RwuLNvzHXzPsCwU0nFNvevbtZoL4UAFwgqER3s47qqnUm5bjkoKjNn0FHBG2SEKD1IUB0mj0A1OR+4pYaoIl7cDlzUJ5lPcCnkUoCfNsmEvGOlBt7tjWZ5hsMLMyUjiKCflUPxqRJQttBS4z3aAWKW1vS6fBJ4C7gnMhlExujvpZMGN7wNYeM2JtieTMJiMxhOaXzWQMy0rQ3tdeEoMrRHfyKUuM2wu9IwcoLhsbtK8KaKb8sAkz8aDLsTLpsUEfhv4vtTd71cXSQXCowYhJEUQ/wm5c0Q2uRb5uhQD2LrsyKuavkEBIX1sll0AYCR5dxOOQWmfDtEd0JepqR12tAnN8hSgClFfmsaJiCwdayYQBcOXYNJJIzvISnkOWadBgmsW5KkG+d6T9yjxMP5N0zmZTDLhTSTLEhxP1VC4xhSMo8gNohUV/jVMZA3TAtLFBqbQsbwLYDdkUwLNcOCNgDFpY8qkHxRgEEcRdIy9q4vkvZ6qRfGeCzMk1kIY003UAAZQ8qlJZtHvnq5BTHd4C9EKquUAoUjJM2oA6ELOdupUcCxNLSjcjZFKDR2SsTQD+IuMQ9SbaUytBTJTk/JQCGdDl7obMm+UJSJVNoXPmCi6YZiO1JsyCToC3ylQm0MqdmOVSNfzLCtLtQxTQE5vJeptCLJHuA0zYMC/oTNZIhLKw7S6SComPGoQ6mj4jg4tiSZ7EShkxqej0PR/OTsGEaRGJU26vmURBa9Vg/hJ1R5JGBuizcyAGNWi2qXchsCL3rBtim9T07YhBSVZYWA+SDg1qsfIEW+NTJ1yWd60iIu4JhGlGg060iOEnRn5HOpFi4Fx4nBBVhjU0tQ54DzLLIxpLRwLFcC9MfCoLRwiT3xVAiBrZMiIuk7zcoYcWxcaq7SeKhDeARDKtUBOGEuxp0CDWnA15rzcLsRLEQe4BDBMLiNSKRZI63p46RMCJVAxSkRm1E3MNjVu2TWgSVx0yvMwCkbDcRiGEIUmSQKPBnEhJmaUCqL6PWSeACRdCTEB9HICKLxREOca9K4B94cw1aQNqbyomMI7iHAcq1ZvxFGsXL/RMNgEgouSMAqHo/5+EPbCKAa066bhu67j1B2v7dRayOTo9m1L9NHPgbEKgxUI78zB0oXgU5NdwJuaqpSdcS4vSYJbMQwKQSDVRktxQACYQf4QgEbpEyOnM9MkS+NhiBWObq83lL0HIbt6M0poumRAojs4nut6nkuciLUhjkrbBoahWcqwJQE0CHQKYSyjGFiTNRh8L8iB9GwIeknXFPsSgM3u7tZgsLO3u5fEk+IFqAkALMOY/tzS4uLyxeb8kmnA60cVcFIO0Og7qma4KxAePRNiQsUzphXC1RCrcdJeQQBI2UFOqZMaLikm1lQGJ4phUEFaMpQG4rJsqiXDQbC3C+QTKpAzFMDXhaFGZgqfCumpRnPfjDxktDRNgyBAonJcwKBlApFy08TXJqUQGRKgBXmcLocJilE1gG0YTICBccrA0Af9/nC4GwYBz5JOq66xOqakSRYFUZ6nZO4ENDne3ph0d3ZXTt21duZ+33do1cNQElCVxEUFwqMHIVxoGQVvqk5KOAJ+nKrKT4VbhHS0zanYYaDDIO7vKTrEugi1ELIsG43HO9t7aZoD6lpt7OABkHLqCcRJAtFoFIaQ0WGSKQXY0Lui2NxlmJomHDK1PIoS2/asVgMIjGGoWq5UyJqLAY+BpRfMSg0TG/cuPA5WOzV9e3trPOoD6hv1OgWnmTRdk99RluZhGO11B0kcwMtKk8nG1VeyNLLvf8wwm+j6RFFABcEKhHcEh7oiE2QPaiRIvJUigrxIj2T1RVkbwY0G7hzphe90hvUPO4iC9fXtJE1sy15amndcR1oUyi9PM+46nuAYuIZhoIo9XEy1nOTDUaQL7wkpT5Gr8rzdbkDwyQ0umYnzTOfYwzBNm1aL4S2A0eRZYtlOmme93b0oDmzLtEwHsEzvFFxVb3QIQa1mw46iqNFsjIeT/e4gisd5nm3euGRZzr0PftRzbZP6IbJhqVepYQXCoztSIl7HcdBiBSGX0i+GyDJVuJnx3yyLFXKHnkQNcXRGLiAO+oPN7V0AcLPZaLdbFlIXFm/SLAVuDCYRxJliZn1h5mWUWxxqObdshEDEGPOg18tarTbwKtB1niWaCXyrdOKKMW2s0sKTxWmyu70hp+T6/cFgOCGuy4rsFfJAe2FhbmFhwcXjO7Zfa9Qgbt3b24H3kY1rbywcO93u3E1Qz+MohATTdazqUqlAeHQg5NR7F2JG+hc7hViaYDRSolEBMy8TP6qdFmOdxeMYhjkeTzY2t03DXFpesG1bjljHUdzt9uIYC6G0qTtdL5qNiUspUVFoVqh1J66eMknSfr9nWQvClXhAxsQhAV1uX+UUDpvwUXd3NwijUX80GvepCsNJt0JIC0L4ZvIsW98ItrY22+322vHjjdac6/u1ervme7durSdZfPvW62fPnNFsq9hyrGozFQiPPiAtUj8yVZpdxlNAnfLVQbkK6XmEB3KznZ09QODq8RXbsrDRl+e9XrffHyVpCnRoGIbr4PQLqWPkmQJlAcHSzkUNxGEvHqNBRm1LHAAQwKJ7e3uOswLYsx2cYoNnMXQcFs9pxA5e/mCwv7O7O+j38jyGL3PdxtJiC9CVJslwGO53d+MkFbT4C8+/u7cPTHnq1Knja2c8v+Y4DjzRjRvXh73tKJi0Wy2sA1Wb9RUI7wQZ4iWPJVCMTHEqkzQ8BZ86Z9OikJyMIRqkKTZeBI5UX42iCdx99fiq50IOhgjb2tyJ4gjuBgS1srzUajcdx67VfHgA4LThYLKNPYO4sLI4oK1RvjQD/e7zwrBMpFm2u9s7ftzOc2HQIhTNDzBqNBrwdDs7W/0exsP1Rnt1ZXF5ednzXGm+DXdO4mhzY/2V196MohjXMhjGyVevXYUI9syZuwHZy8fWAPQ7e90kCnHIh4RnKh6sQHi0h1NHUPbApemfXGhnM5oW0npazpFo5NcpI0pqCRo0damnKV9aXPA9VzLX5uZOGEVwN8DAqRPH5zotMdU2xJbDwkLHca2dnd54MpZDalJedLq9Szozhg7kaVDfAhsGAOkgHA+GddvGpSrLsmkFgqJMkfe6O73uvq7bZ8+szc13IOGzLTdLAWKxBfGx7cwvLJ6/cHbt9Noffe3ru/tD3TAl7jfW1+Et6Nz5e+A+i0trgPBU5cNCDatXpwLhEUaiWKgwqUMQSytAKSpR2AgyuYNOa7NKIUIvlnypl61SSc93PN+TAlA7e/tASvCw8wutTrvtWPZoNMrTzHIcOZaJG8O65jpuq1mPokgIZUEo41wp00a3YNcE2/TYQ1dBMeSrkGQ2GzXbpqlrILQMU1JIPne2+5bl333xzNLSIrY0sN8ID66ZloXFnEQLw8CL7ZOnT3u+/wdP/8Hm5r6B3zvKD29ubtZqdWBC1/UajTatNmJ5dGZstjrv9lTjtu+5OspRO1Qn4Qn0SCmqJ1MnQI6t/CJwhcivsJQoWojAV4brOowu2zCMR8MRcOPa2rFjS0u45UCVSdO2pPMDYgPoCUs1Gdzoo2D+VLNGp618XUpNKEtRfPxi217uN6WTSQj8CUhJ00zidjTqZTy/974Li4vzKe4Lh0kCVCwsG5dC8GRpFIXdvX4wCdrtzsc+9vFmw5NYlx3R69euhuEEvoV6cx7LvZQfiwqCFQiPngmFIh+sSRpShoWpzQcdm4Gk4KL69YU0k44KSLoU0y7GbJAs0zzf3t6Ba35xodNuNQEM8PCmbtZrvmM7VG5FTCdJwskHG+4JESy1+DXZB2GFbCEuFtGLg6DXcTwDJ0XVga/d2xvg6GmWElS0GOsu4+OrC81mIwjCYDzOUR0AvyXAnm7Ae4SHxRzDAuAO+sNwEs7NtT/5icchMObkBaNTDWZ35zZ8ZDsm5b1ZIUNc4bAC4VEeuJSxBU+Jj642JCQoaBBMGpxJLRf8wISMDzhFbR9ypfRSKpINhyPIpmzHaTQacB9kMI3Gu3FPgsdJnOVpTkM5ABtcbjANmzb/xIwQtvSX0YsJVDK4TyF2LYRFsYiU59EkCNIkzRJMCuNoAl9SrzeGw0GWpJBI2o4L2SQ8cZrFOWIVgmdcgKSXpOekebiyevz0qTUKsjm96bC9rf3JaACpJoBWl29KVZu+AuFRn8FwIMkNJ8EM5XrNhfKal8t4miyTyG4iLviZgsqSsguHSm2WLqPFfncI/11eXHRd16AdQzlgRvoxeVH6VHUeiTQUpPBdqeaE/ENotAzbc3zSs6ARszzxfceQa/W0RYUVmnEE2JajbJBYNht1y7JSwLagBgjPaOw8tW0Xx7pRRAOd7uM4pj1Bksoxzbsu3GXbptQaNhhuMg37+zqTjREs2IriZVenAuHR5YSCJrNyVRnBlgA/GK3i53BXibp7SqQQuUvFoYXOvEhwWQnIzXQcS0pa13xPuoLmKKKR0wK+bhkAFtR2I8JjgDTXsYtqLJMCaR6kmK7t+41ChVFDasJ5Tq3IVnFwJucpMzHKzbkGDxhHAfZRkCp5muDUOCBN1014NpKKM6mwhGFnGIUy9O10Wovzc/JbcOAhbNzAAMbmqKyj08Yzr6LRCoRHe5TDIHKS3AlSvfiZ2oxUNzTlVZvTtBjmhJRGykUnOfg5HiMGbMvWKJFzabTFMi0JddowxPCu1Z6DzA3goWqzAFrX1WdsRgH2loM05XkW5WYU+3J4ZEspIhI50zZwJt9C6FbsdkIkTOUUzhhJYPA8mAzHo2EYhK7nGqYp5+LgRY8moygOTMtYWJiTlSG/5nk1CHpFEkdCauYjU1f19vd8qh/ZeyzMaLmsbRT6EXKSmxSpSZFFWtCLcmDNVKKjGKexUqEQkZCm+OX1Rg1oD+nN9dMoyqmkg/VJzpM03dneHg2DtROrlm1kGdZ7eJZL3RicQZWenkIAW+I0K0PXtTDLqc1gAnTDKCosXbQYMj3pMaGZSvYC1U0l5Rq07wsZb9jd712+fB3u99hjxuLyUjCZGLoP93YcVzdZmvDWXAf143gOX2TZFmkr5mmaYtFYZ1MH7epUTHh0PzHJfYIaCcRsXGo6qWRQ2j/QIgUSg9J9KDzUSGQN12RxpwGrkY16jbJBPc9T03YAbHKoBVKyW7duD4fBzZvr165cd5yai/VSWdfRbYMVtVFd7uhCaGgaBtVUFR1DtCjhpzY6qJqClUyD0aqhYQKw4Z0ABTpwFTjLIOxMd3aHcN84Tl789neCyRi+O4g3DZwgTTFYxaVeU+a9BlaJbOBbDRVXU40WNiDmhTC7ukoqEB4pEzKOfW3sBUDoJyXNivJJaY2EC3uQWsl+GomzkZSLrudUsEF5JalLQ7uwuNhHkoOAbM+tIYA1jbiFn1w7XvdrmBmSSgyJzdNzkWSNVqSjdOeMpJy0Mquc+vtSAJzl+IBRhJgyzTo8oWW58CLxdeIED5ZNAf6uC7jySLvCCCYBL0YO4CmiMKJKkylxjTJRNBTEeYwEjcuEQJXJOAir66QKR48yJ6Tr2tCL0ZgZdSem/N65TB2LLiGXBIib8FyVdUhWIqeg0oKYEyI9OJpUWsO5bTcIJhbJ9a5vbglqwNGoOFpTwFcKHM7OlRWpkHsLXOWHvDBMU0ZQRYW1HBUwAOo1FFDT8ziKbMuBO2ZZakFkiYMy2A4ZjHrwKI5rOK4to264p1fzgAbTJMpJbFhVaykqBjpFYtUN9ItjogpGKxAeeXmUKUkKSTl4KUqJGVl0EYX3Jyr84sgZVjWoryfH1wy5qw4xoedYcRgCIDMUeJGFDZZEoXSaAYZaXVm8tb4Nd/Ycx4RQ1cmjJKZhllwonLNijhuDScPQsiSTCxZZzhVCWfGy6Ykt4F7HSbIAHsRxrHqjARzo+z6ZagDG4pWVVYhj4a1hYaENrwfiTWpg5IDRJAYaTSbjAbyLyBE86ruQ2j+OqnOdqV5NdSoQHnE8Shc9w152jISj0649MlBO9c8i0MeCRY4AhMgQ0jDaNqdWoaHqnJZVWjXBZY2xHbY2UgAAdvDSxDKs4yvLaZbX67UkDpMooglP2ReRE3D4t2zTpYmWA4bznKmNPogMZdaqlbUZuHMcR8xJudp951SGRdU2+CAMJkka2qa7tLSoYUrpAV1nei7H62LS+4evCoIQZfAtE77ZJE4pI/VJ6QaVbDRhVCisQHjERIiGRNLQjKk2HZPy1soWSafWuNyt5dIpm2JFzhRNsEJ7BjIzgRbTEF7aVC/laRzYtgupWhgEQI9IXNSQaLaaEI4GSQw30l4hZYXUOZAVWowJkeuMPMOhMlK0Z0OSw2DKPVD1K1Gl20FFfEgJU9wcziASznCOBnUTbcuG2BJ5z3UxwpRDM6hTDDSYyJ2O/V0UujdNMwxjhlKKNnb6ISJVjt2MV6bZFQiPGoakKZihxwutM0g/lmKyRTmMydkuWZihobJCbIYrtQrZJAAWCaKs0WBJkllW5NiQd8Glb9N0jTBoUBPj1RRCQj4cDDFrFPoE6yVlEsjhdyjvnaRxLlRVFqAPiaV8uZIH8WGpimtZBtw7ybhppECMGHzGSU5D57KrYju2JkjSm1qVQsktYnDd7+7vdbtUWrXCOAE+dBy0b4JnTHEXWcghnupUIDzi2gxKnmH+hns9emoZRqI2fQvrd9IyzFFKOy+rI6LQe5KkBw8CX2jYDEkvbxokjGE5LkevGNNGdgLk6RnOcWoxxKJphusUSQZwHU8mshQpNbwBEnESWxY81ITnUkvfBFzxPJ+WZTRBzT1MFF2bW0YMvGrr8BQDVLmwzAy3LHCJHtAls1r4FlAKEbcd9SSJdZJ7unnrBpAxMiTyNuafEFSjE5TUDNBnjYer825P1aJ4jykhzqwwaQ2t8Rw79CTsRM0DVhRmZD0EWMsgzRbMlRB8uUzSVEgKOaBvY7VzMg6wUWA6QGGW7UqRJdzONWWFRvXlLOwB6lJvQi7satLrQgiAaBCojBGeueb7YRjxwl9bEpyU68b+ZhZCjDsO8wCF/LXhCKVlHNdzPB/eWDLURBRygBtuT7NUziGYlr23u3VrfQMeDoLdKA7hDz2sI0dwdGJaXs2OViC8Mz+0nGZDlSx2oTHDedEnRDHfXKZIBkNXUKQsyNQK/13pPg3U12rVAUW9Xh/4Da0H01jI1rthwmdNBzJEkwJUHTCKQyqWCWApVKZos17T5X5GnifkcEYKpyYLw7HqShSjdhY6k2pApWEUOLjNyIeTdBwCGeLQTJKS/i+8F9AYHeogZri3QWPcuWmYvf3u88+/KCdaNfXQvNVswD05UGiWsMKQo2LCCoRH/hOTdvQCSyGCDFV0kxnKqxCVlHQVlBZbPab0Gixs3rE5SCEgQtQ0W+15gOjVq+vjUZjChZ9EkNrRmJgP17fj1mjEDcNOOepNPoWkUUF7/BKONDEuKQhyQyOYhOQjKkpU6BLKcsI6S2uOqLl6lqR73WAwiob9/ng0Ho5GOIZqm7JBgvDTBIFfdLs73/rWs1Ec02Y9k83ORqvl+R7Ox/KcFpFRmBi+wfG4atZXOeGRlmWQdzLLwklOiTJa+eOyBIrlR4kZDOFwK1DjSp1Czm3j9hOtYGD/LYzR5L3uD/omcODVqxtnNVFvuo7lwRXtuDa24E2z2WolSQiPlaR8OBxNxuNcTUurYLOgJamIymzLieKg1H+TKtqmgTZLkEWi7UwKIMmatUYwDoaDeGd7GEyiTrsG31SaRL5fk1ZNuM0fR5Zt7e7s31q/nSSpadIUHuHestzFhXnb9oAngXVNtymYTYJuWpZXEWkFwiNGIQlNC1r20WXTQSi9Tcl4KlYUqiapYg1dl3JkCI48y9F107TyKAFkLC0ubm/fjpPg8uXrx48vz8/njWabKkBogOu4uM0QjIaT8WR9YzPGZl0h+FvMiYsyXzWMOMHkkCxchGyHwOv1a56JEmpoCwP/jKLQcf2a76ZpPhlNhoMh/N1q1zzPgmQSsDbSRJIko2E4GPbjJNbIXVT1JzUOlHz67CnX9eHxw8m42+u1F8/SLIJe6Y5WILwTpRlM5rhSOqQ5T12yoBTP1gXjVEjJ08REG0OVJZJdIDbusxRHnOF6xgQMUq8ksW1jfn5hb28XksIbNzd2t3aPHV+q1WquhzI2cZSPRuONja2YzNLUwqAUG1V+3VLdFHVHcWIgS4vhNSbZ0DAs1/UM3A/UyMhXT6KgM3csSeaw/omLuf0sD7rdACJlRktXeRZTmwS7j6QQJzGP36fr1U+srbieCw8Vx0m31x+PY8erkZKioD5qJT1agfBoiVDQ6CYOteQZbhZw7G6rpr3Eg2wfaqpfL70ENVk3BBIkK6UM4tThMGh3WqZlRFHqOnar1RoOAAz5OAivXLlJbr46acaILM2EsmFjmjbLNOqJNSIhTM9UK5/GZmgUDgLRdrsFqRyJFeNAC7lW8CQOm63mcLBfr+m22el1h3ke5HlSSuzjkiG9m+AsAj0UJIRznbmFhTkTUtM0hQi51+/Be4fjzTluHRcptNLArToVCI8ShtKYEPt4eSaHqg09SUUp/SvKEiiNoeDeui4LYExyFkAnt21rtDsM42R1dcGxbcgJ674PUNzvduHjXGlOKO5Vs+IzY5lyQ6qUVKQFKZyGme4W0511LPB4ejH4Akcuy8NrC8OwVjcb9Xavv2c71uJSO0vrw1GQQv6JVRZReM3IKNdptyE5bTiOI8204bl6vf39vb0sz44tdDzfz2lDUri8mh6tQHj0KFQUxLGRZ2Qsy5my4tWkJ5H6mJzsixV4NhPMCg2ny/L5Rf/2xtatm9HqyjLwKnypbZjLywtJHA8Go1TOp82Edrj7XmzxK9koOTNnqBvJ7Dov25U4hmbb9bovrYIhmRyPgtFoaBjuqdPHXQ+C0qQ914mTcRCE8LWO6yzYVp43cBKVtJ5wdRBgbFuO49q2Sakm7jQBgLu9wXg8yjJuWe7y8bt104A3FM9JODdEFY5WIDzq6ihd+gZdn5wlUgJYGmjTfKgcY8P5FF3onAY7ZZNgphtEvrmea584sXLz1sb1m9HK8jKlXoLDZY28NAcsC8SGZRjCs07NSbjo4yQmBZsZnxklK6UVbRLlSGhbVq3WkHfIs3xz63YwwQ6+rk+uXIkuXrwvpyrowsLqzs5tHFXF95ccXoRjWJ7mlI9P7zBofoiNTHQjDSEKRdalVfqTZy5CiEotEqkqIKrN+gqER3vg8jdN28CIDCNQkn6JCBNlp06TGaBsWmR0o0EqnVggRYt5mrXJUoBX3a9dvHDu6tWb6xsbvuN15sjMDLCL+Rg3GbMsHxVK0QA0CyZBmiY0JFCIl8pGSF4EgEwUJlC4ggQIpN1cxOV4PAmCSMjRMk2PoigIJ65fDyYT1/PnF45197eTNCefJnjB3CABC/locZZB7ItSpaNxHMnJcrlIpR1bObN29gFKhqUlqSAfxbi6TioQHuFBI05MfYj8qIfOlMaMrkJQRNiBpEgVZqROfUY+2JxkLgSPo9Dz/A/cd9fuXvfW+lawGdqW2Wo2TctmzMQRcEIgPONoNEpw+V3Z88qwWK4Jl+GqQqDBbMv2a3XLwq6CFIxCZUNeRtMYMKLILzUVsjRzXX917eyNa1e2URhfc2ydtpZxLjxO0mAMWWIsu/9C+ZPit9yeP3Xq7g+TNJugWQBTLhmPxqPqOqlAeITn3nvvf+7ZZ/b3tzzNBnLBHSKcrlQyu9iqLsopOl7EZIemY4FUKmiTECjtv2JjA8gRceg6jYsXLy4vdN5483J/DCy1R27WKH9mWTbuGZF+IpU9taJ0WQrOKwNDkrpgpFZhO55jUiJYwE7UfXcwMLI8l76fFglLmabBsYvI8jx1HO/kqXO2ffv61RvDrCeLuljRpViaqr5qIBaAaxrm4rFzq2c+YNsexNU2FX5oMtZN0jTPqmb9ezvGz/3cz1U/hXd/5uc75+66MBgOkjgfT8ZhOIbwDAI5CY88Q6aQJRNslxfOEDR3xqRCjCQtqqaoZXu40E2D1ZqtYyuL1ECPgigBCgKOSlL6D1VpcAmwFBWeZl5CqgCjz7Xj1PyGaduarMKq7X9Eo+PZWarhbKoQQLarq2uduTmhVKuQy1Hn2zBac/OrJ04DD0+GQZZHRa+Fyk6UHwLIm53Vk6cfWlw9Y7u21LIydV128g3GV47NPf7xj7RbjepSefeHVQ4ef4qTptn1G+uX3nrz299+/vrVaxvrV0fDCVBYmtFAKc1tARBkWqhj+w77+ORcoTJDkykhGOQ8HCU1HdtsdeZwiT5Jtre3trb2dnZ7GeaeeeHBJr3QdK00JsS9W2RNy3KbzRpu0wNu4wSey/U8g2S+DUM5tAF+4M1iMgk67Wa9UbdxdxGjTtN2mGGRQRu8RMvzG7rhDAb93t7tyaQXBvBtxTou75qtVr3eWPEaCwz7/jlF1LlhwB+9BonlYuehB+79zKc/fv7MieoKqUB4R09/MLxxY/3a9Rs3b1y/fuXyxsat7a3bQJWjURiGwCcoJm/bQFQmqmkbmmlikCldlWTOBtyl48fMde16s0kyghZAEZDQ7Q7Ho2DQG8QYlOaaknFC8sOtdsv1ax6lotKsG+slURhC3FurNxzb1lQXEe+MWLVt2S0kXXsb3wpwdcJGcXzdIplwFOCG1wkfyB0NzGJRHkDAmwHqGWZZOAmxIsWMRqtxbLlz7Nj8xXsunj599uyZtXOnj1fXQwXCP/szHI12d/YHw9Hm1s721ub6+i0A5DPf+Bp11bIoTpEi0cYvw/VZihsBcgb8QUrEzgchE0JCLMkkKcnO0D5RjkkXk67ySYQ7v6Zpk1YaYoOjQQ0KXoThBCDqe57tkGi3rjgYmJBUqXTpMYhPw7DYix7XpEnBmK0xg/QLRa7ZOsJSi+MRgzcRy/Dces0zFxbmz12Ac3er2Tx18sSJE8eajRrQePV7r0D45/389M/87JW3LsHlv7e9EwGAyPqPRCsS8jvDuJVMWbhuot0TCsVgHSYnGWFpM8h1NbOGYak0mymEwAu5KLW8X0y3aYIGazjTVOWIdGaA6NC/3jYNTSfLYcMmJW+sbzrIwajvC5TsudbKyvEnn/y+es1vtZrLxxYB2AvzbZR4qk5VHX0fnW5v8NwLL0KmtrR8bH9vL0ogRg3jGEAYkWKURvvBuKOA3X8TtTMAJA4kiMSJ8F9AhYN2aCxKYsg8gzAIQyn3JPVqhJrRUTJSuqaGxekLHQvi1Xqt1plbSpJsMumiEiIzBXOY2XJrDcBhFEQc3gs4h6dESan2vOM6vmMeX6w9/PAHnnryC9UvsQLh+/jcuLnxT37h519+8aUkyldPrjqe22rPcd4FEEKKFkZplscKO6Q0Yel6RrIXuFtvmIC9Rs1fXFoEIrIcexJM9vf2e5AlTsIkRsntbn+AhjNaKflLuoPImCbBD5eVfN9bWl6bX1hIkng4bMVZynMzZy5z2paDft2aPhr1h1E6STnkggaOweiOidvGLb9Wr36JFQjf3wcI6/rVy1cvX+r2Ry9+5zksgxoW/JXj0jo6s2iF0T3JCdPvAzcnOI59Y6M8AWJzhj3IBBkaaweD/gioED0Dc/gfN5gtyJpNKBCqlQohUnSPoWZGHCP5joZjnDkn3ahcQNSbGxyTSiBUkhV24Ittx7TgI7Rhs2zXgkgWnrE/HLebFRSP9lR9wiM8c53WQw8/2ut3x6N+HKVxGidpHEUTSAjjJEoxOZSBJZYd0ZOQVvgAOmkCH+M8DKC23qx5tSYgKgzGo3E4HgVxnAGXTsIJRycWGi9TnUlpGy+t0fIwCsfjIE4y00BIh0E0gjMexTGHiNRCk0NIAW2B0lVo96mjD6hto6YG/M9c6NTiMPrd3/0asPfKsYXqt1kx4fvykMs0P3v23N5et9Xa3Nvd6faAysay407m72r0hXxjcjmJRl8aSx2n7R3typXrsrOPyCqKaKSggSUYebdCel/T1Nqhlha0GATjwaCro/OM9FWsMebA792ue8dWzp04ewHAnusZMwwUMEYzDOw9hmH05qXru+s3+91ur7d/+h/+9Fy7Wf1CKxC+/84L3375S7/0v2xtbW5vbS0sLSytLJuWORg6yGZJzFheQFAjpWAVm5QOE+QYozfrNcs2R4MwyWPpZa9YTyu3KbRiDkeN0cjqqGGSF4autzsdjevDcaBbXqNZ04nw6s3VzvJJyP2yLEU/Jy1PgiiZRBDy3kjCYfdmb7cPj7J2YtG0LF6V0CsQvk9Pq9WyLGtnaxPY7M1LlwrFNascOlMCMRJ2QkkhajTzrUY1NdzuNTWzVnf0QIu0WLIf7SXS4rtQtkxKzlRmhmr/SIpxu77vLywszS/ORzgAEArN5IZruI0EELe/Pxx0+4PtpD/I84ijARQuZ1lmvbPYOX7sxKMf/fBP/Z3/cKHTqn6bR3eqPuHRnn5/8Au/8Atf/9rTN67f3NnrFkkgL+Tp9WL+RXr+aTTrqcs1XM/x6nV3br61cvyU65mj4Xh3e3c4GkZhFAWYU6JrGi3aqpVGoRVWUUyuAhqGDcnf4mK7XvMh65wE4c52F+Xh5GA2YpcJqZyvPE09w3AabX9hbuneBx84c2pp0B8+9dRTH3v0gWpJsALh+/IA2L7xzW89/dXfvXr1cr/X3d7Z6vUGw8EkyxJ0kJe4mXETU/8q/kHcKKdcSnlvtU9UBKEycNXLpQpGgC4jVGlbw3HvEbVlTOx+6MUDO4bVsOpu3XVsxxkN+vDmAHdrNOaWV042aq7vWnE0TpK43Vn8z/+zv3f+7Fr1C63C0fffuXzlxpf/xT/f39+7eu2tZrOxvLwIAEJBwXGAm6/kpiSknWjZ5yuOnPn0vVpnrgFfwgVPomR7d48UNLg0f5AbFFNBNzk4o0BI2xOa/D9ZjzpWreYJxvr9CU4EOI5T90zUrteCSQDs65BZt+c2Rr3hlUsvTwbDTrt+6szdd3/07PxcFY5WIHx/npWVxTPnz93euDUcTq5cuaGVuZoCnFRIlHEhV5rdSqtM4oklSTqZhL7nyRtsw0iUvQsRHK0Lky2MLqNKrTBQlM+iow6i1e602m3P82tJwqM4Rkl9y3PcecB3Eqaj4e1+fxQNwiwfckgIxZukwN1cWVk+debc+bvv+vG/9u902tVqUgXC9+dp1Os/8RN/IwonkJxdvXJ1d6+LI6M8o16gpuhLSc8IudqEtRbaeoBbPN9vt+Ax6mtrJ8jHk9/euLm315sEKKgR4kqx7EygpDftImlqvpThloMc3QbsNRq1Wt3XDavX2+8PJlGY5Byo9Tp1SVJp3kYSOLpl1oESm53G0vypDzx4//GTS7fX1//Nb/zOj/7wk3MVDquc8P140jT9rd/+6h/83u93e3tJEu7u7W3e3hoOgyiK4eonDWGuSZEK8vjlUuSz8FHSCusYQ1ZN0dCX9vOFVDedOq/wIv0ThQJ26c5b3Kjh3iGJgEuJNsZsuN2uNWuNFjm6YNcfksZWs7587IzrNiwzHw334Xnanbm/9/f/1oc+eG/1C62Y8P13rl6/+ev/+l/t7Q5u3Lq8uNRst5ejMNQNczwKx5NA4zENXjOhc2n6ywq5RJnIwceu5TUaXq1uQ1w6Hk2G4xDtton9yJRFk6PbrPDE1lV9tYhraWWRiqVWo1kDWh1P4uEkJZ0ZZnlureFhL1GzdAO1pBzHZrq7u7s9GLwy7A7bbf/M+fMX7z13rqrKVCB8n56zp05+9/d+77/+lS8DZl749uucv0JlE+mmVMo14Xq9Gngpxl4YK4VMc1k8NU3bsrlpcpHGMpZFkqTNW0EC9CoPLOSvWSFXCBFpreYfW1l0XS9LE6yUWjb80e2aX18wbGfY3RuNuuEwzOJJxiPBUxRrM5urJxbPnrt7eXX5k596otOqxmWqcPT9fJ5/4cX/9UtfevON1ze3Nra391AKKZd9BlGgUEGm7BfCPz3XcxzL85yl5c6Jk+cNXduFnHK/2+0Our0hZIBwryxHV3qcO825egSmSq3UjQCc1eAJWi3/5OlTcRQPBj3ICbv7o5zHqIjD81IvihbtXdN06g232fCardWzF04vLXZur98+cerEj/3VH7nnrtPVr7JiwvfrueuuswsLc/Mf/8je/v7lt97Y3x9OJiH9mUgNNfKI4DlOkuaFcTwPw0BS4o2bt154/lUSz9fKQVNK+0rPX3yWXFZmJKxxAR8AFofBCB5hf19cvXpdV+aIykPK0D1gV6/ldzoLODaexQbaqtnN9lKrs+B79fFo/Oq3n4cvSJNsf3+g3VX9JisQvo/LMwi0hYXFeqO2ubmJQkyktua4NoSHwSTKRayE64svkQ6gqMLErM6cV6/7AMKbN7ZjGrch2VLq3TO5PyFk+Dm7aC/ptEgMgej8ubkmPCI8R5rxIEwBgTbuLDk4rcq4ZflccNttNTqLjc781u3bG5dfrdfqj3/6E1/4wnc99qH7q99jBcL38yH/Wmyx58JE8RjbilPLxI3ATE9QSwY91DLJY7kSDgb4kW+LrvTtAU2tprc/CLClqOwtiBx1VshvKyMYpewkWx/4IBDTeu02JIY1eJDxJIL7LMzXXG+peey03+jwPB/ur8eAyzS2XQhfjSRMIfp9+JFHH3jwwo//uz98bLnaY6pA+H7HIPUAdcSTNEsSchFJJ+N6lLs3IaMzbccycMEBhS4sFFYC7Fi+Dwy2dPGeC/WGPxz0vvWtZ7c2u2EQ7+/1gA5Rk5t0gQl7crRNbgdDtOk0mnWguEajvryyfPrM6Xa7NR4HN67fDoIwyU3dX2g25mrtuUG/m8R5koS6bqAFsEAX4RMnzq4teefOnlRC+tWpQPj+rn1JJzMpIQ8ExWUBBrM5Q7q94EoSqncKkzNApTDSNGv4uu83Wq2542urS0uLnfnO/PzitSvr4TgCzktbdaCsMIyH45GmG7QJpculCpRy0izUvteRB1HplGmAQMd2AhYAvG3Hy2JGzXnU3hZZIoXxpUIpdhRNppu0VmgclvSvzlEcvfoRHDkIdV26mqFLLhrI6LLHILiWkwg2OVEzNHtJ8zAME/SKD4GvALaoXJrllm3xTKAcqW1lmaA5NRZF8SSIBC/2guUmBbUGSWJYumMUvrmofarX656NkzcoAgVHNwwcIG3UbdcCGkxIn5scbBgtNQpDr2iwAuFfiNNuNR997OONZsO20bAaF5WKWTXye8i5+kXoMcqM4pYRisHwLI4iWa9hmgEoGw9DNK82jRy7GmgjkePYjZBzp7StnxOnxfAB4CdPMkgxHRsiXCvPUtfBxULiulwTKVemwqi7CMEw1Wnh8VLsTHLcKkQJKQZvENUVUoWjfwHe53T9c5/5dLfXe/bZ57d3BtGrk36/h14TaVaYVegARGAmSO6AL/OUIwMxliZoCgioiKPY0M0gDJIkRhM2ygOzJCtavEyuB+uFOSlDOfzIsgB36PpioLJbIq0sBErlU4VVz3gxbIM41W0hdJrEyVE+ODfap49duOtCp1K1qED4F+bMdTpf+O7Pfe6zn761vvn665ffuvT6W2+99eYbL21t3u71u0kikkSroaa9LrTcNG2a5MaJGbTj1FgCkNO4aZsol09DbXC7zDZVuElbGUBmchUjzWJNc4kgmc5sA4W6U4AhSukDTLNEMAg/s8RBvh11R2kawXP5nn/y+NKDD1x86AP3PvTAxXrNr35xFQj/wv24TfPM6RPwR/tLT8A/97u9zc2dGzdv3rh2/eq1a7/+a7+CsksQifIUjUEBNVmcAFjiGC0H/Towm1xZIvcJroa1y78oVyyG4lA3X+4Aj8eTLEHSC6NYkx5nmsjTiRYHLbd58szSQxdW5udba2srp0+vXTh3osJeBcJ/i878XAf+3H/f3fDxr//m//UrX/5lYL8OVjLNuudHSbS32+PZW3kmGs06ZG+3bq4DJsnKnpsYxObS/Iyp2Rm1dUGNfopDDYPC2mRzazvOgPRS+OyP/Xt/9a7zd+mGAWBbWVlsN2tMrxK/P9PSXTU7+ufh3Fi//eN/5UdfefV1y7RWV5cWF+Zqfm0H5TC64TiMUwg5dYhFIeOrN7DnHsWYJYYTiFKxdgrkaZg6/I2C+brm+55pWZ7nk7UhSf6mme+7ndbCyTPn//E//m89z61+5n+OqgbVj+DPw/nSL/6zl195XQ5VZznJQNFcNymRorhvwlNI5HiShhNU4E7iGMjQdizgQ4hUIW1kmmXb8C+kR9IO1akziRvEUQgRrTTQhRgVgtu0+oFX4Wh1DpxXXn3z1371/6BZUUTfZBwO3SHTuFGoxBhS28K2gdXQz1A3Eq4PhuOaV88493QTXQZNCDs5M7EYa8oxF4a2EhrWXY0UE0iRxJNHHvlgo1GlfBUTVufg+fIv/+83NzaKbUA2GA4+8MHHHv/U53MpPKOhKjbcDaJNJtDODOAKMKs5LqrgoyMFMwlsGvnyQipIczPAjdiy50JkGScBRfsHf/hHf+In/jopr1WnYsLqFOety9d+73e+QvhDE08uksXF5b//n/zHF86f+tBjH/3jr//htStXrl29NOgNRoM+ZIB8MjZtS+hGmokETZ14nFB4yQXkkwAwDDijCB4uRkEL0/O900vLFy/e87kvfPcXPv9E9QOvQFidw+eZZ57Zur1jGo6uGRA+QuL31I/86IXzp+FT3/1dT8CfKIpv3rq9vbW9sbG+cev2eDJ87plvXL9+I3OkuROW1hzPMk3TckxIEpeXlheXV1ZWVufmF46fOH587eSZ02trq0t6NYNWgbA673hefvE7tmP7jpPnuCNv2LUfePLJ2Tu4rnPhrjPwR/6z2xv+p/9g67VXXqu3GqdPn8yycHNz13acpZXVJBNZkn7uC9/3d/72f6BXXYcKhNV5N2dnb/+1V146e/5ErTnf7032u7sX733wwQfuOXS3NM2/9kffeu7ZZ15/7c31m29eu3Z9FAWQDzruDof4NAjTPBv0u7nQIDS9dv1WhcAKhNV5t+fSpasbtzfPX7hraWnB9dtxpn/iU5+0D5rCv/TypX/6C//TlbdeC8KBbuoiF41mjfMM1w0tc5IEPEtzw8yy3PWahpHVG9W0ZwXC6rzrc/PmjW53ePPmRm+QNprz7fnFi/fcPXuHX//Nr/5X/+U/DMLJufMXFleO2bZVq/k3rl195cWXNI6AFFku0J9Jo7YE8/zm5z//2eoHW4GwOu/2jNB/Ptjd6w1GYa0RLR87fnzlWPnZX/zSv/gf/7v/Ok6StdU13MRNcQ3iJ3/yb7/66itvvPxKniWeY5lGYzKZ+J4zN7ccRunxldX7760kmSoQVuddH/Sm59l4NNajLIhxsqxeV530X/ylf/4//Pf/DdxldWWt1V4YDkZpmv7E3/yPPvjgfXffdaa/3/3Kv/lVy7SD0dCHwNS2DU1fXTn21BefnOtU4WgFwuq86+PZFglc5IyLNIrTuGvjgKj2S1/65X/68//Itqx2e7HeaMcxAHX01//Gv//Fv/wF+Kzv+z/5t/7mD/3ID63fuj0ajXGqRjcs2zl18vjq6lL1U61AWJ33cBaXFpfmFnZ6+4YpAI88z27f3vnyl//lL/+z/9kwjVZj3nH8OA5Hw/73PfnUj/2VH5r92mPLi/Cn+hn+RQiIqi2KP8Pz1uWr/8XP/uwffuPbURIvzLfa7cby8vGdrXX4tXg+GiTFAMFw8pe+9wf/wc/8lOPY1U+sYsLq/P98Tp868anPPhHFWX8wQkczg3X3tvxaDdK/yWSUZaht8T3f/9TP/PTfrRBYgbA6R3Isy3ryB/5yv9d75eU3xuMxCkwsLpq2vbu9Iz19v+f7f/Cn/u5POo5T/ayqcLQ6R3jiKL50+Xq/D2Dcv317/dqVqzvbu47nfeqJJ374iz9gmtUbZQXC6tzBk2f5+u3NMIqOLS2225VTfAXC6lSnOkd/qknf6lSnAmF1qvNv9/l/BBgAsOlWONLOKcwAAAAASUVORK5CYII=;" parent="1" vertex="1">
          <mxGeometry x="10" y="315" width="60" height="60" as="geometry" />
        </mxCell>
        <mxCell id="aBZCno5w9hMfPToRCG13-66" value="&lt;font color=&quot;#7EA6E0&quot;&gt;...&lt;/font&gt;" style="text;strokeColor=none;fillColor=none;html=1;fontSize=24;fontStyle=1;verticalAlign=middle;align=center;" parent="1" vertex="1">
          <mxGeometry x="30" y="315" width="100" height="40" as="geometry" />
        </mxCell>
        <mxCell id="aBZCno5w9hMfPToRCG13-67" value="" style="shape=image;html=1;verticalAlign=top;verticalLabelPosition=bottom;labelBackgroundColor=#ffffff;imageAspect=0;aspect=fixed;image=https://cdn1.iconfinder.com/data/icons/random-crafticons/48/misc-_wifi_-128.png;rotation=20;" parent="1" vertex="1">
          <mxGeometry x="30" y="291" width="24" height="24" as="geometry" />
        </mxCell>
        <mxCell id="aBZCno5w9hMfPToRCG13-68" value="" style="shape=image;html=1;verticalAlign=top;verticalLabelPosition=bottom;labelBackgroundColor=#ffffff;imageAspect=0;aspect=fixed;image=https://cdn1.iconfinder.com/data/icons/random-crafticons/48/misc-_wifi_-128.png;rotation=-30;" parent="1" vertex="1">
          <mxGeometry x="106" y="290" width="24" height="24" as="geometry" />
        </mxCell>
        <mxCell id="aBZCno5w9hMfPToRCG13-69" value="" style="shape=image;html=1;verticalAlign=top;verticalLabelPosition=bottom;labelBackgroundColor=#ffffff;imageAspect=0;aspect=fixed;image=https://cdn1.iconfinder.com/data/icons/random-crafticons/48/misc-_wifi_-128.png;rotation=180;" parent="1" vertex="1">
          <mxGeometry x="66" y="256" width="24" height="24" as="geometry" />
        </mxCell>
        <mxCell id="aBZCno5w9hMfPToRCG13-70" value="" style="rounded=0;comic=1;strokeWidth=2;endArrow=blockThin;html=1;fontFamily=Comic Sans MS;fontStyle=1;shadow=0;exitX=0.5;exitY=0;exitDx=0;exitDy=0;entryX=1;entryY=0.25;entryDx=0;entryDy=0;fillColor=#e1d5e7;strokeColor=#9673a6;" parent="1" source="aBZCno5w9hMfPToRCG13-67" target="aBZCno5w9hMfPToRCG13-69" edge="1">
          <mxGeometry width="50" height="50" relative="1" as="geometry">
            <mxPoint x="10" y="610" as="sourcePoint" />
            <mxPoint x="60" y="560" as="targetPoint" />
          </mxGeometry>
        </mxCell>
        <mxCell id="aBZCno5w9hMfPToRCG13-71" value="" style="rounded=0;comic=1;strokeWidth=2;endArrow=blockThin;html=1;fontFamily=Comic Sans MS;fontStyle=1;shadow=0;exitX=0.345;exitY=0;exitDx=0;exitDy=0;entryX=0;entryY=0.25;entryDx=0;entryDy=0;exitPerimeter=0;fillColor=#e1d5e7;strokeColor=#9673a6;" parent="1" source="aBZCno5w9hMfPToRCG13-64" target="aBZCno5w9hMfPToRCG13-69" edge="1">
          <mxGeometry width="50" height="50" relative="1" as="geometry">
            <mxPoint x="90.10424171990803" y="296.22368855056914" as="sourcePoint" />
            <mxPoint x="110" y="278.5" as="targetPoint" />
          </mxGeometry>
        </mxCell>
        <mxCell id="aBZCno5w9hMfPToRCG13-72" value="Coap" style="text;html=1;strokeColor=#7EA6E0;fillColor=#cce5ff;align=center;verticalAlign=middle;whiteSpace=wrap;rounded=0;fontFamily=Courier New;fontStyle=1;labelBackgroundColor=none;fontColor=#4C6487;" parent="1" vertex="1">
          <mxGeometry x="135" y="121" width="40" height="20" as="geometry" />
        </mxCell>
        <mxCell id="aBZCno5w9hMfPToRCG13-73" value="FTPS" style="text;html=1;strokeColor=#7EA6E0;fillColor=#cce5ff;align=center;verticalAlign=middle;whiteSpace=wrap;rounded=0;fontFamily=Courier New;fontStyle=1;labelBackgroundColor=none;fontColor=#4C6487;" parent="1" vertex="1">
          <mxGeometry x="179" y="121" width="40" height="20" as="geometry" />
        </mxCell>
        <mxCell id="aBZCno5w9hMfPToRCG13-74" value="HTTPS" style="text;html=1;strokeColor=#7EA6E0;fillColor=#cce5ff;align=center;verticalAlign=middle;whiteSpace=wrap;rounded=0;fontFamily=Courier New;fontStyle=1;labelBackgroundColor=none;fontColor=#4C6487;" parent="1" vertex="1">
          <mxGeometry x="225" y="120" width="40" height="20" as="geometry" />
        </mxCell>
        <mxCell id="aBZCno5w9hMfPToRCG13-75" value="HTTPS" style="text;html=1;strokeColor=#7EA6E0;fillColor=#cce5ff;align=center;verticalAlign=middle;whiteSpace=wrap;rounded=0;fontFamily=Courier New;fontStyle=1;labelBackgroundColor=none;fontColor=#4C6487;opacity=30;" parent="1" vertex="1">
          <mxGeometry x="330" y="180.5" width="40" height="20" as="geometry" />
        </mxCell>
        <mxCell id="aBZCno5w9hMfPToRCG13-76" value="" style="endArrow=classic;html=1;strokeWidth=2;fillColor=#a0522d;strokeColor=#6D1F00;shadow=0;comic=1;entryX=0.5;entryY=1;entryDx=0;entryDy=0;startArrow=classic;startFill=1;" parent="1" target="aBZCno5w9hMfPToRCG13-82" edge="1">
          <mxGeometry width="50" height="50" relative="1" as="geometry">
            <mxPoint x="80" y="150" as="sourcePoint" />
            <mxPoint x="80" y="120" as="targetPoint" />
            <Array as="points" />
          </mxGeometry>
        </mxCell>
        <mxCell id="aBZCno5w9hMfPToRCG13-77" value="HTTPS" style="text;html=1;strokeColor=#7EA6E0;fillColor=#cce5ff;align=center;verticalAlign=middle;whiteSpace=wrap;rounded=0;fontFamily=Courier New;fontStyle=1;labelBackgroundColor=none;fontColor=#4C6487;opacity=30;" parent="1" vertex="1">
          <mxGeometry x="237.5" y="75.5" width="40" height="20" as="geometry" />
        </mxCell>
        <mxCell id="aBZCno5w9hMfPToRCG13-78" value="bin" style="text;html=1;strokeColor=none;fillColor=#97D077;align=center;verticalAlign=middle;whiteSpace=wrap;rounded=0;fontFamily=Courier New;fontStyle=1;fontSize=13;fontColor=#FFFFFF;labelBackgroundColor=none;" parent="1" vertex="1">
          <mxGeometry x="270" y="120" width="40" height="20" as="geometry" />
        </mxCell>
        <mxCell id="aBZCno5w9hMfPToRCG13-79" value="" style="group" parent="1" vertex="1" connectable="0">
          <mxGeometry x="54" y="70" width="126" height="30" as="geometry" />
        </mxCell>
        <mxCell id="aBZCno5w9hMfPToRCG13-80" value="" style="rounded=1;whiteSpace=wrap;html=1;fillColor=#ffe6cc;strokeColor=#d79b00;" parent="aBZCno5w9hMfPToRCG13-79" vertex="1">
          <mxGeometry width="126" height="30" as="geometry" />
        </mxCell>
        <mxCell id="aBZCno5w9hMfPToRCG13-81" value="" style="shape=image;imageAspect=0;aspect=fixed;verticalLabelPosition=bottom;verticalAlign=top;shadow=0;glass=0;comic=1;labelBackgroundColor=none;strokeColor=#7EA6E0;strokeWidth=2;fillColor=#97D077;gradientColor=none;fontFamily=Courier New;fontSize=13;fontColor=#4C6487;image=https://upload.wikimedia.org/wikipedia/fr/thumb/7/73/Sigfox_logo.svg/langfr-280px-Sigfox_logo.svg.png;imageBorder=none;perimeterSpacing=0;" parent="aBZCno5w9hMfPToRCG13-79" vertex="1">
          <mxGeometry x="54.5" y="4.5" width="63" height="21" as="geometry" />
        </mxCell>
        <mxCell id="aBZCno5w9hMfPToRCG13-82" value="" style="shape=image;imageAspect=0;aspect=fixed;verticalLabelPosition=bottom;verticalAlign=top;shadow=0;glass=0;comic=1;labelBackgroundColor=none;strokeColor=#7EA6E0;strokeWidth=2;fillColor=#97D077;gradientColor=none;fontFamily=Courier New;fontSize=13;fontColor=#4C6487;image=http://jeudisdulibre.be/wp-content/uploads/2016/10/lora-logo-transp-400x231.png;" parent="aBZCno5w9hMfPToRCG13-79" vertex="1">
          <mxGeometry x="6" y="5" width="43" height="25" as="geometry" />
        </mxCell>
        <mxCell id="aBZCno5w9hMfPToRCG13-90" value="" style="group" parent="1" vertex="1" connectable="0">
          <mxGeometry x="197.5" y="231.5" width="50" height="35" as="geometry" />
        </mxCell>
        <mxCell id="aBZCno5w9hMfPToRCG13-91" value="" style="verticalLabelPosition=bottom;html=1;verticalAlign=top;align=center;strokeColor=#d79b00;fillColor=#ffe6cc;shape=mxgraph.azure.cloud;" parent="aBZCno5w9hMfPToRCG13-90" vertex="1">
          <mxGeometry width="50" height="35" as="geometry" />
        </mxCell>
        <mxCell id="aBZCno5w9hMfPToRCG13-92" value="Sms service" style="text;html=1;strokeColor=none;fillColor=none;align=center;verticalAlign=middle;whiteSpace=wrap;rounded=0;" parent="aBZCno5w9hMfPToRCG13-90" vertex="1">
          <mxGeometry x="5" y="13" width="40" height="20" as="geometry" />
        </mxCell>
        <mxCell id="aBZCno5w9hMfPToRCG13-93" value="" style="group" parent="1" vertex="1" connectable="0">
          <mxGeometry x="195" y="168" width="55" height="60" as="geometry" />
        </mxCell>
        <mxCell id="aBZCno5w9hMfPToRCG13-94" value="" style="rounded=1;whiteSpace=wrap;html=1;fillColor=#fff2cc;strokeColor=#FFE599;" parent="aBZCno5w9hMfPToRCG13-93" vertex="1">
          <mxGeometry width="55" height="60" as="geometry" />
        </mxCell>
        <mxCell id="aBZCno5w9hMfPToRCG13-95" value="" style="fontColor=#0066CC;verticalAlign=top;verticalLabelPosition=bottom;labelPosition=center;align=center;html=1;outlineConnect=0;fillColor=#CCCCCC;strokeColor=#6881B3;gradientColor=none;gradientDirection=north;strokeWidth=2;shape=mxgraph.networks.wireless_modem;" parent="aBZCno5w9hMfPToRCG13-93" vertex="1">
          <mxGeometry x="11.5" y="10" width="40" height="30" as="geometry" />
        </mxCell>
        <mxCell id="aBZCno5w9hMfPToRCG13-96" value="&lt;div&gt;&lt;b&gt;Modem&lt;/b&gt;&lt;/div&gt;" style="text;html=1;strokeColor=none;fillColor=none;align=center;verticalAlign=middle;whiteSpace=wrap;rounded=0;" parent="aBZCno5w9hMfPToRCG13-93" vertex="1">
          <mxGeometry x="4" y="40" width="40" height="20" as="geometry" />
        </mxCell>
        <mxCell id="aBZCno5w9hMfPToRCG13-97" value="SMS" style="text;html=1;strokeColor=#82b366;fillColor=#d5e8d4;align=center;verticalAlign=middle;whiteSpace=wrap;rounded=0;fontStyle=1;fontFamily=Courier New;fontColor=#006600;opacity=80;" parent="1" vertex="1">
          <mxGeometry x="131" y="188" width="40" height="20" as="geometry" />
        </mxCell>
        <mxCell id="aBZCno5w9hMfPToRCG13-98" value="" style="endArrow=classic;html=1;strokeWidth=2;fillColor=#dae8fc;strokeColor=#6c8ebf;shadow=0;comic=1;exitX=0.991;exitY=0.947;exitDx=0;exitDy=0;exitPerimeter=0;entryX=0;entryY=0.25;entryDx=0;entryDy=0;startArrow=classic;startFill=1;" parent="1" target="aBZCno5w9hMfPToRCG13-7" edge="1">
          <mxGeometry width="50" height="50" relative="1" as="geometry">
            <mxPoint x="180" y="95.90999999999997" as="sourcePoint" />
            <mxPoint x="441.59400000000005" y="139.51" as="targetPoint" />
            <Array as="points">
              <mxPoint x="311.134" y="95.5" />
            </Array>
          </mxGeometry>
        </mxCell>
        <mxCell id="aBZCno5w9hMfPToRCG13-99" value="csv" style="text;html=1;strokeColor=none;fillColor=#97D077;align=center;verticalAlign=middle;whiteSpace=wrap;rounded=0;fontFamily=Courier New;fontStyle=1;fontSize=13;fontColor=#FFFFFF;labelBackgroundColor=none;" parent="1" vertex="1">
          <mxGeometry x="312.75" y="120" width="40" height="20" as="geometry" />
        </mxCell>
        <mxCell id="aBZCno5w9hMfPToRCG13-100" value="&lt;div&gt;&lt;font size=&quot;1&quot;&gt;&lt;b style=&quot;font-size: 14px&quot;&gt;Data transformation&lt;br&gt;&lt;/b&gt;&lt;/font&gt;&lt;/div&gt;&lt;div&gt;&amp;lt;specific operations&amp;gt;&lt;br&gt;&amp;lt;generic calculations&amp;gt;&lt;br&gt;&lt;/div&gt;" style="html=1;dropTarget=0;" parent="1" vertex="1">
          <mxGeometry x="847.25" y="79.5" width="192.5" height="50" as="geometry" />
        </mxCell>
        <mxCell id="aBZCno5w9hMfPToRCG13-101" value="" style="shape=module;jettyWidth=8;jettyHeight=4;fillColor=#647687;strokeColor=#314354;fontColor=#ffffff;" parent="aBZCno5w9hMfPToRCG13-100" vertex="1">
          <mxGeometry x="1" width="20" height="20" relative="1" as="geometry">
            <mxPoint x="-27" y="7" as="offset" />
          </mxGeometry>
        </mxCell>
        <mxCell id="aBZCno5w9hMfPToRCG13-103" value="Out of scope" style="text;html=1;strokeColor=none;fillColor=none;align=center;verticalAlign=middle;whiteSpace=wrap;rounded=0;dashed=1;fontStyle=1;fontSize=14;" parent="1" vertex="1">
          <mxGeometry x="20" y="20" width="102.75" height="20" as="geometry" />
        </mxCell>
        <mxCell id="aBZCno5w9hMfPToRCG13-104" value="" style="endArrow=classic;html=1;fontSize=14;entryX=0;entryY=0.5;entryDx=0;entryDy=0;fillColor=#f8cecc;strokeColor=#b85450;strokeWidth=3;" parent="1" source="aBZCno5w9hMfPToRCG13-7" target="aBZCno5w9hMfPToRCG13-9" edge="1">
          <mxGeometry width="50" height="50" relative="1" as="geometry">
            <mxPoint x="572.75" y="140" as="sourcePoint" />
            <mxPoint x="692.75" y="110" as="targetPoint" />
          </mxGeometry>
        </mxCell>
        <mxCell id="aBZCno5w9hMfPToRCG13-105" value="" style="endArrow=classic;html=1;fontSize=14;entryX=0;entryY=0.5;entryDx=0;entryDy=0;exitX=1;exitY=0.5;exitDx=0;exitDy=0;fillColor=#f8cecc;strokeColor=#b85450;strokeWidth=3;" parent="1" source="aBZCno5w9hMfPToRCG13-9" target="aBZCno5w9hMfPToRCG13-100" edge="1">
          <mxGeometry width="50" height="50" relative="1" as="geometry">
            <mxPoint x="803.5" y="110" as="sourcePoint" />
            <mxPoint x="853.5" y="60" as="targetPoint" />
          </mxGeometry>
        </mxCell>
        <mxCell id="aBZCno5w9hMfPToRCG13-112" value="" style="endArrow=classic;startArrow=classic;html=1;fontSize=14;entryX=0.5;entryY=1;entryDx=0;entryDy=0;exitX=0.19;exitY=0;exitDx=0;exitDy=0;exitPerimeter=0;" parent="1" source="aBZCno5w9hMfPToRCG13-108" edge="1">
          <mxGeometry width="50" height="50" relative="1" as="geometry">
            <mxPoint x="757.45" y="212.35000000000002" as="sourcePoint" />
            <mxPoint x="673.2500000000002" y="129.5000000000001" as="targetPoint" />
          </mxGeometry>
        </mxCell>
        <mxCell id="aBZCno5w9hMfPToRCG13-113" value="" style="endArrow=classic;startArrow=classic;html=1;fontSize=14;exitX=1;exitY=0.75;exitDx=0;exitDy=0;" parent="1" source="aBZCno5w9hMfPToRCG13-110" target="aBZCno5w9hMfPToRCG13-108" edge="1">
          <mxGeometry width="50" height="50" relative="1" as="geometry">
            <mxPoint x="1006.75" y="422.85" as="sourcePoint" />
            <mxPoint x="922.5500000000002" y="340.0000000000001" as="targetPoint" />
          </mxGeometry>
        </mxCell>
        <mxCell id="aBZCno5w9hMfPToRCG13-114" value="&lt;div&gt;&lt;font size=&quot;1&quot;&gt;&lt;b style=&quot;font-size: 14px&quot;&gt;Alarming&lt;/b&gt;&lt;/font&gt;&lt;/div&gt;&lt;div&gt;&amp;lt;Detect alarms&amp;gt;&lt;/div&gt;&lt;div&gt;&amp;lt;send sms&amp;gt;&lt;/div&gt;&lt;div&gt;&amp;lt;send mail&amp;gt;&lt;/div&gt;&lt;div&gt;&amp;lt;send push notifications&amp;gt;&lt;/div&gt;&lt;div&gt;&lt;br&gt;&lt;/div&gt;" style="html=1;dropTarget=0;" parent="1" vertex="1">
          <mxGeometry x="1092.75" y="75.5" width="172.5" height="94.5" as="geometry" />
        </mxCell>
        <mxCell id="aBZCno5w9hMfPToRCG13-115" value="" style="shape=module;jettyWidth=8;jettyHeight=4;fillColor=#647687;strokeColor=#314354;fontColor=#ffffff;" parent="aBZCno5w9hMfPToRCG13-114" vertex="1">
          <mxGeometry x="1" width="20" height="20" relative="1" as="geometry">
            <mxPoint x="-27" y="7" as="offset" />
          </mxGeometry>
        </mxCell>
        <mxCell id="aBZCno5w9hMfPToRCG13-116" value="" style="endArrow=classic;html=1;fontSize=14;entryX=0;entryY=0.185;entryDx=0;entryDy=0;exitX=1;exitY=0.25;exitDx=0;exitDy=0;fillColor=#f8cecc;strokeColor=#b85450;strokeWidth=3;entryPerimeter=0;" parent="1" source="aBZCno5w9hMfPToRCG13-100" target="aBZCno5w9hMfPToRCG13-114" edge="1">
          <mxGeometry width="50" height="50" relative="1" as="geometry">
            <mxPoint x="1062.75" y="30" as="sourcePoint" />
            <mxPoint x="1106.5" y="30" as="targetPoint" />
          </mxGeometry>
        </mxCell>
        <mxCell id="aBZCno5w9hMfPToRCG13-119" value="" style="endArrow=classic;startArrow=classic;html=1;fontSize=14;entryX=1;entryY=0.25;entryDx=0;entryDy=0;exitX=0;exitY=0.75;exitDx=0;exitDy=0;fillColor=#f5f5f5;strokeColor=#E3E3E3;" parent="1" source="aBZCno5w9hMfPToRCG13-1" target="aBZCno5w9hMfPToRCG13-108" edge="1">
          <mxGeometry width="50" height="50" relative="1" as="geometry">
            <mxPoint x="852.75" y="310" as="sourcePoint" />
            <mxPoint x="778.5500000000002" y="224.1500000000001" as="targetPoint" />
          </mxGeometry>
        </mxCell>
        <mxCell id="aBZCno5w9hMfPToRCG13-120" value="" style="endArrow=classic;startArrow=classic;html=1;fontSize=14;entryX=0.25;entryY=1;entryDx=0;entryDy=0;exitX=1;exitY=0.25;exitDx=0;exitDy=0;fillColor=#f5f5f5;strokeColor=#E3E3E3;" parent="1" source="aBZCno5w9hMfPToRCG13-110" target="aBZCno5w9hMfPToRCG13-1" edge="1">
          <mxGeometry width="50" height="50" relative="1" as="geometry">
            <mxPoint x="932.75" y="340" as="sourcePoint" />
            <mxPoint x="858.5500000000002" y="254.1500000000001" as="targetPoint" />
          </mxGeometry>
        </mxCell>
        <mxCell id="aBZCno5w9hMfPToRCG13-121" value="Export&lt;br&gt;&lt;span style=&quot;font-weight: normal&quot;&gt;&lt;font style=&quot;font-size: 12px&quot;&gt;&amp;lt;csv, prn&amp;gt;&lt;br&gt;&amp;lt;excel&amp;gt;&lt;br&gt;&lt;/font&gt;&lt;/span&gt;&lt;div&gt;&lt;span style=&quot;font-weight: normal&quot;&gt;&lt;font style=&quot;font-size: 12px&quot;&gt;&amp;lt;pdf&amp;gt;&lt;/font&gt;&lt;/span&gt;&lt;/div&gt;&lt;div&gt;&lt;span style=&quot;font-weight: normal&quot;&gt;&lt;font style=&quot;font-size: 12px&quot;&gt;&amp;lt;customizable&amp;gt;&lt;br&gt;&lt;/font&gt;&lt;/span&gt;&lt;/div&gt;" style="html=1;dropTarget=0;fontSize=14;fontStyle=1" parent="1" vertex="1">
          <mxGeometry x="1272.75" y="180" width="173.25" height="90" as="geometry" />
        </mxCell>
        <mxCell id="aBZCno5w9hMfPToRCG13-122" value="" style="shape=module;jettyWidth=8;jettyHeight=4;fillColor=#647687;strokeColor=#314354;fontColor=#ffffff;" parent="aBZCno5w9hMfPToRCG13-121" vertex="1">
          <mxGeometry x="1" width="20" height="20" relative="1" as="geometry">
            <mxPoint x="-27" y="7" as="offset" />
          </mxGeometry>
        </mxCell>
        <mxCell id="aBZCno5w9hMfPToRCG13-123" value="Callbacks&lt;br&gt;&lt;span style=&quot;font-weight: normal&quot;&gt;&lt;font style=&quot;font-size: 12px&quot;&gt;&amp;lt;http&amp;gt;&lt;br&gt;&amp;lt;customizable&amp;gt;&lt;/font&gt;&lt;/span&gt;" style="html=1;dropTarget=0;fontSize=14;fontStyle=1" parent="1" vertex="1">
          <mxGeometry x="1272.75" y="280" width="173.25" height="70" as="geometry" />
        </mxCell>
        <mxCell id="aBZCno5w9hMfPToRCG13-124" value="" style="shape=module;jettyWidth=8;jettyHeight=4;fillColor=#647687;strokeColor=#314354;fontColor=#ffffff;" parent="aBZCno5w9hMfPToRCG13-123" vertex="1">
          <mxGeometry x="1" width="20" height="20" relative="1" as="geometry">
            <mxPoint x="-27" y="7" as="offset" />
          </mxGeometry>
        </mxCell>
        <mxCell id="aBZCno5w9hMfPToRCG13-127" value="" style="endArrow=classic;startArrow=classic;html=1;strokeWidth=1;fontSize=14;entryX=0;entryY=0.5;entryDx=0;entryDy=0;exitX=1;exitY=0.25;exitDx=0;exitDy=0;fillColor=#f5f5f5;strokeColor=#E3E3E3;" parent="1" source="aBZCno5w9hMfPToRCG13-1" target="aBZCno5w9hMfPToRCG13-123" edge="1">
          <mxGeometry width="50" height="50" relative="1" as="geometry">
            <mxPoint x="782.75" y="470" as="sourcePoint" />
            <mxPoint x="832.75" y="420" as="targetPoint" />
          </mxGeometry>
        </mxCell>
        <mxCell id="aBZCno5w9hMfPToRCG13-128" value="" style="endArrow=classic;startArrow=classic;html=1;strokeWidth=1;fontSize=14;entryX=0;entryY=0.5;entryDx=0;entryDy=0;exitX=1;exitY=0;exitDx=0;exitDy=0;fillColor=#f5f5f5;strokeColor=#E3E3E3;" parent="1" source="aBZCno5w9hMfPToRCG13-1" target="aBZCno5w9hMfPToRCG13-121" edge="1">
          <mxGeometry width="50" height="50" relative="1" as="geometry">
            <mxPoint x="782.75" y="470" as="sourcePoint" />
            <mxPoint x="832.75" y="420" as="targetPoint" />
          </mxGeometry>
        </mxCell>
        <mxCell id="aBZCno5w9hMfPToRCG13-130" value="" style="shape=flexArrow;endArrow=classic;html=1;strokeWidth=1;fontSize=14;exitX=1;exitY=0.5;exitDx=0;exitDy=0;" parent="1" source="aBZCno5w9hMfPToRCG13-121" edge="1">
          <mxGeometry width="50" height="50" relative="1" as="geometry">
            <mxPoint x="1372.75" y="420" as="sourcePoint" />
            <mxPoint x="1502.75" y="225" as="targetPoint" />
          </mxGeometry>
        </mxCell>
        <mxCell id="aBZCno5w9hMfPToRCG13-131" value="" style="shape=flexArrow;endArrow=classic;html=1;strokeWidth=1;fontSize=14;exitX=1;exitY=0.5;exitDx=0;exitDy=0;" parent="1" edge="1">
          <mxGeometry width="50" height="50" relative="1" as="geometry">
            <mxPoint x="1446" y="315" as="sourcePoint" />
            <mxPoint x="1502.75" y="315" as="targetPoint" />
          </mxGeometry>
        </mxCell>
        <mxCell id="aBZCno5w9hMfPToRCG13-132" value="&lt;div&gt;&lt;b&gt;&lt;font style=&quot;font-size: 16px&quot;&gt;API&lt;/font&gt;&lt;/b&gt;&lt;/div&gt;&lt;div&gt;&lt;b&gt;&lt;font style=&quot;font-size: 16px&quot;&gt;&amp;lt;global&amp;gt;&lt;br&gt;&lt;/font&gt;&lt;/b&gt;&lt;/div&gt;" style="html=1;dropTarget=0;" parent="1" vertex="1">
          <mxGeometry x="414.75" y="300" width="130" height="50" as="geometry" />
        </mxCell>
        <mxCell id="aBZCno5w9hMfPToRCG13-133" value="" style="shape=module;jettyWidth=8;jettyHeight=4;fillColor=#647687;strokeColor=#314354;fontColor=#ffffff;" parent="aBZCno5w9hMfPToRCG13-132" vertex="1">
          <mxGeometry x="1" width="20" height="20" relative="1" as="geometry">
            <mxPoint x="-27" y="7" as="offset" />
          </mxGeometry>
        </mxCell>
        <mxCell id="aBZCno5w9hMfPToRCG13-134" value="&lt;div&gt;&lt;font size=&quot;1&quot;&gt;&lt;b style=&quot;font-size: 14px&quot;&gt;Data Map&lt;/b&gt;&lt;/font&gt;&lt;/div&gt;&lt;div&gt;&amp;lt;view point of measures&amp;gt;&lt;/div&gt;&lt;div&gt;&amp;lt;color with alarms&amp;gt;&lt;/div&gt;&lt;div&gt;&amp;lt;color specific&amp;gt;&lt;/div&gt;&lt;div&gt;&amp;lt;view data&amp;gt;&lt;/div&gt;&lt;div&gt;&amp;lt;own map&amp;gt;&lt;br&gt;&lt;/div&gt;" style="html=1;dropTarget=0;" parent="1" vertex="1">
          <mxGeometry x="515.5" y="666" width="156" height="90" as="geometry" />
        </mxCell>
        <mxCell id="aBZCno5w9hMfPToRCG13-135" value="" style="shape=module;jettyWidth=8;jettyHeight=4;fillColor=#fff2cc;strokeColor=#d6b656;" parent="aBZCno5w9hMfPToRCG13-134" vertex="1">
          <mxGeometry x="1" width="20" height="20" relative="1" as="geometry">
            <mxPoint x="-27" y="7" as="offset" />
          </mxGeometry>
        </mxCell>
        <mxCell id="aBZCno5w9hMfPToRCG13-136" value="&lt;div&gt;&lt;font size=&quot;1&quot;&gt;&lt;b style=&quot;font-size: 14px&quot;&gt;Alarm management&lt;br&gt;&lt;/b&gt;&lt;/font&gt;&lt;/div&gt;&lt;div&gt;&lt;br&gt;&lt;/div&gt;" style="html=1;dropTarget=0;" parent="1" vertex="1">
          <mxGeometry x="1182.75" y="430" width="200" height="50" as="geometry" />
        </mxCell>
        <mxCell id="aBZCno5w9hMfPToRCG13-137" value="" style="shape=module;jettyWidth=8;jettyHeight=4;fillColor=#dae8fc;strokeColor=#6c8ebf;" parent="aBZCno5w9hMfPToRCG13-136" vertex="1">
          <mxGeometry x="1" width="20" height="20" relative="1" as="geometry">
            <mxPoint x="-27" y="7" as="offset" />
          </mxGeometry>
        </mxCell>
        <mxCell id="aBZCno5w9hMfPToRCG13-138" value="&lt;div&gt;&lt;font size=&quot;1&quot;&gt;&lt;b style=&quot;font-size: 14px&quot;&gt;Application management&lt;br&gt;&lt;/b&gt;&lt;/font&gt;&lt;/div&gt;&lt;div&gt;&lt;br&gt;&lt;/div&gt;" style="html=1;dropTarget=0;" parent="1" vertex="1">
          <mxGeometry x="1216" y="490" width="230" height="50" as="geometry" />
        </mxCell>
        <mxCell id="aBZCno5w9hMfPToRCG13-139" value="" style="shape=module;jettyWidth=8;jettyHeight=4;fillColor=#d5e8d4;strokeColor=#82b366;" parent="aBZCno5w9hMfPToRCG13-138" vertex="1">
          <mxGeometry x="1" width="20" height="20" relative="1" as="geometry">
            <mxPoint x="-27" y="7" as="offset" />
          </mxGeometry>
        </mxCell>
        <mxCell id="aBZCno5w9hMfPToRCG13-140" value="&lt;div&gt;&lt;font size=&quot;1&quot;&gt;&lt;b style=&quot;font-size: 14px&quot;&gt;Calculations management&lt;br&gt;&lt;/b&gt;&lt;/font&gt;&lt;/div&gt;&lt;div&gt;&amp;lt;filters&amp;gt;&lt;/div&gt;&lt;div&gt;&amp;lt;statistics&amp;gt;&lt;/div&gt;&lt;div&gt;&amp;lt;mathematics&amp;gt;&lt;/div&gt;&lt;div&gt;&amp;lt;grouping&amp;gt;&lt;/div&gt;&lt;div&gt;&amp;lt;calculations templates&amp;gt;&lt;/div&gt;&lt;div&gt;&amp;lt;auto create from templates&amp;gt;&lt;br&gt;&lt;/div&gt;" style="html=1;dropTarget=0;" parent="1" vertex="1">
          <mxGeometry x="1216" y="550" width="250" height="100" as="geometry" />
        </mxCell>
        <mxCell id="aBZCno5w9hMfPToRCG13-141" value="" style="shape=module;jettyWidth=8;jettyHeight=4;fillColor=#dae8fc;strokeColor=#6c8ebf;" parent="aBZCno5w9hMfPToRCG13-140" vertex="1">
          <mxGeometry x="1" width="20" height="20" relative="1" as="geometry">
            <mxPoint x="-27" y="7" as="offset" />
          </mxGeometry>
        </mxCell>
        <mxCell id="aBZCno5w9hMfPToRCG13-142" value="" style="endArrow=classic;startArrow=classic;html=1;strokeWidth=1;fontSize=14;entryX=0.25;entryY=0;entryDx=0;entryDy=0;exitX=1;exitY=0.5;exitDx=0;exitDy=0;fillColor=#f5f5f5;strokeColor=#E3E3E3;" parent="1" source="aBZCno5w9hMfPToRCG13-1" target="aBZCno5w9hMfPToRCG13-136" edge="1">
          <mxGeometry width="50" height="50" relative="1" as="geometry">
            <mxPoint x="1192.75" y="380" as="sourcePoint" />
            <mxPoint x="1405" y="347.5" as="targetPoint" />
          </mxGeometry>
        </mxCell>
        <mxCell id="aBZCno5w9hMfPToRCG13-147" value="" style="shape=flexArrow;endArrow=classic;html=1;strokeWidth=1;fontSize=14;exitX=1;exitY=0.5;exitDx=0;exitDy=0;" parent="1" source="aBZCno5w9hMfPToRCG13-114" edge="1">
          <mxGeometry width="50" height="50" relative="1" as="geometry">
            <mxPoint x="1446" y="110" as="sourcePoint" />
            <mxPoint x="1502.75" y="123" as="targetPoint" />
          </mxGeometry>
        </mxCell>
        <mxCell id="aBZCno5w9hMfPToRCG13-148" value="" style="endArrow=classic;startArrow=classic;html=1;strokeWidth=1;fontSize=14;entryX=0.75;entryY=1;entryDx=0;entryDy=0;exitX=0;exitY=0.32;exitDx=0;exitDy=0;exitPerimeter=0;" parent="1" source="aBZCno5w9hMfPToRCG13-140" target="aBZCno5w9hMfPToRCG13-100" edge="1">
          <mxGeometry width="50" height="50" relative="1" as="geometry">
            <mxPoint x="782.75" y="350" as="sourcePoint" />
            <mxPoint x="832.75" y="300" as="targetPoint" />
          </mxGeometry>
        </mxCell>
        <mxCell id="aBZCno5w9hMfPToRCG13-149" value="" style="endArrow=classic;startArrow=classic;html=1;strokeWidth=1;fontSize=14;entryX=0.562;entryY=1.021;entryDx=0;entryDy=0;entryPerimeter=0;exitX=0.25;exitY=0;exitDx=0;exitDy=0;" parent="1" source="aBZCno5w9hMfPToRCG13-136" target="aBZCno5w9hMfPToRCG13-114" edge="1">
          <mxGeometry width="50" height="50" relative="1" as="geometry">
            <mxPoint x="782.75" y="350" as="sourcePoint" />
            <mxPoint x="832.75" y="300" as="targetPoint" />
          </mxGeometry>
        </mxCell>
        <mxCell id="aBZCno5w9hMfPToRCG13-150" value="" style="endArrow=classic;startArrow=classic;html=1;fontSize=14;entryX=0.25;entryY=1;entryDx=0;entryDy=0;exitX=0.5;exitY=0;exitDx=0;exitDy=0;fillColor=#f5f5f5;strokeColor=#E3E3E3;" parent="1" source="aBZCno5w9hMfPToRCG13-134" target="aBZCno5w9hMfPToRCG13-1" edge="1">
          <mxGeometry width="50" height="50" relative="1" as="geometry">
            <mxPoint x="807.75" y="600" as="sourcePoint" />
            <mxPoint x="999.3125" y="490" as="targetPoint" />
          </mxGeometry>
        </mxCell>
        <mxCell id="aBZCno5w9hMfPToRCG13-151" value="&lt;div&gt;&lt;font size=&quot;1&quot;&gt;&lt;b style=&quot;font-size: 14px&quot;&gt;Data History Graph&lt;/b&gt;&lt;/font&gt;&lt;/div&gt;&lt;div&gt;&amp;lt;filter data&amp;gt;&lt;/div&gt;&lt;div&gt;&amp;lt;view alarms&amp;gt;&lt;/div&gt;&lt;div&gt;&amp;lt;lines, bars, etc.&amp;gt;&lt;br&gt;&lt;/div&gt;" style="html=1;dropTarget=0;" parent="1" vertex="1">
          <mxGeometry x="683.75" y="666" width="190" height="80" as="geometry" />
        </mxCell>
        <mxCell id="aBZCno5w9hMfPToRCG13-152" value="" style="shape=module;jettyWidth=8;jettyHeight=4;fillColor=#fff2cc;strokeColor=#d6b656;" parent="aBZCno5w9hMfPToRCG13-151" vertex="1">
          <mxGeometry x="1" width="20" height="20" relative="1" as="geometry">
            <mxPoint x="-27" y="7" as="offset" />
          </mxGeometry>
        </mxCell>
        <mxCell id="aBZCno5w9hMfPToRCG13-153" value="" style="endArrow=classic;startArrow=classic;html=1;fontSize=14;entryX=0.5;entryY=1;entryDx=0;entryDy=0;exitX=0.25;exitY=0;exitDx=0;exitDy=0;fillColor=#f5f5f5;strokeColor=#E3E3E3;" parent="1" source="aBZCno5w9hMfPToRCG13-151" target="aBZCno5w9hMfPToRCG13-1" edge="1">
          <mxGeometry width="50" height="50" relative="1" as="geometry">
            <mxPoint x="922.75" y="540" as="sourcePoint" />
            <mxPoint x="974.8125" y="320" as="targetPoint" />
          </mxGeometry>
        </mxCell>
        <mxCell id="aBZCno5w9hMfPToRCG13-156" value="&lt;div&gt;&lt;font size=&quot;1&quot;&gt;&lt;b style=&quot;font-size: 14px&quot;&gt;Data List&lt;/b&gt;&lt;/font&gt;&lt;/div&gt;&lt;div&gt;&amp;lt;last received data&amp;gt;&lt;/div&gt;&lt;div&gt;&amp;lt;view alarms&amp;gt;&lt;/div&gt;&lt;div&gt;&lt;br&gt;&lt;/div&gt;" style="html=1;dropTarget=0;" parent="1" vertex="1">
          <mxGeometry x="890.75" y="666" width="190" height="80" as="geometry" />
        </mxCell>
        <mxCell id="aBZCno5w9hMfPToRCG13-157" value="" style="shape=module;jettyWidth=8;jettyHeight=4;fillColor=#fff2cc;strokeColor=#d6b656;" parent="aBZCno5w9hMfPToRCG13-156" vertex="1">
          <mxGeometry x="1" width="20" height="20" relative="1" as="geometry">
            <mxPoint x="-27" y="7" as="offset" />
          </mxGeometry>
        </mxCell>
        <mxCell id="aBZCno5w9hMfPToRCG13-158" value="" style="endArrow=classic;startArrow=classic;html=1;fontSize=14;entryX=0.75;entryY=1;entryDx=0;entryDy=0;exitX=0.25;exitY=0;exitDx=0;exitDy=0;fillColor=#f5f5f5;strokeColor=#E3E3E3;" parent="1" source="aBZCno5w9hMfPToRCG13-156" target="aBZCno5w9hMfPToRCG13-1" edge="1">
          <mxGeometry width="50" height="50" relative="1" as="geometry">
            <mxPoint x="972.75" y="590" as="sourcePoint" />
            <mxPoint x="995.625" y="340" as="targetPoint" />
          </mxGeometry>
        </mxCell>
        <mxCell id="aBZCno5w9hMfPToRCG13-162" value="" style="endArrow=classic;startArrow=classic;html=1;fontSize=14;entryX=1;entryY=0.25;entryDx=0;entryDy=0;exitX=0;exitY=0.25;exitDx=0;exitDy=0;fillColor=#eeeeee;strokeColor=#E3E3E3;" parent="1" source="aBZCno5w9hMfPToRCG13-1" target="aBZCno5w9hMfPToRCG13-132" edge="1">
          <mxGeometry width="50" height="50" relative="1" as="geometry">
            <mxPoint x="722.75" y="300" as="sourcePoint" />
            <mxPoint x="673" y="292.5" as="targetPoint" />
          </mxGeometry>
        </mxCell>
        <mxCell id="aBZCno5w9hMfPToRCG13-163" value="&lt;div&gt;&lt;font size=&quot;1&quot;&gt;&lt;b style=&quot;font-size: 14px&quot;&gt;Custom Dashboard&lt;br&gt;&lt;/b&gt;&lt;/font&gt;&lt;/div&gt;&lt;div&gt;&amp;lt;last received data&amp;gt;&lt;/div&gt;&lt;div&gt;&amp;lt;historical data&amp;gt;&lt;br&gt;&lt;/div&gt;&lt;div&gt;&amp;lt;view alarms&amp;gt;&lt;/div&gt;&lt;div&gt;&lt;br&gt;&lt;/div&gt;" style="html=1;dropTarget=0;" parent="1" vertex="1">
          <mxGeometry x="302.75" y="666" width="190" height="80" as="geometry" />
        </mxCell>
        <mxCell id="aBZCno5w9hMfPToRCG13-164" value="" style="shape=module;jettyWidth=8;jettyHeight=4;fillColor=#fff2cc;strokeColor=#d6b656;" parent="aBZCno5w9hMfPToRCG13-163" vertex="1">
          <mxGeometry x="1" width="20" height="20" relative="1" as="geometry">
            <mxPoint x="-27" y="7" as="offset" />
          </mxGeometry>
        </mxCell>
        <mxCell id="aBZCno5w9hMfPToRCG13-165" value="&lt;div&gt;&lt;font size=&quot;1&quot;&gt;&lt;b style=&quot;font-size: 14px&quot;&gt;Alarm validation&lt;br&gt;&lt;/b&gt;&lt;/font&gt;&lt;/div&gt;&lt;br&gt;&lt;div&gt;&lt;br&gt;&lt;/div&gt;" style="html=1;dropTarget=0;" parent="1" vertex="1">
          <mxGeometry x="1092.75" y="666" width="190" height="80" as="geometry" />
        </mxCell>
        <mxCell id="aBZCno5w9hMfPToRCG13-166" value="" style="shape=module;jettyWidth=8;jettyHeight=4;fillColor=#fff2cc;strokeColor=#d6b656;" parent="aBZCno5w9hMfPToRCG13-165" vertex="1">
          <mxGeometry x="1" width="20" height="20" relative="1" as="geometry">
            <mxPoint x="-27" y="7" as="offset" />
          </mxGeometry>
        </mxCell>
        <mxCell id="aBZCno5w9hMfPToRCG13-167" value="" style="endArrow=classic;startArrow=classic;html=1;fontSize=14;entryX=0.25;entryY=1;entryDx=0;entryDy=0;fillColor=#eeeeee;strokeColor=#E3E3E3;" parent="1" source="aBZCno5w9hMfPToRCG13-163" target="aBZCno5w9hMfPToRCG13-1" edge="1">
          <mxGeometry width="50" height="50" relative="1" as="geometry">
            <mxPoint x="832.75" y="540" as="sourcePoint" />
            <mxPoint x="1024.3125" y="430" as="targetPoint" />
          </mxGeometry>
        </mxCell>
        <mxCell id="aBZCno5w9hMfPToRCG13-168" value="" style="endArrow=classic;startArrow=classic;html=1;strokeWidth=1;fontSize=14;entryX=0;entryY=1;entryDx=0;entryDy=0;" parent="1" source="aBZCno5w9hMfPToRCG13-165" target="aBZCno5w9hMfPToRCG13-136" edge="1">
          <mxGeometry width="50" height="50" relative="1" as="geometry">
            <mxPoint x="1092.75" y="570" as="sourcePoint" />
            <mxPoint x="1049.6950000000002" y="311.9845" as="targetPoint" />
          </mxGeometry>
        </mxCell>
        <mxCell id="aBZCno5w9hMfPToRCG13-169" value="" style="endArrow=classic;startArrow=classic;html=1;strokeWidth=1;fontSize=14;exitX=1;exitY=1;exitDx=0;exitDy=0;fillColor=#f5f5f5;strokeColor=#E3E3E3;" parent="1" source="aBZCno5w9hMfPToRCG13-1" target="aBZCno5w9hMfPToRCG13-165" edge="1">
          <mxGeometry width="50" height="50" relative="1" as="geometry">
            <mxPoint x="1062.75" y="580" as="sourcePoint" />
            <mxPoint x="1306" y="742.5" as="targetPoint" />
          </mxGeometry>
        </mxCell>
        <mxCell id="aBZCno5w9hMfPToRCG13-170" value="" style="endArrow=classic;startArrow=classic;html=1;fontSize=14;entryX=0.25;entryY=1;entryDx=0;entryDy=0;fillColor=#ffcc99;exitX=0.5;exitY=0;exitDx=0;exitDy=0;strokeColor=#FFD49C;" parent="1" source="aBZCno5w9hMfPToRCG13-163" target="aBZCno5w9hMfPToRCG13-108" edge="1">
          <mxGeometry width="50" height="50" relative="1" as="geometry">
            <mxPoint x="552.75" y="570" as="sourcePoint" />
            <mxPoint x="933.310688405797" y="334" as="targetPoint" />
          </mxGeometry>
        </mxCell>
        <mxCell id="aBZCno5w9hMfPToRCG13-171" value="" style="endArrow=classic;startArrow=classic;html=1;fontSize=14;entryX=0.5;entryY=1;entryDx=0;entryDy=0;fillColor=#ffcc99;exitX=0.5;exitY=0;exitDx=0;exitDy=0;strokeColor=#FFD49C;" parent="1" source="aBZCno5w9hMfPToRCG13-134" target="aBZCno5w9hMfPToRCG13-108" edge="1">
          <mxGeometry width="50" height="50" relative="1" as="geometry">
            <mxPoint x="402.75" y="580" as="sourcePoint" />
            <mxPoint x="604.75" y="394" as="targetPoint" />
          </mxGeometry>
        </mxCell>
        <mxCell id="aBZCno5w9hMfPToRCG13-172" value="" style="endArrow=classic;startArrow=classic;html=1;fontSize=14;entryX=0.5;entryY=0;entryDx=0;entryDy=0;fillColor=#ffcc99;exitX=0.75;exitY=1;exitDx=0;exitDy=0;strokeColor=#FFD49C;" parent="1" source="aBZCno5w9hMfPToRCG13-108" target="aBZCno5w9hMfPToRCG13-151" edge="1">
          <mxGeometry width="50" height="50" relative="1" as="geometry">
            <mxPoint x="662.75" y="510" as="sourcePoint" />
            <mxPoint x="864.75" y="324" as="targetPoint" />
          </mxGeometry>
        </mxCell>
        <mxCell id="aBZCno5w9hMfPToRCG13-173" value="" style="endArrow=classic;startArrow=classic;html=1;fontSize=14;entryX=0.25;entryY=0;entryDx=0;entryDy=0;fillColor=#ffcc99;exitX=0.75;exitY=1;exitDx=0;exitDy=0;strokeColor=#FFD49C;" parent="1" source="aBZCno5w9hMfPToRCG13-108" target="aBZCno5w9hMfPToRCG13-156" edge="1">
          <mxGeometry width="50" height="50" relative="1" as="geometry">
            <mxPoint x="772.75" y="540" as="sourcePoint" />
            <mxPoint x="974.75" y="354" as="targetPoint" />
          </mxGeometry>
        </mxCell>
        <mxCell id="aBZCno5w9hMfPToRCG13-174" value="" style="endArrow=classic;startArrow=classic;html=1;fontSize=14;fillColor=#ffcc99;exitX=0.75;exitY=1;exitDx=0;exitDy=0;strokeColor=#FFD49C;" parent="1" source="aBZCno5w9hMfPToRCG13-108" target="aBZCno5w9hMfPToRCG13-165" edge="1">
          <mxGeometry width="50" height="50" relative="1" as="geometry">
            <mxPoint x="902.75" y="570" as="sourcePoint" />
            <mxPoint x="1104.75" y="384" as="targetPoint" />
          </mxGeometry>
        </mxCell>
        <mxCell id="aBZCno5w9hMfPToRCG13-184" value="" style="verticalLabelPosition=bottom;aspect=fixed;html=1;verticalAlign=top;strokeColor=none;align=center;outlineConnect=0;shape=mxgraph.citrix.tablet_2;dashed=1;fillColor=none;fontSize=14;" parent="1" vertex="1">
          <mxGeometry x="265" y="300" width="57.21" height="60" as="geometry" />
        </mxCell>
        <mxCell id="aBZCno5w9hMfPToRCG13-185" value="&lt;div&gt;&lt;font size=&quot;1&quot;&gt;&lt;b style=&quot;font-size: 14px&quot;&gt;Device Network&lt;/b&gt;&lt;/font&gt;&lt;/div&gt;&lt;div&gt;&lt;font size=&quot;1&quot;&gt;&lt;b style=&quot;font-size: 14px&quot;&gt;Management&lt;br&gt;&lt;/b&gt;&lt;/font&gt;&lt;/div&gt;&lt;div&gt;&lt;font size=&quot;1&quot;&gt;&lt;b style=&quot;font-size: 14px&quot;&gt;&lt;font color=&quot;#3333FF&quot;&gt;&lt;i style=&quot;font-size: 12px&quot;&gt;&amp;lt;Fast&amp;gt;&lt;/i&gt;&lt;/font&gt;&lt;br&gt;&lt;/b&gt;&lt;/font&gt;&lt;/div&gt;" style="html=1;dropTarget=0;" parent="1" vertex="1">
          <mxGeometry x="37.5" y="400" width="160" height="60" as="geometry" />
        </mxCell>
        <mxCell id="aBZCno5w9hMfPToRCG13-186" value="" style="shape=module;jettyWidth=8;jettyHeight=4;fillColor=#d5e8d4;strokeColor=#82b366;" parent="aBZCno5w9hMfPToRCG13-185" vertex="1">
          <mxGeometry x="1" width="20" height="20" relative="1" as="geometry">
            <mxPoint x="-27" y="7" as="offset" />
          </mxGeometry>
        </mxCell>
        <mxCell id="aBZCno5w9hMfPToRCG13-188" value="" style="endArrow=classic;startArrow=classic;html=1;fontSize=14;exitX=1;exitY=0.5;exitDx=0;exitDy=0;entryX=0;entryY=1;entryDx=0;entryDy=0;strokeColor=#FFD49C;" parent="1" source="aBZCno5w9hMfPToRCG13-185" target="aBZCno5w9hMfPToRCG13-108" edge="1">
          <mxGeometry width="50" height="50" relative="1" as="geometry">
            <mxPoint x="490" y="540" as="sourcePoint" />
            <mxPoint x="557" y="519.438622754491" as="targetPoint" />
          </mxGeometry>
        </mxCell>
        <mxCell id="aBZCno5w9hMfPToRCG13-189" value="&lt;div&gt;&lt;font size=&quot;1&quot;&gt;&lt;b style=&quot;font-size: 14px&quot;&gt;SmartBridge&lt;/b&gt;&lt;/font&gt;&lt;/div&gt;&lt;div&gt;&lt;font size=&quot;1&quot;&gt;&lt;b style=&quot;font-size: 14px&quot;&gt;Management&lt;br&gt;&lt;/b&gt;&lt;/font&gt;&lt;/div&gt;&lt;div&gt;&lt;font size=&quot;1&quot;&gt;&lt;b style=&quot;font-size: 14px&quot;&gt;&lt;font color=&quot;#3333FF&quot;&gt;&lt;i style=&quot;font-size: 12px&quot;&gt;&amp;lt;Fast&amp;gt;&lt;/i&gt;&lt;/font&gt;&lt;br&gt;&lt;/b&gt;&lt;/font&gt;&lt;/div&gt;" style="html=1;dropTarget=0;" parent="1" vertex="1">
          <mxGeometry x="38" y="470" width="160" height="60" as="geometry" />
        </mxCell>
        <mxCell id="aBZCno5w9hMfPToRCG13-190" value="" style="shape=module;jettyWidth=8;jettyHeight=4;fillColor=#d5e8d4;strokeColor=#82b366;" parent="aBZCno5w9hMfPToRCG13-189" vertex="1">
          <mxGeometry x="1" width="20" height="20" relative="1" as="geometry">
            <mxPoint x="-27" y="7" as="offset" />
          </mxGeometry>
        </mxCell>
        <mxCell id="aBZCno5w9hMfPToRCG13-191" value="" style="endArrow=classic;startArrow=classic;html=1;fontSize=14;exitX=1;exitY=0.5;exitDx=0;exitDy=0;entryX=0.25;entryY=1;entryDx=0;entryDy=0;strokeColor=#FFD49C;" parent="1" source="aBZCno5w9hMfPToRCG13-189" target="aBZCno5w9hMfPToRCG13-108" edge="1">
          <mxGeometry width="50" height="50" relative="1" as="geometry">
            <mxPoint x="257.5" y="550" as="sourcePoint" />
            <mxPoint x="559.75" y="490" as="targetPoint" />
          </mxGeometry>
        </mxCell>
        <mxCell id="aBZCno5w9hMfPToRCG13-192" value="" style="endArrow=classic;startArrow=classic;html=1;fontSize=14;exitX=0.997;exitY=0.117;exitDx=0;exitDy=0;fillColor=#f5f5f5;strokeColor=#E3E3E3;exitPerimeter=0;entryX=0;entryY=0.75;entryDx=0;entryDy=0;" parent="1" source="aBZCno5w9hMfPToRCG13-189" target="aBZCno5w9hMfPToRCG13-1" edge="1">
          <mxGeometry width="50" height="50" relative="1" as="geometry">
            <mxPoint x="257.5" y="535" as="sourcePoint" />
            <mxPoint x="800" y="430" as="targetPoint" />
          </mxGeometry>
        </mxCell>
        <mxCell id="aBZCno5w9hMfPToRCG13-193" value="" style="endArrow=classic;startArrow=classic;html=1;strokeWidth=1;fontSize=14;exitX=1;exitY=0.5;exitDx=0;exitDy=0;" parent="1" source="aBZCno5w9hMfPToRCG13-64" target="aBZCno5w9hMfPToRCG13-184" edge="1">
          <mxGeometry width="50" height="50" relative="1" as="geometry">
            <mxPoint x="290" y="390" as="sourcePoint" />
            <mxPoint x="340" y="340" as="targetPoint" />
          </mxGeometry>
        </mxCell>
        <mxCell id="aBZCno5w9hMfPToRCG13-194" value="" style="endArrow=classic;html=1;strokeWidth=2;fillColor=#dae8fc;strokeColor=#6c8ebf;shadow=0;comic=1;entryX=0.001;entryY=0.819;entryDx=0;entryDy=0;entryPerimeter=0;" parent="1" source="aBZCno5w9hMfPToRCG13-184" target="aBZCno5w9hMfPToRCG13-7" edge="1">
          <mxGeometry width="50" height="50" relative="1" as="geometry">
            <mxPoint x="252" y="259" as="sourcePoint" />
            <mxPoint x="406.53999999999996" y="184.98000000000002" as="targetPoint" />
            <Array as="points">
              <mxPoint x="350" y="250" />
            </Array>
          </mxGeometry>
        </mxCell>
        <mxCell id="aBZCno5w9hMfPToRCG13-195" value="&lt;div&gt;&lt;font size=&quot;1&quot;&gt;&lt;b style=&quot;font-size: 14px&quot;&gt;Tablet &lt;br&gt;&lt;/b&gt;&lt;/font&gt;&lt;/div&gt;&lt;div&gt;&lt;font size=&quot;1&quot;&gt;&lt;b style=&quot;font-size: 14px&quot;&gt;Registration&lt;br&gt;&lt;/b&gt;&lt;/font&gt;&lt;/div&gt;&lt;div&gt;&lt;font size=&quot;1&quot;&gt;&lt;b style=&quot;font-size: 14px&quot;&gt;&lt;font color=&quot;#3333FF&quot;&gt;&lt;i style=&quot;font-size: 12px&quot;&gt;&amp;lt;Fast&amp;gt;&lt;/i&gt;&lt;/font&gt;&lt;br&gt;&lt;/b&gt;&lt;/font&gt;&lt;/div&gt;" style="html=1;dropTarget=0;" parent="1" vertex="1">
          <mxGeometry x="38" y="540" width="160" height="60" as="geometry" />
        </mxCell>
        <mxCell id="aBZCno5w9hMfPToRCG13-196" value="" style="shape=module;jettyWidth=8;jettyHeight=4;fillColor=#d5e8d4;strokeColor=#82b366;" parent="aBZCno5w9hMfPToRCG13-195" vertex="1">
          <mxGeometry x="1" width="20" height="20" relative="1" as="geometry">
            <mxPoint x="-27" y="7" as="offset" />
          </mxGeometry>
        </mxCell>
        <mxCell id="aBZCno5w9hMfPToRCG13-197" value="" style="endArrow=classic;startArrow=classic;html=1;fontSize=14;exitX=1;exitY=0.75;exitDx=0;exitDy=0;strokeColor=#FFD49C;" parent="1" source="aBZCno5w9hMfPToRCG13-195" edge="1">
          <mxGeometry width="50" height="50" relative="1" as="geometry">
            <mxPoint x="208" y="510" as="sourcePoint" />
            <mxPoint x="600" y="480" as="targetPoint" />
          </mxGeometry>
        </mxCell>
        <mxCell id="aBZCno5w9hMfPToRCG13-198" value="" style="endArrow=classic;startArrow=classic;html=1;fontSize=14;exitX=1;exitY=0.25;exitDx=0;exitDy=0;fillColor=#f5f5f5;strokeColor=#E3E3E3;entryX=0;entryY=0.75;entryDx=0;entryDy=0;" parent="1" source="aBZCno5w9hMfPToRCG13-195" target="aBZCno5w9hMfPToRCG13-1" edge="1">
          <mxGeometry width="50" height="50" relative="1" as="geometry">
            <mxPoint x="207.51999999999998" y="487.02" as="sourcePoint" />
            <mxPoint x="809.5" y="422.5" as="targetPoint" />
          </mxGeometry>
        </mxCell>
        <mxCell id="aBZCno5w9hMfPToRCG13-199" value="&lt;div&gt;&lt;font size=&quot;1&quot;&gt;&lt;b style=&quot;font-size: 14px&quot;&gt;Container, &lt;br&gt;&lt;/b&gt;&lt;/font&gt;&lt;/div&gt;&lt;div&gt;&lt;font size=&quot;1&quot;&gt;&lt;b style=&quot;font-size: 14px&quot;&gt;Content &amp;amp; density&lt;br&gt;&lt;/b&gt;&lt;/font&gt;&lt;/div&gt;&lt;div&gt;&lt;font size=&quot;1&quot;&gt;&lt;b style=&quot;font-size: 14px&quot;&gt;Management&lt;br&gt;&lt;/b&gt;&lt;/font&gt;&lt;/div&gt;&lt;div&gt;&lt;font size=&quot;1&quot;&gt;&lt;b style=&quot;font-size: 14px&quot;&gt;&lt;font color=&quot;#3333FF&quot;&gt;&lt;i style=&quot;font-size: 12px&quot;&gt;&amp;lt;Ijinus&amp;gt;&lt;/i&gt;&lt;/font&gt;&lt;br&gt;&lt;/b&gt;&lt;/font&gt;&lt;/div&gt;" style="html=1;dropTarget=0;" parent="1" vertex="1">
          <mxGeometry x="37.5" y="610" width="180" height="70" as="geometry" />
        </mxCell>
        <mxCell id="aBZCno5w9hMfPToRCG13-200" value="" style="shape=module;jettyWidth=8;jettyHeight=4;fillColor=#d5e8d4;strokeColor=#82b366;" parent="aBZCno5w9hMfPToRCG13-199" vertex="1">
          <mxGeometry x="1" width="20" height="20" relative="1" as="geometry">
            <mxPoint x="-27" y="7" as="offset" />
          </mxGeometry>
        </mxCell>
        <mxCell id="aBZCno5w9hMfPToRCG13-201" value="" style="endArrow=classic;startArrow=classic;html=1;fontSize=14;exitX=1;exitY=0.5;exitDx=0;exitDy=0;strokeColor=#FFD49C;entryX=0.25;entryY=1;entryDx=0;entryDy=0;" parent="1" source="aBZCno5w9hMfPToRCG13-199" target="aBZCno5w9hMfPToRCG13-108" edge="1">
          <mxGeometry width="50" height="50" relative="1" as="geometry">
            <mxPoint x="208" y="595" as="sourcePoint" />
            <mxPoint x="610" y="490" as="targetPoint" />
          </mxGeometry>
        </mxCell>
        <mxCell id="aBZCno5w9hMfPToRCG13-202" value="" style="endArrow=classic;startArrow=classic;html=1;fontSize=14;exitX=1;exitY=0.25;exitDx=0;exitDy=0;fillColor=#f5f5f5;strokeColor=#E3E3E3;entryX=0;entryY=0.75;entryDx=0;entryDy=0;" parent="1" source="aBZCno5w9hMfPToRCG13-199" target="aBZCno5w9hMfPToRCG13-1" edge="1">
          <mxGeometry width="50" height="50" relative="1" as="geometry">
            <mxPoint x="208" y="565" as="sourcePoint" />
            <mxPoint x="809.5" y="422.5" as="targetPoint" />
          </mxGeometry>
        </mxCell>
        <mxCell id="aBZCno5w9hMfPToRCG13-110" value="&lt;div&gt;&lt;font size=&quot;1&quot;&gt;&lt;b style=&quot;font-size: 14px&quot;&gt;Device Provisioning&lt;br&gt;&lt;/b&gt;&lt;/font&gt;&lt;/div&gt;&lt;div&gt;&amp;lt;Init of devices&amp;gt;&lt;/div&gt;&lt;div&gt;&amp;lt;device declaration&amp;gt;&lt;br&gt;&lt;/div&gt;&lt;div&gt;&amp;lt;Define device owner&amp;gt;&lt;/div&gt;&lt;div&gt;&amp;lt;Define device relations&amp;gt;&lt;br&gt;&lt;/div&gt;" style="html=1;dropTarget=0;" parent="1" vertex="1">
          <mxGeometry x="282.75" y="425" width="200" height="75" as="geometry" />
        </mxCell>
        <mxCell id="aBZCno5w9hMfPToRCG13-111" value="" style="shape=module;jettyWidth=8;jettyHeight=4;fillColor=#d5e8d4;strokeColor=#82b366;" parent="aBZCno5w9hMfPToRCG13-110" vertex="1">
          <mxGeometry x="1" width="20" height="20" relative="1" as="geometry">
            <mxPoint x="-27" y="7" as="offset" />
          </mxGeometry>
        </mxCell>
        <mxCell id="aBZCno5w9hMfPToRCG13-108" value="&lt;div&gt;&lt;font size=&quot;1&quot;&gt;&lt;b style=&quot;font-size: 14px&quot;&gt;Device management&lt;br&gt;&lt;/b&gt;&lt;/font&gt;&lt;/div&gt;&lt;div&gt;&amp;lt;devices&amp;gt;&lt;/div&gt;&lt;div&gt;&amp;lt;Point of measure&amp;gt;&lt;/div&gt;&lt;div&gt;&amp;lt;gps&amp;gt;&lt;/div&gt;&lt;div&gt;&amp;lt;groups&amp;gt;&lt;br&gt;&lt;/div&gt;" style="html=1;dropTarget=0;" parent="1" vertex="1">
          <mxGeometry x="549.75" y="380" width="200" height="100" as="geometry" />
        </mxCell>
        <mxCell id="aBZCno5w9hMfPToRCG13-109" value="" style="shape=module;jettyWidth=8;jettyHeight=4;fillColor=#d5e8d4;strokeColor=#82b366;" parent="aBZCno5w9hMfPToRCG13-108" vertex="1">
          <mxGeometry x="1" width="20" height="20" relative="1" as="geometry">
            <mxPoint x="-27" y="7" as="offset" />
          </mxGeometry>
        </mxCell>
        <mxCell id="aBZCno5w9hMfPToRCG13-203" value="&lt;div&gt;&lt;font size=&quot;1&quot;&gt;&lt;b style=&quot;font-size: 14px&quot;&gt;Gis management&lt;br&gt;&lt;/b&gt;&lt;/font&gt;&lt;/div&gt;&lt;div&gt;&amp;lt;Own map&amp;gt;&lt;/div&gt;&lt;div&gt;&amp;lt;geo shapes&amp;gt;&lt;/div&gt;&lt;div&gt;&amp;lt;geo grouping&amp;gt;&lt;/div&gt;" style="html=1;dropTarget=0;" parent="1" vertex="1">
          <mxGeometry x="423" y="550" width="162" height="60" as="geometry" />
        </mxCell>
        <mxCell id="aBZCno5w9hMfPToRCG13-204" value="" style="shape=module;jettyWidth=8;jettyHeight=4;fillColor=#d5e8d4;strokeColor=#82b366;" parent="aBZCno5w9hMfPToRCG13-203" vertex="1">
          <mxGeometry x="1" width="20" height="20" relative="1" as="geometry">
            <mxPoint x="-27" y="7" as="offset" />
          </mxGeometry>
        </mxCell>
        <mxCell id="aBZCno5w9hMfPToRCG13-205" value="" style="endArrow=classic;startArrow=classic;html=1;fontSize=14;exitX=0.901;exitY=0.02;exitDx=0;exitDy=0;strokeColor=#FFD49C;entryX=0.301;entryY=0.99;entryDx=0;entryDy=0;entryPerimeter=0;exitPerimeter=0;" parent="1" source="aBZCno5w9hMfPToRCG13-203" target="aBZCno5w9hMfPToRCG13-108" edge="1">
          <mxGeometry width="50" height="50" relative="1" as="geometry">
            <mxPoint x="227.5" y="655" as="sourcePoint" />
            <mxPoint x="609.75" y="490" as="targetPoint" />
          </mxGeometry>
        </mxCell>
        <mxCell id="aBZCno5w9hMfPToRCG13-206" value="" style="endArrow=classic;startArrow=classic;html=1;fontSize=14;exitX=1;exitY=0.25;exitDx=0;exitDy=0;fillColor=#f5f5f5;strokeColor=#E3E3E3;entryX=0;entryY=0.75;entryDx=0;entryDy=0;" parent="1" source="aBZCno5w9hMfPToRCG13-203" target="aBZCno5w9hMfPToRCG13-1" edge="1">
          <mxGeometry width="50" height="50" relative="1" as="geometry">
            <mxPoint x="227.5" y="637.5" as="sourcePoint" />
            <mxPoint x="809.5" y="422.5" as="targetPoint" />
          </mxGeometry>
        </mxCell>
        <mxCell id="aBZCno5w9hMfPToRCG13-207" value="" style="endArrow=classic;startArrow=classic;html=1;fontSize=14;exitX=0.25;exitY=0;exitDx=0;exitDy=0;entryX=0.75;entryY=1;entryDx=0;entryDy=0;" parent="1" source="aBZCno5w9hMfPToRCG13-134" target="aBZCno5w9hMfPToRCG13-203" edge="1">
          <mxGeometry width="50" height="50" relative="1" as="geometry">
            <mxPoint x="492.75" y="491.25" as="sourcePoint" />
            <mxPoint x="559.75" y="470.688622754491" as="targetPoint" />
          </mxGeometry>
        </mxCell>
        <mxCell id="aBZCno5w9hMfPToRCG13-209" value="Client" style="rounded=0;whiteSpace=wrap;html=1;dashed=1;fillColor=#f5f5f5;fontSize=14;strokeColor=#666666;fontColor=#333333;" parent="1" vertex="1">
          <mxGeometry x="1500" y="110" width="50" height="230" as="geometry" />
        </mxCell>
      </root>
    </mxGraphModel>
  </diagram>
</mxfile>
